{
.appVersion = "1075";
copyright = "Copyright (c) 2013-2018 by Alessio Laiso (hello@alessiolaiso.com). Licensed under the SIL Open Font License, Version 1.1";
customParameters = (
{
name = license;

glyphs = (
{
glyphname = .notdef;
layers = (
{
layerId = "394C4E3B-EB1E-48D6-87F8-186C851DDDB0";
paths = (
{
closed = 1;
nodes = (
"160 521 LINE",
"165 511 OFFCURVE",
"174 506 OFFCURVE",
"185 506 CURVE SMOOTH",
"190 506 OFFCURVE",
"195 508 OFFCURVE",
"199 510 CURVE SMOOTH",
"215 518 LINE SMOOTH",
"221 521 OFFCURVE",
"228 523 OFFCURVE",
"236 525 CURVE SMOOTH",
"244 527 OFFCURVE",
"254 528 OFFCURVE",
"266 528 CURVE SMOOTH",
"281 528 OFFCURVE",
"294 525 OFFCURVE",
"302 518 CURVE SMOOTH",
"310 511 OFFCURVE",
"314 501 OFFCURVE",
"314 489 CURVE SMOOTH",
"314 477 OFFCURVE",
"311 467 OFFCURVE",
"306 459 CURVE SMOOTH",
"301 451 OFFCURVE",
"295 443 OFFCURVE",
"287 436 CURVE SMOOTH",
"279 429 OFFCURVE",
"271 422 OFFCURVE",
"263 416 CURVE SMOOTH",
"255 410 OFFCURVE",
"247 403 OFFCURVE",
"240 396 CURVE SMOOTH",
"233 389 OFFCURVE",
"228 381 OFFCURVE",
"224 372 CURVE SMOOTH",
"220 363 OFFCURVE",
"219 353 OFFCURVE",
"221 341 CURVE SMOOTH",
"230 284 LINE",
"314 284 LINE",
"325 332 LINE",
"327 339 OFFCURVE",
"330 346 OFFCURVE",
"336 352 CURVE SMOOTH",
"342 358 OFFCURVE",
"348 364 OFFCURVE",
"356 370 CURVE SMOOTH",
"364 376 OFFCURVE",
"372 383 OFFCURVE",
"380 390 CURVE SMOOTH",
"388 397 OFFCURVE",
"397 405 OFFCURVE",
"404 415 CURVE SMOOTH",
"411 425 OFFCURVE",
"416 436 OFFCURVE",
"421 449 CURVE SMOOTH",
"426 462 OFFCURVE",
"428 479 OFFCURVE",
"428 497 CURVE SMOOTH",
"428 517 OFFCURVE",
"425 534 OFFCURVE",
"418 550 CURVE SMOOTH",
"411 566 OFFCURVE",
"401 580 OFFCURVE",
"388 592 CURVE SMOOTH",
"375 604 OFFCURVE",
"359 612 OFFCURVE",
"340 618 CURVE SMOOTH",
"321 624 OFFCURVE",
"301 628 OFFCURVE",
"278 628 CURVE SMOOTH",
"245 628 OFFCURVE",
"216 622 OFFCURVE",
"192 612 CURVE SMOOTH",
"168 602 OFFCURVE",
"146 589 OFFCURVE",
"127 574 CURVE"
);
},
{
closed = 1;
nodes = (
"200 147 OFFCURVE",
"201 138 OFFCURVE",
"205 130 CURVE SMOOTH",
"209 122 OFFCURVE",
"214 115 OFFCURVE",
"220 109 CURVE SMOOTH",
"226 103 OFFCURVE",
"233 98 OFFCURVE",
"241 94 CURVE SMOOTH",
"249 90 OFFCURVE",
"258 89 OFFCURVE",
"268 89 CURVE SMOOTH",
"277 89 OFFCURVE",
"286 90 OFFCURVE",
"294 94 CURVE SMOOTH",
"302 98 OFFCURVE",
"310 103 OFFCURVE",
"316 109 CURVE SMOOTH",
"322 115 OFFCURVE",
"326 122 OFFCURVE",
"330 130 CURVE SMOOTH",
"334 138 OFFCURVE",
"336 147 OFFCURVE",
"336 157 CURVE SMOOTH",
"336 166 OFFCURVE",
"334 175 OFFCURVE",
"330 183 CURVE SMOOTH",
"326 191 OFFCURVE",
"322 199 OFFCURVE",
"316 205 CURVE SMOOTH",
"310 211 OFFCURVE",
"302 215 OFFCURVE",
"294 219 CURVE SMOOTH",
"286 223 OFFCURVE",
"277 225 OFFCURVE",
"268 225 CURVE SMOOTH",
"258 225 OFFCURVE",
"249 223 OFFCURVE",
"241 219 CURVE SMOOTH",
"233 215 OFFCURVE",
"226 211 OFFCURVE",
"220 205 CURVE SMOOTH",
"214 199 OFFCURVE",
"209 191 OFFCURVE",
"205 183 CURVE SMOOTH",
"201 175 OFFCURVE",
"200 166 OFFCURVE",
"200 157 CURVE SMOOTH"
);
},
{
closed = 1;
nodes = (
"28 723 LINE",
"28 0 LINE",
"534 0 LINE",
"534 723 LINE"
);
},
{
closed = 1;
nodes = (
"61 35 LINE",
"61 689 LINE",
"498 689 LINE",
"498 35 LINE"
);
}
);
width = 561;
}
);
note = .notdef;
},
{
glyphname = exclam;
layers = (
{
layerId = "394C4E3B-EB1E-48D6-87F8-186C851DDDB0";
paths = (
{
closed = 1;
nodes = (
"153 723 LINE",
"36 723 LINE",
"36 437 LINE SMOOTH",
"36 407 OFFCURVE",
"38 377 OFFCURVE",
"41 348 CURVE SMOOTH",
"44 319 OFFCURVE",
"48 288 OFFCURVE",
"53 255 CURVE",
"136 255 LINE",
"141 288 OFFCURVE",
"145 319 OFFCURVE",
"148 348 CURVE SMOOTH",
"151 377 OFFCURVE",
"153 407 OFFCURVE",
"153 437 CURVE SMOOTH"
);
},
{
closed = 1;
nodes = (
"18 57 OFFCURVE",
"19 47 OFFCURVE",
"23 38 CURVE SMOOTH",
"27 29 OFFCURVE",
"32 22 OFFCURVE",
"39 15 CURVE SMOOTH",
"46 8 OFFCURVE",
"55 3 OFFCURVE",
"64 -1 CURVE SMOOTH",
"73 -5 OFFCURVE",
"83 -7 OFFCURVE",
"94 -7 CURVE SMOOTH",
"104 -7 OFFCURVE",
"114 -5 OFFCURVE",
"123 -1 CURVE SMOOTH",
"132 3 OFFCURVE",
"140 8 OFFCURVE",
"147 15 CURVE SMOOTH",
"154 22 OFFCURVE",
"159 29 OFFCURVE",
"163 38 CURVE SMOOTH",
"167 47 OFFCURVE",
"169 57 OFFCURVE",
"169 68 CURVE SMOOTH",
"169 78 OFFCURVE",
"167 89 OFFCURVE",
"163 98 CURVE SMOOTH",
"159 107 OFFCURVE",
"154 115 OFFCURVE",
"147 122 CURVE SMOOTH",
"140 129 OFFCURVE",
"132 134 OFFCURVE",
"123 138 CURVE SMOOTH",
"114 142 OFFCURVE",
"104 144 OFFCURVE",
"94 144 CURVE SMOOTH",
"83 144 OFFCURVE",
"73 142 OFFCURVE",
"64 138 CURVE SMOOTH",
"55 134 OFFCURVE",
"46 129 OFFCURVE",
"39 122 CURVE SMOOTH",
"32 115 OFFCURVE",
"27 107 OFFCURVE",
"23 98 CURVE SMOOTH",
"19 89 OFFCURVE",
"18 78 OFFCURVE",
"18 68 CURVE SMOOTH"
);
}
);
width = 186;
}
);
note = exclam;
unicode = 0021;
},
{
glyphname = quotedbl;
lastChange = "2017-01-26 15:47:28 +0000";
layers = (
{
layerId = "394C4E3B-EB1E-48D6-87F8-186C851DDDB0";
paths = (
{
closed = 1;
nodes = (
"131 723 LINE",
"24 723 LINE",
"24 579 LINE",
"34 501 LINE SMOOTH",
"36 486 OFFCURVE",
"41 475 OFFCURVE",
"48 467 CURVE SMOOTH",
"55 459 OFFCURVE",
"64 456 OFFCURVE",
"76 456 CURVE SMOOTH",
"90 456 OFFCURVE",
"101 459 OFFCURVE",
"107 467 CURVE SMOOTH",
"113 475 OFFCURVE",
"118 486 OFFCURVE",
"120 501 CURVE SMOOTH",
"131 579 LINE"
);
},
{
closed = 1;
nodes = (
"315 723 LINE",
"208 723 LINE",
"208 579 LINE",
"218 501 LINE SMOOTH",
"220 486 OFFCURVE",
"225 475 OFFCURVE",
"232 467 CURVE SMOOTH",
"239 459 OFFCURVE",
"248 456 OFFCURVE",
"260 456 CURVE SMOOTH",
"274 456 OFFCURVE",
"285 459 OFFCURVE",
"291 467 CURVE SMOOTH",
"297 475 OFFCURVE",
"302 486 OFFCURVE",
"304 501 CURVE SMOOTH",
"315 579 LINE"
);
}
);
width = 338;
}
);
leftKerningGroup = ordfeminine;
note = quotedbl;
rightKerningGroup = ordfeminine;
unicode = 0022;
},
{
glyphname = numbersign;
layers = (
{
layerId = "394C4E3B-EB1E-48D6-87F8-186C851DDDB0";
paths = (
{
closed = 1;
nodes = (
"413 204 LINE",
"522 204 LINE",
"528 243 LINE SMOOTH",
"529 249 OFFCURVE",
"529 254 OFFCURVE",
"529 259 CURVE SMOOTH",
"529 271 OFFCURVE",
"527 280 OFFCURVE",
"521 285 CURVE SMOOTH",
"515 290 OFFCURVE",
"507 293 OFFCURVE",
"496 293 CURVE SMOOTH",
"426 293 LINE",
"451 431 LINE",
"501 431 LINE SMOOTH",
"519 431 OFFCURVE",
"532 434 OFFCURVE",
"540 440 CURVE SMOOTH",
"548 446 OFFCURVE",
"554 455 OFFCURVE",
"556 468 CURVE SMOOTH",
"565 520 LINE",
"464 520 LINE",
"494 680 LINE",
"494 682 OFFCURVE",
"495 685 OFFCURVE",
"495 688 CURVE SMOOTH",
"495 698 OFFCURVE",
"491 706 OFFCURVE",
"484 713 CURVE SMOOTH",
"477 720 OFFCURVE",
"468 723 OFFCURVE",
"456 723 CURVE SMOOTH",
"400 723 LINE",
"362 520 LINE",
"260 520 LINE",
"298 723 LINE",
"242 723 LINE SMOOTH",
"229 723 OFFCURVE",
"218 719 OFFCURVE",
"208 712 CURVE SMOOTH",
"198 705 OFFCURVE",
"193 694 OFFCURVE",
"190 681 CURVE SMOOTH",
"158 520 LINE",
"103 520 LINE SMOOTH",
"85 520 OFFCURVE",
"72 517 OFFCURVE",
"64 511 CURVE SMOOTH",
"56 505 OFFCURVE",
"50 495 OFFCURVE",
"48 482 CURVE SMOOTH",
"39 431 LINE",
"146 431 LINE",
"120 293 LINE",
"25 293 LINE",
"18 254 LINE SMOOTH",
"17 248 OFFCURVE",
"17 242 OFFCURVE",
"17 237 CURVE SMOOTH",
"17 225 OFFCURVE",
"20 217 OFFCURVE",
"26 212 CURVE SMOOTH",
"32 207 OFFCURVE",
"39 204 OFFCURVE",
"50 204 CURVE SMOOTH",
"108 204 LINE",
"70 0 LINE",
"124 0 LINE SMOOTH",
"137 0 OFFCURVE",
"149 3 OFFCURVE",
"160 10 CURVE SMOOTH",
"171 17 OFFCURVE",
"177 29 OFFCURVE",
"180 45 CURVE SMOOTH",
"209 204 LINE",
"312 204 LINE",
"282 51 LINE",
"282 49 OFFCURVE",
"281 48 OFFCURVE",
"281 46 CURVE SMOOTH",
"281 41 LINE SMOOTH",
"281 29 OFFCURVE",
"285 20 OFFCURVE",
"292 12 CURVE SMOOTH",
"299 4 OFFCURVE",
"308 0 OFFCURVE",
"318 0 CURVE SMOOTH",
"374 0 LINE"
);
},
{
closed = 1;
nodes = (
"222 293 LINE",
"248 431 LINE",
"350 431 LINE",
"324 293 LINE"
);
}
);
width = 580;
}
);
note = numbersign;
unicode = 0023;
},
{
glyphname = dollar;
layers = (
{
layerId = "394C4E3B-EB1E-48D6-87F8-186C851DDDB0";
paths = (
{
closed = 1;
nodes = (
"201 -112 LINE",
"246 -112 LINE SMOOTH",
"256 -112 OFFCURVE",
"264 -108 OFFCURVE",
"270 -102 CURVE SMOOTH",
"276 -96 OFFCURVE",
"279 -88 OFFCURVE",
"280 -80 CURVE",
"286 -7 LINE",
"323 -4 OFFCURVE",
"357 3 OFFCURVE",
"386 16 CURVE SMOOTH",
"415 29 OFFCURVE",
"439 46 OFFCURVE",
"459 67 CURVE SMOOTH",
"479 88 OFFCURVE",
"494 112 OFFCURVE",
"504 139 CURVE SMOOTH",
"514 166 OFFCURVE",
"520 195 OFFCURVE",
"520 226 CURVE SMOOTH",
"520 257 OFFCURVE",
"514 284 OFFCURVE",
"502 305 CURVE SMOOTH",
"490 326 OFFCURVE",
"475 343 OFFCURVE",
"456 357 CURVE SMOOTH",
"437 371 OFFCURVE",
"417 382 OFFCURVE",
"393 391 CURVE SMOOTH",
"369 400 OFFCURVE",
"346 409 OFFCURVE",
"322 416 CURVE",
"339 622 LINE",
"352 619 OFFCURVE",
"363 616 OFFCURVE",
"374 611 CURVE SMOOTH",
"385 606 OFFCURVE",
"395 602 OFFCURVE",
"404 597 CURVE",
"413 593 OFFCURVE",
"420 589 OFFCURVE",
"427 586 CURVE SMOOTH",
"434 583 OFFCURVE",
"440 581 OFFCURVE",
"445 581 CURVE SMOOTH",
"452 581 OFFCURVE",
"457 583 OFFCURVE",
"462 586 CURVE SMOOTH",
"467 589 OFFCURVE",
"471 594 OFFCURVE",
"476 601 CURVE SMOOTH",
"506 646 LINE",
"487 664 OFFCURVE",
"465 681 OFFCURVE",
"439 695 CURVE SMOOTH",
"413 709 OFFCURVE",
"383 719 OFFCURVE",
"348 725 CURVE",
"356 824 LINE",
"311 824 LINE SMOOTH",
"301 824 OFFCURVE",
"293 820 OFFCURVE",
"287 814 CURVE SMOOTH",
"281 808 OFFCURVE",
"278 800 OFFCURVE",
"277 792 CURVE",
"272 730 LINE",
"235 728 OFFCURVE",
"202 720 OFFCURVE",
"174 708 CURVE SMOOTH",
"146 696 OFFCURVE",
"121 681 OFFCURVE",
"102 662 CURVE SMOOTH",
"83 643 OFFCURVE",
"68 621 OFFCURVE",
"58 597 CURVE SMOOTH",
"48 573 OFFCURVE",
"43 547 OFFCURVE",
"43 522 CURVE SMOOTH",
"43 488 OFFCURVE",
"49 461 OFFCURVE",
"60 438 CURVE SMOOTH",
"71 415 OFFCURVE",
"87 396 OFFCURVE",
"105 381 CURVE SMOOTH",
"123 366 OFFCURVE",
"144 355 OFFCURVE",
"167 346 CURVE SMOOTH",
"190 337 OFFCURVE",
"214 329 OFFCURVE",
"238 322 CURVE",
"218 98 LINE",
"199 101 OFFCURVE",
"184 107 OFFCURVE",
"170 114 CURVE SMOOTH",
"156 121 OFFCURVE",
"145 127 OFFCURVE",
"134 134 CURVE SMOOTH",
"123 141 OFFCURVE",
"113 148 OFFCURVE",
"105 153 CURVE SMOOTH",
"97 158 OFFCURVE",
"89 160 OFFCURVE",
"82 160 CURVE SMOOTH",
"76 160 OFFCURVE",
"70 159 OFFCURVE",
"64 156 CURVE SMOOTH",
"58 153 OFFCURVE",
"54 148 OFFCURVE",
"51 143 CURVE",
"13 87 LINE",
"37 63 OFFCURVE",
"66 43 OFFCURVE",
"100 27 CURVE SMOOTH",
"134 11 OFFCURVE",
"171 1 OFFCURVE",
"210 -4 CURVE"
);
},
{
closed = 1;
nodes = (
"402 176 OFFCURVE",
"393 151 OFFCURVE",
"375 132 CURVE SMOOTH",
"357 113 OFFCURVE",
"330 101 OFFCURVE",
"295 96 CURVE",
"312 300 LINE",
"325 296 OFFCURVE",
"337 290 OFFCURVE",
"348 285 CURVE SMOOTH",
"359 280 OFFCURVE",
"369 273 OFFCURVE",
"377 266 CURVE SMOOTH",
"385 259 OFFCURVE",
"391 251 OFFCURVE",
"396 241 CURVE",
"400 231 OFFCURVE",
"402 220 OFFCURVE",
"402 207 CURVE SMOOTH"
);
},
{
closed = 1;
nodes = (
"160 545 OFFCURVE",
"161 556 OFFCURVE",
"165 566 CURVE SMOOTH",
"169 576 OFFCURVE",
"176 584 OFFCURVE",
"184 592 CURVE SMOOTH",
"192 600 OFFCURVE",
"203 607 OFFCURVE",
"216 613 CURVE",
"229 618 OFFCURVE",
"244 622 OFFCURVE",
"262 624 CURVE",
"247 439 LINE",
"234 444 OFFCURVE",
"223 449 OFFCURVE",
"212 455 CURVE SMOOTH",
"201 461 OFFCURVE",
"192 467 OFFCURVE",
"184 475 CURVE SMOOTH",
"176 483 OFFCURVE",
"170 491 OFFCURVE",
"166 501 CURVE SMOOTH",
"162 511 OFFCURVE",
"160 521 OFFCURVE",
"160 534 CURVE SMOOTH"
);
}
);
width = 535;
}
);
note = dollar;
unicode = 0024;
},
{
glyphname = percent;
layers = (
{
layerId = "394C4E3B-EB1E-48D6-87F8-186C851DDDB0";
paths = (
{
closed = 1;
nodes = (
"352 576 OFFCURVE",
"347 601 OFFCURVE",
"339 624 CURVE SMOOTH",
"331 647 OFFCURVE",
"319 666 OFFCURVE",
"304 682 CURVE SMOOTH",
"289 698 OFFCURVE",
"271 710 OFFCURVE",
"251 718 CURVE SMOOTH",
"231 726 OFFCURVE",
"208 730 OFFCURVE",
"184 730 CURVE SMOOTH",
"160 730 OFFCURVE",
"138 726 OFFCURVE",
"118 718 CURVE SMOOTH",
"98 710 OFFCURVE",
"80 698 OFFCURVE",
"65 682 CURVE SMOOTH",
"50 666 OFFCURVE",
"38 647 OFFCURVE",
"30 624 CURVE SMOOTH",
"22 601 OFFCURVE",
"18 576 OFFCURVE",
"18 548 CURVE SMOOTH",
"18 521 OFFCURVE",
"22 496 OFFCURVE",
"30 474 CURVE SMOOTH",
"38 452 OFFCURVE",
"50 434 OFFCURVE",
"65 418 CURVE SMOOTH",
"80 402 OFFCURVE",
"98 390 OFFCURVE",
"118 382 CURVE SMOOTH",
"138 374 OFFCURVE",
"160 370 OFFCURVE",
"184 370 CURVE SMOOTH",
"206 370 OFFCURVE",
"228 374 OFFCURVE",
"248 382 CURVE SMOOTH",
"268 390 OFFCURVE",
"286 402 OFFCURVE",
"301 418 CURVE SMOOTH",
"316 434 OFFCURVE",
"329 452 OFFCURVE",
"338 474 CURVE SMOOTH",
"347 496 OFFCURVE",
"352 521 OFFCURVE",
"352 548 CURVE SMOOTH"
);
},
{
closed = 1;
nodes = (
"256 529 OFFCURVE",
"255 513 OFFCURVE",
"251 501 CURVE SMOOTH",
"247 489 OFFCURVE",
"241 479 OFFCURVE",
"235 471 CURVE SMOOTH",
"229 463 OFFCURVE",
"221 457 OFFCURVE",
"212 454 CURVE SMOOTH",
"203 451 OFFCURVE",
"194 450 OFFCURVE",
"184 450 CURVE SMOOTH",
"174 450 OFFCURVE",
"165 451 OFFCURVE",
"156 454 CURVE SMOOTH",
"147 457 OFFCURVE",
"140 463 OFFCURVE",
"134 471 CURVE SMOOTH",
"128 479 OFFCURVE",
"123 489 OFFCURVE",
"119 501 CURVE SMOOTH",
"115 513 OFFCURVE",
"114 529 OFFCURVE",
"114 548 CURVE SMOOTH",
"114 567 OFFCURVE",
"115 583 OFFCURVE",
"119 596 CURVE",
"122 609 OFFCURVE",
"128 620 OFFCURVE",
"134 628 CURVE SMOOTH",
"140 636 OFFCURVE",
"147 641 OFFCURVE",
"156 645 CURVE SMOOTH",
"165 649 OFFCURVE",
"174 650 OFFCURVE",
"184 650 CURVE SMOOTH",
"194 650 OFFCURVE",
"203 649 OFFCURVE",
"212 645 CURVE SMOOTH",
"221 641 OFFCURVE",
"229 636 OFFCURVE",
"235 628 CURVE SMOOTH",
"241 620 OFFCURVE",
"246 609 OFFCURVE",
"250 596 CURVE SMOOTH",
"254 583 OFFCURVE",
"256 567 OFFCURVE",
"256 548 CURVE SMOOTH"
);
},
{
closed = 1;
nodes = (
"55 0 LINE",
"147 0 LINE SMOOTH",
"156 0 OFFCURVE",
"163 1 OFFCURVE",
"169 5 CURVE SMOOTH",
"175 9 OFFCURVE",
"180 13 OFFCURVE",
"184 18 CURVE SMOOTH",
"722 723 LINE",
"632 723 LINE SMOOTH",
"621 723 OFFCURVE",
"613 721 OFFCURVE",
"607 717 CURVE SMOOTH",
"601 713 OFFCURVE",
"596 709 OFFCURVE",
"592 704 CURVE SMOOTH"
);
},
{
closed = 1;
nodes = (
"760 198 OFFCURVE",
"755 223 OFFCURVE",
"747 246 CURVE SMOOTH",
"739 269 OFFCURVE",
"727 288 OFFCURVE",
"712 304 CURVE SMOOTH",
"697 320 OFFCURVE",
"679 332 OFFCURVE",
"659 340 CURVE SMOOTH",
"639 348 OFFCURVE",
"616 352 OFFCURVE",
"592 352 CURVE SMOOTH",
"568 352 OFFCURVE",
"546 348 OFFCURVE",
"526 340 CURVE SMOOTH",
"506 332 OFFCURVE",
"488 320 OFFCURVE",
"473 304 CURVE SMOOTH",
"458 288 OFFCURVE",
"446 269 OFFCURVE",
"438 246 CURVE SMOOTH",
"430 223 OFFCURVE",
"425 198 OFFCURVE",
"425 170 CURVE SMOOTH",
"425 143 OFFCURVE",
"430 118 OFFCURVE",
"438 96 CURVE SMOOTH",
"446 74 OFFCURVE",
"458 56 OFFCURVE",
"473 40 CURVE SMOOTH",
"488 24 OFFCURVE",
"506 12 OFFCURVE",
"526 4 CURVE SMOOTH",
"546 -4 OFFCURVE",
"568 -9 OFFCURVE",
"592 -9 CURVE SMOOTH",
"614 -9 OFFCURVE",
"636 -4 OFFCURVE",
"656 4 CURVE SMOOTH",
"676 12 OFFCURVE",
"694 24 OFFCURVE",
"709 40 CURVE SMOOTH",
"724 56 OFFCURVE",
"737 74 OFFCURVE",
"746 96 CURVE SMOOTH",
"755 118 OFFCURVE",
"760 143 OFFCURVE",
"760 170 CURVE SMOOTH"
);
},
{
closed = 1;
nodes = (
"664 151 OFFCURVE",
"663 136 OFFCURVE",
"659 123 CURVE SMOOTH",
"655 110 OFFCURVE",
"649 101 OFFCURVE",
"643 93 CURVE SMOOTH",
"637 85 OFFCURVE",
"629 79 OFFCURVE",
"620 76 CURVE SMOOTH",
"611 73 OFFCURVE",
"602 71 OFFCURVE",
"592 71 CURVE SMOOTH",
"582 71 OFFCURVE",
"573 73 OFFCURVE",
"564 76 CURVE SMOOTH",
"555 79 OFFCURVE",
"548 85 OFFCURVE",
"542 93 CURVE SMOOTH",
"536 101 OFFCURVE",
"531 110 OFFCURVE",
"527 123 CURVE SMOOTH",
"523 136 OFFCURVE",
"522 151 OFFCURVE",
"522 170 CURVE SMOOTH",
"522 189 OFFCURVE",
"523 206 OFFCURVE",
"527 219 CURVE SMOOTH",
"531 232 OFFCURVE",
"536 242 OFFCURVE",
"542 250 CURVE SMOOTH",
"548 258 OFFCURVE",
"555 263 OFFCURVE",
"564 267 CURVE SMOOTH",
"573 271 OFFCURVE",
"582 273 OFFCURVE",
"592 273 CURVE SMOOTH",
"602 273 OFFCURVE",
"611 271 OFFCURVE",
"620 267 CURVE SMOOTH",
"629 263 OFFCURVE",
"637 258 OFFCURVE",
"643 250 CURVE SMOOTH",
"649 242 OFFCURVE",
"655 232 OFFCURVE",
"659 219 CURVE SMOOTH",
"663 206 OFFCURVE",
"664 189 OFFCURVE",
"664 170 CURVE SMOOTH"
);
}
);
width = 776;
}
);
note = percent;
unicode = 0025;
},
{
glyphname = ampersand;
layers = (
{
layerId = "394C4E3B-EB1E-48D6-87F8-186C851DDDB0";
paths = (
{
closed = 1;
nodes = (
"285 731 OFFCURVE",
"256 726 OFFCURVE",
"231 716 CURVE SMOOTH",
"206 706 OFFCURVE",
"184 693 OFFCURVE",
"166 676 CURVE SMOOTH",
"148 659 OFFCURVE",
"135 640 OFFCURVE",
"126 618 CURVE SMOOTH",
"117 596 OFFCURVE",
"113 571 OFFCURVE",
"113 546 CURVE SMOOTH",
"113 522 OFFCURVE",
"117 499 OFFCURVE",
"125 475 CURVE SMOOTH",
"133 451 OFFCURVE",
"146 427 OFFCURVE",
"164 402 CURVE",
"143 392 OFFCURVE",
"123 380 OFFCURVE",
"105 366 CURVE SMOOTH",
"87 352 OFFCURVE",
"71 336 OFFCURVE",
"58 319 CURVE SMOOTH",
"45 302 OFFCURVE",
"35 283 OFFCURVE",
"28 263 CURVE SMOOTH",
"21 243 OFFCURVE",
"17 221 OFFCURVE",
"17 199 CURVE SMOOTH",
"17 167 OFFCURVE",
"23 139 OFFCURVE",
"36 113 CURVE SMOOTH",
"49 87 OFFCURVE",
"66 66 OFFCURVE",
"87 48 CURVE SMOOTH",
"108 30 OFFCURVE",
"131 16 OFFCURVE",
"158 6 CURVE SMOOTH",
"185 -4 OFFCURVE",
"212 -8 OFFCURVE",
"240 -8 CURVE SMOOTH",
"286 -8 OFFCURVE",
"329 -1 OFFCURVE",
"368 14 CURVE SMOOTH",
"407 29 OFFCURVE",
"442 49 OFFCURVE",
"474 75 CURVE",
"524 24 LINE",
"528 19 OFFCURVE",
"533 15 OFFCURVE",
"537 12 CURVE SMOOTH",
"541 9 OFFCURVE",
"546 7 OFFCURVE",
"550 5 CURVE SMOOTH",
"554 3 OFFCURVE",
"558 2 OFFCURVE",
"563 1 CURVE SMOOTH",
"568 0 OFFCURVE",
"574 0 OFFCURVE",
"580 0 CURVE SMOOTH",
"701 0 LINE",
"550 157 LINE",
"573 191 OFFCURVE",
"590 228 OFFCURVE",
"602 268 CURVE SMOOTH",
"614 308 OFFCURVE",
"622 350 OFFCURVE",
"622 394 CURVE",
"544 394 LINE SMOOTH",
"536 394 OFFCURVE",
"530 391 OFFCURVE",
"526 386 CURVE SMOOTH",
"522 381 OFFCURVE",
"519 376 OFFCURVE",
"518 368 CURVE",
"516 344 OFFCURVE",
"513 320 OFFCURVE",
"506 297 CURVE SMOOTH",
"499 274 OFFCURVE",
"490 252 OFFCURVE",
"479 231 CURVE",
"287 430 LINE SMOOTH",
"276 441 OFFCURVE",
"267 452 OFFCURVE",
"259 462 CURVE SMOOTH",
"251 472 OFFCURVE",
"246 482 OFFCURVE",
"241 491 CURVE SMOOTH",
"236 500 OFFCURVE",
"233 510 OFFCURVE",
"231 519 CURVE SMOOTH",
"229 528 OFFCURVE",
"228 538 OFFCURVE",
"228 548 CURVE SMOOTH",
"228 560 OFFCURVE",
"230 571 OFFCURVE",
"234 582 CURVE SMOOTH",
"238 593 OFFCURVE",
"243 602 OFFCURVE",
"251 610 CURVE SMOOTH",
"259 618 OFFCURVE",
"268 625 OFFCURVE",
"279 630 CURVE SMOOTH",
"290 635 OFFCURVE",
"303 637 OFFCURVE",
"317 637 CURVE SMOOTH",
"329 637 OFFCURVE",
"339 636 OFFCURVE",
"348 632 CURVE SMOOTH",
"357 628 OFFCURVE",
"364 624 OFFCURVE",
"371 618 CURVE SMOOTH",
"378 612 OFFCURVE",
"383 605 OFFCURVE",
"388 597 CURVE SMOOTH",
"393 589 OFFCURVE",
"397 581 OFFCURVE",
"400 572 CURVE",
"403 565 OFFCURVE",
"405 561 OFFCURVE",
"410 558 CURVE",
"414 555 OFFCURVE",
"420 553 OFFCURVE",
"426 553 CURVE SMOOTH",
"429 553 LINE SMOOTH",
"430 553 OFFCURVE",
"431 554 OFFCURVE",
"432 554 CURVE",
"510 570 LINE",
"508 591 OFFCURVE",
"504 611 OFFCURVE",
"494 630 CURVE SMOOTH",
"484 649 OFFCURVE",
"471 667 OFFCURVE",
"455 682 CURVE SMOOTH",
"439 697 OFFCURVE",
"418 709 OFFCURVE",
"395 718 CURVE SMOOTH",
"372 727 OFFCURVE",
"346 731 OFFCURVE",
"317 731 CURVE SMOOTH"
);
},
{
closed = 1;
nodes = (
"143 234 OFFCURVE",
"149 257 OFFCURVE",
"161 279 CURVE SMOOTH",
"173 301 OFFCURVE",
"192 321 OFFCURVE",
"219 338 CURVE",
"409 143 LINE",
"389 127 OFFCURVE",
"367 113 OFFCURVE",
"343 104 CURVE SMOOTH",
"319 95 OFFCURVE",
"292 91 OFFCURVE",
"263 91 CURVE SMOOTH",
"247 91 OFFCURVE",
"230 93 OFFCURVE",
"216 99 CURVE SMOOTH",
"202 105 OFFCURVE",
"189 112 OFFCURVE",
"178 122 CURVE SMOOTH",
"167 132 OFFCURVE",
"158 145 OFFCURVE",
"152 160 CURVE SMOOTH",
"146 175 OFFCURVE",
"143 191 OFFCURVE",
"143 209 CURVE SMOOTH"
);
}
);
width = 716;
}
);
note = ampersand;
unicode = 0026;
},
{
glyphname = quotesingle;
lastChange = "2017-01-26 15:47:28 +0000";
layers = (
{
layerId = "394C4E3B-EB1E-48D6-87F8-186C851DDDB0";
paths = (
{
closed = 1;
nodes = (
"131 723 LINE",
"24 723 LINE",
"24 579 LINE",
"34 501 LINE SMOOTH",
"36 486 OFFCURVE",
"41 475 OFFCURVE",
"48 467 CURVE SMOOTH",
"55 459 OFFCURVE",
"64 456 OFFCURVE",
"76 456 CURVE SMOOTH",
"90 456 OFFCURVE",
"101 459 OFFCURVE",
"107 467 CURVE SMOOTH",
"113 475 OFFCURVE",
"118 486 OFFCURVE",
"120 501 CURVE SMOOTH",
"131 579 LINE"
);
}
);
width = 154;
}
);
leftKerningGroup = ordfeminine;
note = quotesingle;
rightKerningGroup = ordfeminine;
unicode = 0027;
},
{
glyphname = parenleft;
layers = (
{
layerId = "394C4E3B-EB1E-48D6-87F8-186C851DDDB0";
paths = (
{
closed = 1;
nodes = (
"125 383 OFFCURVE",
"133 450 OFFCURVE",
"150 516 CURVE SMOOTH",
"167 582 OFFCURVE",
"190 646 OFFCURVE",
"221 704 CURVE",
"225 713 OFFCURVE",
"228 720 OFFCURVE",
"228 726 CURVE SMOOTH",
"228 732 OFFCURVE",
"225 738 OFFCURVE",
"222 742 CURVE SMOOTH",
"219 746 OFFCURVE",
"215 749 OFFCURVE",
"210 752 CURVE SMOOTH",
"156 785 LINE",
"131 747 OFFCURVE",
"109 709 OFFCURVE",
"92 671 CURVE SMOOTH",
"75 633 OFFCURVE",
"61 594 OFFCURVE",
"50 555 CURVE SMOOTH",
"39 516 OFFCURVE",
"31 476 OFFCURVE",
"26 436 CURVE SMOOTH",
"21 396 OFFCURVE",
"18 356 OFFCURVE",
"18 314 CURVE SMOOTH",
"18 272 OFFCURVE",
"21 231 OFFCURVE",
"26 191 CURVE SMOOTH",
"31 151 OFFCURVE",
"39 111 OFFCURVE",
"50 72 CURVE SMOOTH",
"61 33 OFFCURVE",
"75 -6 OFFCURVE",
"92 -44 CURVE SMOOTH",
"109 -82 OFFCURVE",
"131 -120 OFFCURVE",
"156 -158 CURVE",
"210 -124 LINE SMOOTH",
"215 -121 OFFCURVE",
"219 -118 OFFCURVE",
"222 -114 CURVE SMOOTH",
"225 -110 OFFCURVE",
"228 -105 OFFCURVE",
"228 -98 CURVE SMOOTH",
"228 -95 OFFCURVE",
"227 -92 OFFCURVE",
"226 -88 CURVE SMOOTH",
"225 -84 OFFCURVE",
"224 -80 OFFCURVE",
"222 -76 CURVE SMOOTH",
"191 -18 OFFCURVE",
"167 45 OFFCURVE",
"150 111 CURVE SMOOTH",
"133 177 OFFCURVE",
"125 245 OFFCURVE",
"125 314 CURVE SMOOTH"
);
}
);
width = 242;
}
);
note = parenleft;
unicode = 0028;
},
{
glyphname = parenright;
layers = (
{
layerId = "394C4E3B-EB1E-48D6-87F8-186C851DDDB0";
paths = (
{
closed = 1;
nodes = (
"117 245 OFFCURVE",
"109 177 OFFCURVE",
"92 111 CURVE SMOOTH",
"75 45 OFFCURVE",
"52 -18 OFFCURVE",
"21 -76 CURVE SMOOTH",
"19 -80 OFFCURVE",
"17 -84 OFFCURVE",
"16 -88 CURVE SMOOTH",
"15 -92 OFFCURVE",
"14 -95 OFFCURVE",
"14 -98 CURVE SMOOTH",
"14 -105 OFFCURVE",
"17 -110 OFFCURVE",
"20 -114 CURVE SMOOTH",
"23 -118 OFFCURVE",
"27 -121 OFFCURVE",
"32 -124 CURVE SMOOTH",
"86 -158 LINE",
"111 -120 OFFCURVE",
"133 -82 OFFCURVE",
"150 -44 CURVE SMOOTH",
"167 -6 OFFCURVE",
"181 33 OFFCURVE",
"192 72 CURVE SMOOTH",
"203 111 OFFCURVE",
"211 151 OFFCURVE",
"216 191 CURVE SMOOTH",
"221 231 OFFCURVE",
"224 272 OFFCURVE",
"224 314 CURVE SMOOTH",
"224 356 OFFCURVE",
"221 396 OFFCURVE",
"216 436 CURVE SMOOTH",
"211 476 OFFCURVE",
"203 516 OFFCURVE",
"192 555 CURVE SMOOTH",
"181 594 OFFCURVE",
"167 633 OFFCURVE",
"150 671 CURVE SMOOTH",
"133 709 OFFCURVE",
"111 747 OFFCURVE",
"86 785 CURVE",
"32 752 LINE SMOOTH",
"27 749 OFFCURVE",
"23 746 OFFCURVE",
"20 742 CURVE SMOOTH",
"17 738 OFFCURVE",
"14 732 OFFCURVE",
"14 726 CURVE SMOOTH",
"14 720 OFFCURVE",
"17 713 OFFCURVE",
"21 704 CURVE",
"52 646 OFFCURVE",
"75 582 OFFCURVE",
"92 516 CURVE SMOOTH",
"109 450 OFFCURVE",
"117 383 OFFCURVE",
"117 314 CURVE SMOOTH"
);
}
);
width = 242;
}
);
note = parenright;
unicode = 0029;
},
{
glyphname = asterisk;
lastChange = "2017-01-26 15:47:28 +0000";
layers = (
{
layerId = "394C4E3B-EB1E-48D6-87F8-186C851DDDB0";
paths = (
{
closed = 1;
nodes = (
"152 418 LINE",
"210 418 LINE",
"210 510 LINE SMOOTH",
"210 524 OFFCURVE",
"208 537 OFFCURVE",
"204 548 CURVE",
"208 543 OFFCURVE",
"213 539 OFFCURVE",
"218 535 CURVE SMOOTH",
"223 531 OFFCURVE",
"228 528 OFFCURVE",
"234 524 CURVE",
"314 478 LINE",
"342 528 LINE",
"263 574 LINE SMOOTH",
"250 581 OFFCURVE",
"238 586 OFFCURVE",
"227 588 CURVE",
"233 589 OFFCURVE",
"239 591 OFFCURVE",
"245 593 CURVE SMOOTH",
"251 595 OFFCURVE",
"257 598 OFFCURVE",
"263 602 CURVE",
"343 648 LINE",
"313 698 LINE",
"234 652 LINE",
"228 648 OFFCURVE",
"223 645 OFFCURVE",
"218 641 CURVE SMOOTH",
"213 637 OFFCURVE",
"209 633 OFFCURVE",
"205 628 CURVE",
"207 634 OFFCURVE",
"208 640 OFFCURVE",
"209 646 CURVE SMOOTH",
"210 652 OFFCURVE",
"210 659 OFFCURVE",
"210 666 CURVE SMOOTH",
"210 758 LINE",
"152 758 LINE",
"152 666 LINE SMOOTH",
"152 659 OFFCURVE",
"152 652 OFFCURVE",
"153 646 CURVE SMOOTH",
"154 640 OFFCURVE",
"156 634 OFFCURVE",
"158 628 CURVE",
"154 633 OFFCURVE",
"149 637 OFFCURVE",
"144 641 CURVE SMOOTH",
"139 645 OFFCURVE",
"134 648 OFFCURVE",
"128 652 CURVE",
"48 699 LINE",
"20 649 LINE",
"99 602 LINE",
"105 598 OFFCURVE",
"111 596 OFFCURVE",
"117 593 CURVE SMOOTH",
"123 590 OFFCURVE",
"129 589 OFFCURVE",
"135 588 CURVE",
"129 587 OFFCURVE",
"123 585 OFFCURVE",
"117 583 CURVE SMOOTH",
"111 581 OFFCURVE",
"105 578 OFFCURVE",
"99 574 CURVE",
"20 528 LINE",
"49 478 LINE",
"128 524 LINE",
"134 528 OFFCURVE",
"139 531 OFFCURVE",
"144 535 CURVE SMOOTH",
"149 539 OFFCURVE",
"153 543 OFFCURVE",
"157 548 CURVE",
"155 542 OFFCURVE",
"154 536 OFFCURVE",
"153 530 CURVE SMOOTH",
"152 524 OFFCURVE",
"152 517 OFFCURVE",
"152 510 CURVE SMOOTH"
);
}
);
width = 362;
}
);
leftKerningGroup = quotedbl;
note = asterisk;
rightKerningGroup = quotedbl;
unicode = 002A;
},
{
glyphname = plus;
layers = (
{
layerId = "394C4E3B-EB1E-48D6-87F8-186C851DDDB0";
paths = (
{
closed = 1;
nodes = (
"314 586 LINE",
"214 586 LINE",
"214 382 LINE",
"20 382 LINE",
"20 290 LINE",
"214 290 LINE",
"214 84 LINE",
"314 84 LINE",
"314 290 LINE",
"508 290 LINE",
"508 382 LINE",
"314 382 LINE"
);
}
);
width = 529;
}
);
note = plus;
unicode = 002B;
},
{
glyphname = comma;
lastChange = "2017-01-26 15:47:28 +0000";
layers = (
{
layerId = "394C4E3B-EB1E-48D6-87F8-186C851DDDB0";
paths = (
{
closed = 1;
nodes = (
"26 65 OFFCURVE",
"27 55 OFFCURVE",
"31 46 CURVE SMOOTH",
"35 37 OFFCURVE",
"39 30 OFFCURVE",
"45 23 CURVE SMOOTH",
"51 16 OFFCURVE",
"59 11 OFFCURVE",
"68 7 CURVE SMOOTH",
"77 3 OFFCURVE",
"86 2 OFFCURVE",
"96 2 CURVE",
"94 -8 OFFCURVE",
"90 -18 OFFCURVE",
"86 -27 CURVE SMOOTH",
"82 -36 OFFCURVE",
"77 -43 OFFCURVE",
"72 -51 CURVE SMOOTH",
"67 -59 OFFCURVE",
"60 -65 OFFCURVE",
"55 -71 CURVE SMOOTH",
"50 -77 OFFCURVE",
"46 -82 OFFCURVE",
"42 -86 CURVE SMOOTH",
"39 -89 OFFCURVE",
"37 -92 OFFCURVE",
"35 -95 CURVE SMOOTH",
"33 -98 OFFCURVE",
"32 -101 OFFCURVE",
"32 -104 CURVE SMOOTH",
"32 -111 OFFCURVE",
"35 -117 OFFCURVE",
"41 -122 CURVE",
"63 -142 LINE",
"81 -128 OFFCURVE",
"96 -113 OFFCURVE",
"110 -96 CURVE SMOOTH",
"124 -79 OFFCURVE",
"135 -62 OFFCURVE",
"144 -44 CURVE SMOOTH",
"153 -26 OFFCURVE",
"161 -10 OFFCURVE",
"166 8 CURVE SMOOTH",
"171 26 OFFCURVE",
"173 43 OFFCURVE",
"173 59 CURVE SMOOTH",
"173 70 OFFCURVE",
"171 81 OFFCURVE",
"168 91 CURVE SMOOTH",
"165 101 OFFCURVE",
"160 110 OFFCURVE",
"154 118 CURVE SMOOTH",
"148 126 OFFCURVE",
"140 133 OFFCURVE",
"131 137 CURVE SMOOTH",
"122 141 OFFCURVE",
"111 143 OFFCURVE",
"98 143 CURVE SMOOTH",
"87 143 OFFCURVE",
"77 142 OFFCURVE",
"68 138 CURVE SMOOTH",
"59 134 OFFCURVE",
"51 130 OFFCURVE",
"45 124 CURVE SMOOTH",
"39 118 OFFCURVE",
"35 110 OFFCURVE",
"31 102 CURVE SMOOTH",
"27 94 OFFCURVE",
"26 85 OFFCURVE",
"26 76 CURVE SMOOTH"
);
}
);
width = 198;
}
);
leftKerningGroup = comma;
note = comma;
rightKerningGroup = comma;
unicode = 002C;
},
{
glyphname = hyphen;
lastChange = "2017-01-26 15:47:28 +0000";
layers = (
{
layerId = "394C4E3B-EB1E-48D6-87F8-186C851DDDB0";
paths = (
{
closed = 1;
nodes = (
"28 354 LINE",
"28 250 LINE",
"288 250 LINE",
"288 354 LINE"
);
}
);
width = 316;
}
);
leftKerningGroup = emdash;
note = hyphen;
rightKerningGroup = emdash;
unicode = 002D;
},
{
glyphname = period;
lastChange = "2017-01-26 15:47:28 +0000";
layers = (
{
layerId = "394C4E3B-EB1E-48D6-87F8-186C851DDDB0";
paths = (
{
closed = 1;
nodes = (
"26 57 OFFCURVE",
"28 47 OFFCURVE",
"32 38 CURVE SMOOTH",
"36 29 OFFCURVE",
"41 22 OFFCURVE",
"48 15 CURVE SMOOTH",
"55 8 OFFCURVE",
"64 3 OFFCURVE",
"73 -1 CURVE SMOOTH",
"82 -5 OFFCURVE",
"92 -7 OFFCURVE",
"103 -7 CURVE SMOOTH",
"113 -7 OFFCURVE",
"123 -5 OFFCURVE",
"132 -1 CURVE SMOOTH",
"141 3 OFFCURVE",
"149 8 OFFCURVE",
"156 15 CURVE SMOOTH",
"163 22 OFFCURVE",
"168 29 OFFCURVE",
"172 38 CURVE SMOOTH",
"176 47 OFFCURVE",
"178 57 OFFCURVE",
"178 68 CURVE SMOOTH",
"178 78 OFFCURVE",
"176 89 OFFCURVE",
"172 98 CURVE SMOOTH",
"168 107 OFFCURVE",
"163 115 OFFCURVE",
"156 122 CURVE SMOOTH",
"149 129 OFFCURVE",
"141 134 OFFCURVE",
"132 138 CURVE SMOOTH",
"123 142 OFFCURVE",
"112 144 OFFCURVE",
"102 144 CURVE SMOOTH",
"91 144 OFFCURVE",
"81 142 OFFCURVE",
"72 138 CURVE SMOOTH",
"63 134 OFFCURVE",
"55 129 OFFCURVE",
"48 122 CURVE SMOOTH",
"41 115 OFFCURVE",
"36 107 OFFCURVE",
"32 98 CURVE SMOOTH",
"28 89 OFFCURVE",
"26 78 OFFCURVE",
"26 68 CURVE SMOOTH"
);
}
);
width = 203;
}
);
leftKerningGroup = comma;
note = period;
rightKerningGroup = comma;
unicode = 002E;
},
{
glyphname = slash;
layers = (
{
layerId = "394C4E3B-EB1E-48D6-87F8-186C851DDDB0";
paths = (
{
closed = 1;
nodes = (
"422 743 LINE",
"370 743 LINE SMOOTH",
"355 743 OFFCURVE",
"342 740 OFFCURVE",
"331 732 CURVE SMOOTH",
"320 724 OFFCURVE",
"312 714 OFFCURVE",
"306 700 CURVE SMOOTH",
"14 -48 LINE",
"66 -48 LINE SMOOTH",
"72 -48 OFFCURVE",
"79 -46 OFFCURVE",
"86 -44 CURVE SMOOTH",
"93 -42 OFFCURVE",
"99 -40 OFFCURVE",
"105 -36 CURVE SMOOTH",
"111 -32 OFFCURVE",
"116 -28 OFFCURVE",
"121 -22 CURVE SMOOTH",
"126 -16 OFFCURVE",
"129 -10 OFFCURVE",
"132 -2 CURVE SMOOTH"
);
}
);
width = 436;
}
);
note = slash;
unicode = 002F;
},
{
glyphname = zero;
layers = (
{
layerId = "394C4E3B-EB1E-48D6-87F8-186C851DDDB0";
paths = (
{
closed = 1;
nodes = (
"550 425 OFFCURVE",
"544 480 OFFCURVE",
"530 526 CURVE SMOOTH",
"516 572 OFFCURVE",
"498 611 OFFCURVE",
"474 641 CURVE SMOOTH",
"450 671 OFFCURVE",
"421 694 OFFCURVE",
"389 709 CURVE SMOOTH",
"357 724 OFFCURVE",
"322 731 OFFCURVE",
"284 731 CURVE SMOOTH",
"246 731 OFFCURVE",
"211 724 OFFCURVE",
"179 709 CURVE SMOOTH",
"147 694 OFFCURVE",
"120 671 OFFCURVE",
"96 641 CURVE SMOOTH",
"72 611 OFFCURVE",
"53 572 OFFCURVE",
"40 526 CURVE SMOOTH",
"27 480 OFFCURVE",
"20 425 OFFCURVE",
"20 362 CURVE SMOOTH",
"20 299 OFFCURVE",
"27 243 OFFCURVE",
"40 197 CURVE SMOOTH",
"53 151 OFFCURVE",
"72 112 OFFCURVE",
"96 82 CURVE SMOOTH",
"120 52 OFFCURVE",
"147 29 OFFCURVE",
"179 14 CURVE SMOOTH",
"211 -1 OFFCURVE",
"246 -8 OFFCURVE",
"284 -8 CURVE SMOOTH",
"322 -8 OFFCURVE",
"357 -1 OFFCURVE",
"389 14 CURVE SMOOTH",
"421 29 OFFCURVE",
"450 52 OFFCURVE",
"474 82 CURVE SMOOTH",
"498 112 OFFCURVE",
"516 151 OFFCURVE",
"530 197 CURVE SMOOTH",
"544 243 OFFCURVE",
"550 299 OFFCURVE",
"550 362 CURVE SMOOTH"
);
},
{
closed = 1;
nodes = (
"422 310 OFFCURVE",
"419 266 OFFCURVE",
"411 232 CURVE SMOOTH",
"403 198 OFFCURVE",
"393 169 OFFCURVE",
"380 149 CURVE SMOOTH",
"367 129 OFFCURVE",
"353 115 OFFCURVE",
"336 107 CURVE SMOOTH",
"319 99 OFFCURVE",
"302 94 OFFCURVE",
"284 94 CURVE SMOOTH",
"266 94 OFFCURVE",
"249 99 OFFCURVE",
"233 107 CURVE SMOOTH",
"217 115 OFFCURVE",
"202 130 OFFCURVE",
"189 150 CURVE SMOOTH",
"176 170 OFFCURVE",
"167 198 OFFCURVE",
"159 232 CURVE SMOOTH",
"151 266 OFFCURVE",
"147 310 OFFCURVE",
"147 362 CURVE SMOOTH",
"147 414 OFFCURVE",
"151 458 OFFCURVE",
"159 492 CURVE SMOOTH",
"167 526 OFFCURVE",
"176 554 OFFCURVE",
"189 574 CURVE SMOOTH",
"202 594 OFFCURVE",
"217 608 OFFCURVE",
"233 616 CURVE SMOOTH",
"249 624 OFFCURVE",
"266 628 OFFCURVE",
"284 628 CURVE SMOOTH",
"302 628 OFFCURVE",
"319 624 OFFCURVE",
"336 616 CURVE SMOOTH",
"353 608 OFFCURVE",
"367 594 OFFCURVE",
"380 574 CURVE SMOOTH",
"393 554 OFFCURVE",
"403 526 OFFCURVE",
"411 492 CURVE SMOOTH",
"419 458 OFFCURVE",
"422 414 OFFCURVE",
"422 362 CURVE SMOOTH"
);
}
);
width = 570;
}
);
note = zero;
unicode = 0030;
},
{
glyphname = one;
layers = (
{
layerId = "394C4E3B-EB1E-48D6-87F8-186C851DDDB0";
paths = (
{
closed = 1;
nodes = (
"441 84 OFFCURVE",
"404 88 OFFCURVE",
"337 93 CURVE",
"337 724 LINE",
"235 724 LINE",
"15 536 LINE",
"54 483 LINE SMOOTH",
"57 479 OFFCURVE",
"60 476 OFFCURVE",
"66 473 CURVE",
"71 470 OFFCURVE",
"77 469 OFFCURVE",
"84 469 CURVE SMOOTH",
"88 469 OFFCURVE",
"94 470 OFFCURVE",
"98 471 CURVE SMOOTH",
"102 472 OFFCURVE",
"107 475 OFFCURVE",
"111 479 CURVE",
"215 566 LINE",
"214 548 OFFCURVE",
"213 530 OFFCURVE",
"213 514 CURVE SMOOTH",
"213 94 LINE",
"136 88 OFFCURVE",
"94 84 OFFCURVE",
"87 83 CURVE",
"74 80 OFFCURVE",
"67 72 OFFCURVE",
"67 58 CURVE SMOOTH",
"67 0 LINE",
"263 0 LINE",
"271 0 LINE",
"467 0 LINE",
"467 58 LINE SMOOTH",
"467 72 OFFCURVE",
"460 80 OFFCURVE",
"447 83 CURVE"
);
}
);
width = 483;
}
);
note = one;
unicode = 0031;
},
{
glyphname = two;
layers = (
{
layerId = "394C4E3B-EB1E-48D6-87F8-186C851DDDB0";
paths = (
{
closed = 1;
nodes = (
"524 108 LINE",
"524 178 LINE",
"471 178 LINE SMOOTH",
"458 178 OFFCURVE",
"451 172 OFFCURVE",
"448 160 CURVE SMOOTH",
"447 156 OFFCURVE",
"446 141 OFFCURVE",
"444 115 CURVE",
"284 115 LINE SMOOTH",
"270 115 OFFCURVE",
"255 113 OFFCURVE",
"240 111 CURVE",
"225 108 OFFCURVE",
"209 105 OFFCURVE",
"193 100 CURVE",
"356 267 LINE SMOOTH",
"375 287 OFFCURVE",
"394 307 OFFCURVE",
"412 326 CURVE SMOOTH",
"430 345 OFFCURVE",
"445 365 OFFCURVE",
"458 386 CURVE SMOOTH",
"471 407 OFFCURVE",
"481 428 OFFCURVE",
"489 451 CURVE SMOOTH",
"497 474 OFFCURVE",
"501 498 OFFCURVE",
"501 525 CURVE SMOOTH",
"501 556 OFFCURVE",
"495 584 OFFCURVE",
"484 609 CURVE SMOOTH",
"473 634 OFFCURVE",
"458 656 OFFCURVE",
"438 674 CURVE SMOOTH",
"418 692 OFFCURVE",
"396 706 OFFCURVE",
"368 716 CURVE SMOOTH",
"340 726 OFFCURVE",
"309 731 OFFCURVE",
"276 731 CURVE SMOOTH",
"244 731 OFFCURVE",
"214 727 OFFCURVE",
"186 718 CURVE SMOOTH",
"158 709 OFFCURVE",
"133 696 OFFCURVE",
"112 678 CURVE SMOOTH",
"90 660 OFFCURVE",
"73 639 OFFCURVE",
"59 613 CURVE SMOOTH",
"45 587 OFFCURVE",
"35 556 OFFCURVE",
"30 521 CURVE",
"95 510 LINE SMOOTH",
"101 509 OFFCURVE",
"106 508 OFFCURVE",
"111 508 CURVE SMOOTH",
"122 508 OFFCURVE",
"132 511 OFFCURVE",
"139 517 CURVE",
"146 522 OFFCURVE",
"152 531 OFFCURVE",
"156 544 CURVE SMOOTH",
"164 569 OFFCURVE",
"177 589 OFFCURVE",
"196 604 CURVE SMOOTH",
"215 619 OFFCURVE",
"239 627 OFFCURVE",
"269 627 CURVE SMOOTH",
"285 627 OFFCURVE",
"299 624 OFFCURVE",
"312 620 CURVE SMOOTH",
"325 616 OFFCURVE",
"336 609 OFFCURVE",
"345 600 CURVE SMOOTH",
"354 591 OFFCURVE",
"362 580 OFFCURVE",
"367 567 CURVE SMOOTH",
"372 554 OFFCURVE",
"374 538 OFFCURVE",
"374 521 CURVE SMOOTH",
"374 502 OFFCURVE",
"372 484 OFFCURVE",
"367 467 CURVE SMOOTH",
"362 450 OFFCURVE",
"354 433 OFFCURVE",
"344 416 CURVE SMOOTH",
"334 399 OFFCURVE",
"322 382 OFFCURVE",
"308 365 CURVE SMOOTH",
"294 348 OFFCURVE",
"276 331 OFFCURVE",
"258 312 CURVE SMOOTH",
"39 92 LINE SMOOTH",
"31 84 OFFCURVE",
"26 76 OFFCURVE",
"22 67 CURVE",
"19 58 OFFCURVE",
"17 49 OFFCURVE",
"17 41 CURVE SMOOTH",
"17 0 LINE",
"484 0 LINE",
"513 0 LINE",
"524 0 LINE"
);
}
);
width = 542;
}
);
note = two;
unicode = 0032;
},
{
glyphname = three;
layers = (
{
layerId = "394C4E3B-EB1E-48D6-87F8-186C851DDDB0";
paths = (
{
closed = 1;
nodes = (
"251 731 OFFCURVE",
"221 727 OFFCURVE",
"193 718 CURVE SMOOTH",
"165 709 OFFCURVE",
"141 696 OFFCURVE",
"119 678 CURVE SMOOTH",
"97 660 OFFCURVE",
"80 639 OFFCURVE",
"66 613 CURVE SMOOTH",
"52 587 OFFCURVE",
"41 557 OFFCURVE",
"36 522 CURVE",
"102 510 LINE SMOOTH",
"108 509 OFFCURVE",
"113 508 OFFCURVE",
"118 508 CURVE SMOOTH",
"129 508 OFFCURVE",
"139 511 OFFCURVE",
"146 517 CURVE SMOOTH",
"153 523 OFFCURVE",
"158 531 OFFCURVE",
"162 544 CURVE SMOOTH",
"170 568 OFFCURVE",
"184 588 OFFCURVE",
"203 604 CURVE SMOOTH",
"222 620 OFFCURVE",
"247 627 OFFCURVE",
"276 627 CURVE SMOOTH",
"308 627 OFFCURVE",
"333 619 OFFCURVE",
"352 601 CURVE SMOOTH",
"371 583 OFFCURVE",
"380 557 OFFCURVE",
"380 523 CURVE SMOOTH",
"380 507 OFFCURVE",
"379 492 OFFCURVE",
"374 479 CURVE SMOOTH",
"369 466 OFFCURVE",
"361 455 OFFCURVE",
"349 445 CURVE",
"337 436 OFFCURVE",
"321 427 OFFCURVE",
"301 422 CURVE SMOOTH",
"281 417 OFFCURVE",
"256 414 OFFCURVE",
"226 414 CURVE",
"226 326 LINE",
"263 326 OFFCURVE",
"291 324 OFFCURVE",
"313 318 CURVE SMOOTH",
"335 312 OFFCURVE",
"352 304 OFFCURVE",
"364 294 CURVE SMOOTH",
"376 284 OFFCURVE",
"382 272 OFFCURVE",
"386 258 CURVE SMOOTH",
"390 244 OFFCURVE",
"392 227 OFFCURVE",
"392 210 CURVE SMOOTH",
"392 196 OFFCURVE",
"389 184 OFFCURVE",
"384 170 CURVE SMOOTH",
"379 156 OFFCURVE",
"371 144 OFFCURVE",
"361 133 CURVE SMOOTH",
"351 122 OFFCURVE",
"338 113 OFFCURVE",
"322 106 CURVE SMOOTH",
"306 99 OFFCURVE",
"287 96 OFFCURVE",
"266 96 CURVE SMOOTH",
"247 96 OFFCURVE",
"232 98 OFFCURVE",
"218 104 CURVE SMOOTH",
"204 110 OFFCURVE",
"193 117 OFFCURVE",
"183 126 CURVE SMOOTH",
"173 135 OFFCURVE",
"164 145 OFFCURVE",
"157 156 CURVE SMOOTH",
"150 167 OFFCURVE",
"144 178 OFFCURVE",
"138 190 CURVE",
"134 197 OFFCURVE",
"129 202 OFFCURVE",
"122 206 CURVE SMOOTH",
"115 210 OFFCURVE",
"107 212 OFFCURVE",
"98 212 CURVE SMOOTH",
"88 212 OFFCURVE",
"79 210 OFFCURVE",
"70 206 CURVE SMOOTH",
"16 184 LINE",
"26 153 OFFCURVE",
"38 126 OFFCURVE",
"52 102 CURVE SMOOTH",
"66 78 OFFCURVE",
"82 58 OFFCURVE",
"102 42 CURVE SMOOTH",
"122 26 OFFCURVE",
"146 12 OFFCURVE",
"173 4 CURVE SMOOTH",
"200 -4 OFFCURVE",
"232 -8 OFFCURVE",
"268 -8 CURVE SMOOTH",
"301 -8 OFFCURVE",
"333 -4 OFFCURVE",
"363 6 CURVE SMOOTH",
"393 16 OFFCURVE",
"419 30 OFFCURVE",
"442 49 CURVE SMOOTH",
"465 68 OFFCURVE",
"483 91 OFFCURVE",
"496 119 CURVE SMOOTH",
"509 147 OFFCURVE",
"516 178 OFFCURVE",
"516 214 CURVE SMOOTH",
"516 256 OFFCURVE",
"505 292 OFFCURVE",
"484 320 CURVE SMOOTH",
"463 348 OFFCURVE",
"429 368 OFFCURVE",
"386 382 CURVE",
"404 388 OFFCURVE",
"421 396 OFFCURVE",
"435 405 CURVE SMOOTH",
"449 414 OFFCURVE",
"461 425 OFFCURVE",
"471 438 CURVE SMOOTH",
"481 451 OFFCURVE",
"488 466 OFFCURVE",
"493 484 CURVE SMOOTH",
"498 502 OFFCURVE",
"501 521 OFFCURVE",
"501 544 CURVE SMOOTH",
"501 570 OFFCURVE",
"496 595 OFFCURVE",
"486 618 CURVE SMOOTH",
"476 641 OFFCURVE",
"461 660 OFFCURVE",
"442 677 CURVE SMOOTH",
"423 694 OFFCURVE",
"400 707 OFFCURVE",
"373 717 CURVE SMOOTH",
"346 727 OFFCURVE",
"316 731 OFFCURVE",
"283 731 CURVE SMOOTH"
);
}
);
width = 533;
}
);
note = three;
unicode = 0033;
},
{
glyphname = four;
layers = (
{
layerId = "394C4E3B-EB1E-48D6-87F8-186C851DDDB0";
paths = (
{
closed = 1;
nodes = (
"476 272 LINE",
"476 724 LINE",
"359 724 LINE",
"16 266 LINE",
"29 204 LINE",
"31 196 OFFCURVE",
"35 189 OFFCURVE",
"41 184 CURVE SMOOTH",
"47 179 OFFCURVE",
"55 176 OFFCURVE",
"63 176 CURVE SMOOTH",
"368 176 LINE",
"368 0 LINE",
"476 0 LINE",
"476 176 LINE",
"542 176 LINE SMOOTH",
"550 176 OFFCURVE",
"556 179 OFFCURVE",
"560 184 CURVE SMOOTH",
"564 189 OFFCURVE",
"567 194 OFFCURVE",
"567 201 CURVE SMOOTH",
"567 272 LINE"
);
},
{
closed = 1;
nodes = (
"368 272 LINE",
"148 272 LINE",
"372 582 LINE",
"370 569 OFFCURVE",
"370 556 OFFCURVE",
"369 544 CURVE SMOOTH",
"368 532 OFFCURVE",
"368 520 OFFCURVE",
"368 509 CURVE SMOOTH"
);
}
);
width = 584;
}
);
note = four;
unicode = 0034;
},
{
glyphname = five;
layers = (
{
layerId = "394C4E3B-EB1E-48D6-87F8-186C851DDDB0";
paths = (
{
closed = 1;
nodes = (
"472 723 LINE",
"115 723 LINE",
"55 372 LINE",
"132 350 LINE",
"167 363 OFFCURVE",
"202 369 OFFCURVE",
"237 369 CURVE SMOOTH",
"281 369 OFFCURVE",
"315 358 OFFCURVE",
"338 336 CURVE SMOOTH",
"361 314 OFFCURVE",
"372 283 OFFCURVE",
"372 244 CURVE SMOOTH",
"372 223 OFFCURVE",
"370 202 OFFCURVE",
"364 184 CURVE SMOOTH",
"358 166 OFFCURVE",
"350 150 OFFCURVE",
"338 137 CURVE SMOOTH",
"326 124 OFFCURVE",
"311 113 OFFCURVE",
"294 106 CURVE SMOOTH",
"277 99 OFFCURVE",
"257 96 OFFCURVE",
"234 96 CURVE SMOOTH",
"213 96 OFFCURVE",
"195 99 OFFCURVE",
"180 104 CURVE SMOOTH",
"165 109 OFFCURVE",
"151 115 OFFCURVE",
"140 121 CURVE SMOOTH",
"129 127 OFFCURVE",
"119 134 OFFCURVE",
"111 139 CURVE SMOOTH",
"103 144 OFFCURVE",
"94 147 OFFCURVE",
"86 147 CURVE SMOOTH",
"73 147 OFFCURVE",
"62 141 OFFCURVE",
"54 130 CURVE SMOOTH",
"16 77 LINE",
"28 66 OFFCURVE",
"41 55 OFFCURVE",
"56 45 CURVE SMOOTH",
"71 35 OFFCURVE",
"88 26 OFFCURVE",
"106 18 CURVE SMOOTH",
"124 10 OFFCURVE",
"143 4 OFFCURVE",
"163 -1 CURVE SMOOTH",
"183 -6 OFFCURVE",
"205 -8 OFFCURVE",
"228 -8 CURVE SMOOTH",
"267 -8 OFFCURVE",
"302 -1 OFFCURVE",
"335 11 CURVE SMOOTH",
"368 23 OFFCURVE",
"396 41 OFFCURVE",
"420 63 CURVE SMOOTH",
"444 85 OFFCURVE",
"462 112 OFFCURVE",
"476 144 CURVE SMOOTH",
"490 176 OFFCURVE",
"496 211 OFFCURVE",
"496 249 CURVE SMOOTH",
"496 280 OFFCURVE",
"492 309 OFFCURVE",
"482 336 CURVE SMOOTH",
"472 363 OFFCURVE",
"457 386 OFFCURVE",
"437 406 CURVE SMOOTH",
"417 426 OFFCURVE",
"393 442 OFFCURVE",
"364 453 CURVE SMOOTH",
"335 464 OFFCURVE",
"302 470 OFFCURVE",
"264 470 CURVE SMOOTH",
"237 470 OFFCURVE",
"207 467 OFFCURVE",
"174 460 CURVE",
"200 611 LINE",
"400 611 LINE SMOOTH",
"426 611 OFFCURVE",
"444 617 OFFCURVE",
"455 628 CURVE SMOOTH",
"466 639 OFFCURVE",
"472 652 OFFCURVE",
"472 670 CURVE SMOOTH"
);
}
);
width = 515;
}
);
note = five;
unicode = 0035;
},
{
glyphname = six;
layers = (
{
layerId = "394C4E3B-EB1E-48D6-87F8-186C851DDDB0";
paths = (
{
closed = 1;
nodes = (
"291 452 OFFCURVE",
"273 450 OFFCURVE",
"257 446 CURVE SMOOTH",
"241 442 OFFCURVE",
"226 436 OFFCURVE",
"212 429 CURVE",
"224 444 LINE SMOOTH",
"228 449 OFFCURVE",
"233 454 OFFCURVE",
"238 460 CURVE SMOOTH",
"452 723 LINE",
"342 723 LINE SMOOTH",
"327 723 OFFCURVE",
"314 720 OFFCURVE",
"302 714 CURVE SMOOTH",
"290 708 OFFCURVE",
"282 702 OFFCURVE",
"276 694 CURVE SMOOTH",
"104 462 LINE SMOOTH",
"75 423 OFFCURVE",
"53 387 OFFCURVE",
"39 351 CURVE SMOOTH",
"25 315 OFFCURVE",
"18 280 OFFCURVE",
"18 246 CURVE SMOOTH",
"18 208 OFFCURVE",
"24 173 OFFCURVE",
"36 142 CURVE SMOOTH",
"48 111 OFFCURVE",
"64 84 OFFCURVE",
"86 62 CURVE SMOOTH",
"108 40 OFFCURVE",
"133 22 OFFCURVE",
"164 10 CURVE SMOOTH",
"195 -2 OFFCURVE",
"229 -8 OFFCURVE",
"268 -8 CURVE SMOOTH",
"306 -8 OFFCURVE",
"340 -2 OFFCURVE",
"372 11 CURVE SMOOTH",
"404 24 OFFCURVE",
"431 41 OFFCURVE",
"453 63 CURVE SMOOTH",
"475 85 OFFCURVE",
"493 110 OFFCURVE",
"505 140 CURVE SMOOTH",
"517 170 OFFCURVE",
"524 201 OFFCURVE",
"524 235 CURVE SMOOTH",
"524 271 OFFCURVE",
"518 303 OFFCURVE",
"506 330 CURVE SMOOTH",
"494 357 OFFCURVE",
"478 379 OFFCURVE",
"458 397 CURVE SMOOTH",
"438 415 OFFCURVE",
"416 429 OFFCURVE",
"390 438 CURVE SMOOTH",
"364 447 OFFCURVE",
"337 452 OFFCURVE",
"310 452 CURVE SMOOTH"
);
},
{
closed = 1;
nodes = (
"137 246 OFFCURVE",
"140 263 OFFCURVE",
"146 279 CURVE SMOOTH",
"152 295 OFFCURVE",
"161 309 OFFCURVE",
"173 321 CURVE SMOOTH",
"185 333 OFFCURVE",
"198 342 OFFCURVE",
"214 349 CURVE SMOOTH",
"230 356 OFFCURVE",
"247 359 OFFCURVE",
"267 359 CURVE SMOOTH",
"287 359 OFFCURVE",
"305 356 OFFCURVE",
"321 350 CURVE SMOOTH",
"337 344 OFFCURVE",
"351 336 OFFCURVE",
"363 324 CURVE SMOOTH",
"375 312 OFFCURVE",
"384 298 OFFCURVE",
"390 282 CURVE SMOOTH",
"396 266 OFFCURVE",
"400 247 OFFCURVE",
"400 226 CURVE SMOOTH",
"400 207 OFFCURVE",
"397 189 OFFCURVE",
"390 173 CURVE SMOOTH",
"383 157 OFFCURVE",
"374 143 OFFCURVE",
"362 131 CURVE SMOOTH",
"350 119 OFFCURVE",
"337 110 OFFCURVE",
"320 103 CURVE SMOOTH",
"304 96 OFFCURVE",
"285 93 OFFCURVE",
"265 93 CURVE SMOOTH",
"244 93 OFFCURVE",
"226 97 OFFCURVE",
"210 103 CURVE SMOOTH",
"194 109 OFFCURVE",
"181 118 OFFCURVE",
"170 130 CURVE SMOOTH",
"159 142 OFFCURVE",
"151 156 OFFCURVE",
"145 172 CURVE SMOOTH",
"139 188 OFFCURVE",
"137 207 OFFCURVE",
"137 227 CURVE SMOOTH"
);
}
);
width = 541;
}
);
note = six;
unicode = 0036;
},
{
glyphname = seven;
layers = (
{
layerId = "394C4E3B-EB1E-48D6-87F8-186C851DDDB0";
paths = (
{
closed = 1;
nodes = (
"20 723 LINE",
"20 639 LINE",
"20 638 LINE",
"20 637 LINE",
"20 530 LINE",
"73 530 LINE SMOOTH",
"86 530 OFFCURVE",
"94 536 OFFCURVE",
"97 548 CURVE",
"99 558 OFFCURVE",
"100 579 OFFCURVE",
"103 611 CURVE",
"394 611 LINE",
"380 595 OFFCURVE",
"367 575 OFFCURVE",
"355 552 CURVE SMOOTH",
"75 0 LINE",
"165 0 LINE SMOOTH",
"183 0 OFFCURVE",
"197 4 OFFCURVE",
"207 12 CURVE SMOOTH",
"217 20 OFFCURVE",
"225 30 OFFCURVE",
"231 42 CURVE SMOOTH",
"504 606 LINE",
"507 613 OFFCURVE",
"512 621 OFFCURVE",
"515 631 CURVE SMOOTH",
"518 641 OFFCURVE",
"520 654 OFFCURVE",
"520 670 CURVE SMOOTH",
"520 723 LINE"
);
}
);
width = 538;
}
);
note = seven;
unicode = 0037;
},
{
glyphname = eight;
layers = (
{
layerId = "394C4E3B-EB1E-48D6-87F8-186C851DDDB0";
paths = (
{
closed = 1;
nodes = (
"305 -8 OFFCURVE",
"339 -3 OFFCURVE",
"370 7 CURVE SMOOTH",
"401 17 OFFCURVE",
"428 32 OFFCURVE",
"450 50 CURVE SMOOTH",
"472 68 OFFCURVE",
"489 90 OFFCURVE",
"501 116 CURVE SMOOTH",
"513 142 OFFCURVE",
"519 171 OFFCURVE",
"519 203 CURVE SMOOTH",
"519 246 OFFCURVE",
"509 281 OFFCURVE",
"488 311 CURVE SMOOTH",
"467 341 OFFCURVE",
"434 363 OFFCURVE",
"390 377 CURVE",
"425 392 OFFCURVE",
"450 413 OFFCURVE",
"468 440 CURVE SMOOTH",
"486 467 OFFCURVE",
"495 499 OFFCURVE",
"495 537 CURVE SMOOTH",
"495 564 OFFCURVE",
"489 590 OFFCURVE",
"478 614 CURVE SMOOTH",
"467 638 OFFCURVE",
"452 657 OFFCURVE",
"432 675 CURVE SMOOTH",
"412 693 OFFCURVE",
"388 706 OFFCURVE",
"360 716 CURVE SMOOTH",
"332 726 OFFCURVE",
"301 731 OFFCURVE",
"268 731 CURVE SMOOTH",
"235 731 OFFCURVE",
"204 726 OFFCURVE",
"176 716 CURVE SMOOTH",
"148 706 OFFCURVE",
"124 693 OFFCURVE",
"104 675 CURVE SMOOTH",
"84 657 OFFCURVE",
"69 638 OFFCURVE",
"58 614 CURVE SMOOTH",
"47 590 OFFCURVE",
"41 564 OFFCURVE",
"41 537 CURVE SMOOTH",
"41 499 OFFCURVE",
"49 467 OFFCURVE",
"67 440 CURVE SMOOTH",
"85 413 OFFCURVE",
"111 392 OFFCURVE",
"146 377 CURVE",
"102 363 OFFCURVE",
"69 341 OFFCURVE",
"48 311 CURVE SMOOTH",
"27 281 OFFCURVE",
"17 246 OFFCURVE",
"17 203 CURVE SMOOTH",
"17 171 OFFCURVE",
"23 142 OFFCURVE",
"35 116 CURVE SMOOTH",
"47 90 OFFCURVE",
"64 68 OFFCURVE",
"86 50 CURVE SMOOTH",
"108 32 OFFCURVE",
"135 17 OFFCURVE",
"166 7 CURVE SMOOTH",
"197 -3 OFFCURVE",
"231 -8 OFFCURVE",
"268 -8 CURVE SMOOTH"
);
},
{
closed = 1;
nodes = (
"248 88 OFFCURVE",
"229 91 OFFCURVE",
"214 97 CURVE SMOOTH",
"199 103 OFFCURVE",
"186 112 OFFCURVE",
"176 122 CURVE SMOOTH",
"166 132 OFFCURVE",
"157 144 OFFCURVE",
"152 158 CURVE SMOOTH",
"147 172 OFFCURVE",
"144 188 OFFCURVE",
"144 205 CURVE SMOOTH",
"144 245 OFFCURVE",
"155 275 OFFCURVE",
"177 295 CURVE SMOOTH",
"199 315 OFFCURVE",
"229 326 OFFCURVE",
"268 326 CURVE SMOOTH",
"307 326 OFFCURVE",
"337 315 OFFCURVE",
"359 295 CURVE SMOOTH",
"381 275 OFFCURVE",
"392 245 OFFCURVE",
"392 205 CURVE SMOOTH",
"392 188 OFFCURVE",
"389 172 OFFCURVE",
"384 158 CURVE SMOOTH",
"379 144 OFFCURVE",
"371 132 OFFCURVE",
"360 122 CURVE",
"350 112 OFFCURVE",
"337 103 OFFCURVE",
"322 97 CURVE SMOOTH",
"307 91 OFFCURVE",
"288 88 OFFCURVE",
"268 88 CURVE SMOOTH"
);
},
{
closed = 1;
nodes = (
"248 422 OFFCURVE",
"232 426 OFFCURVE",
"218 432 CURVE SMOOTH",
"204 438 OFFCURVE",
"193 447 OFFCURVE",
"185 457 CURVE SMOOTH",
"177 467 OFFCURVE",
"171 479 OFFCURVE",
"167 493 CURVE SMOOTH",
"163 507 OFFCURVE",
"162 521 OFFCURVE",
"162 535 CURVE SMOOTH",
"162 549 OFFCURVE",
"164 562 OFFCURVE",
"168 574 CURVE SMOOTH",
"172 586 OFFCURVE",
"178 597 OFFCURVE",
"187 607 CURVE SMOOTH",
"196 617 OFFCURVE",
"208 624 OFFCURVE",
"221 630 CURVE SMOOTH",
"234 636 OFFCURVE",
"250 638 OFFCURVE",
"268 638 CURVE SMOOTH",
"286 638 OFFCURVE",
"303 636 OFFCURVE",
"316 630 CURVE SMOOTH",
"329 624 OFFCURVE",
"340 617 OFFCURVE",
"349 607 CURVE SMOOTH",
"358 597 OFFCURVE",
"364 586 OFFCURVE",
"368 574 CURVE SMOOTH",
"372 562 OFFCURVE",
"375 549 OFFCURVE",
"375 535 CURVE SMOOTH",
"375 521 OFFCURVE",
"373 507 OFFCURVE",
"369 493 CURVE",
"366 479 OFFCURVE",
"360 467 OFFCURVE",
"352 457 CURVE SMOOTH",
"344 447 OFFCURVE",
"333 438 OFFCURVE",
"319 432 CURVE SMOOTH",
"305 426 OFFCURVE",
"288 422 OFFCURVE",
"268 422 CURVE SMOOTH"
);
}
);
width = 536;
}
);
note = eight;
unicode = 0038;
},
{
glyphname = nine;
layers = (
{
layerId = "394C4E3B-EB1E-48D6-87F8-186C851DDDB0";
paths = (
{
closed = 1;
nodes = (
"240 288 OFFCURVE",
"261 291 OFFCURVE",
"281 297 CURVE",
"301 302 OFFCURVE",
"319 310 OFFCURVE",
"336 321 CURVE",
"331 314 OFFCURVE",
"327 308 OFFCURVE",
"322 301 CURVE SMOOTH",
"317 294 OFFCURVE",
"312 287 OFFCURVE",
"306 280 CURVE SMOOTH",
"81 0 LINE",
"194 0 LINE SMOOTH",
"208 0 OFFCURVE",
"222 2 OFFCURVE",
"233 8 CURVE SMOOTH",
"244 14 OFFCURVE",
"252 20 OFFCURVE",
"258 28 CURVE SMOOTH",
"424 264 LINE SMOOTH",
"436 282 OFFCURVE",
"447 299 OFFCURVE",
"457 317 CURVE SMOOTH",
"467 335 OFFCURVE",
"476 353 OFFCURVE",
"483 371 CURVE SMOOTH",
"490 389 OFFCURVE",
"495 409 OFFCURVE",
"499 429 CURVE SMOOTH",
"503 449 OFFCURVE",
"505 471 OFFCURVE",
"505 493 CURVE SMOOTH",
"505 528 OFFCURVE",
"499 560 OFFCURVE",
"488 589 CURVE SMOOTH",
"477 618 OFFCURVE",
"461 643 OFFCURVE",
"440 664 CURVE SMOOTH",
"419 685 OFFCURVE",
"395 702 OFFCURVE",
"365 714 CURVE SMOOTH",
"335 726 OFFCURVE",
"302 731 OFFCURVE",
"265 731 CURVE SMOOTH",
"228 731 OFFCURVE",
"194 724 OFFCURVE",
"164 712 CURVE SMOOTH",
"134 700 OFFCURVE",
"108 683 OFFCURVE",
"86 662 CURVE SMOOTH",
"64 641 OFFCURVE",
"48 616 OFFCURVE",
"36 588 CURVE SMOOTH",
"24 560 OFFCURVE",
"18 528 OFFCURVE",
"18 496 CURVE SMOOTH",
"18 461 OFFCURVE",
"24 432 OFFCURVE",
"35 406 CURVE SMOOTH",
"46 380 OFFCURVE",
"61 359 OFFCURVE",
"80 341 CURVE SMOOTH",
"99 323 OFFCURVE",
"120 311 OFFCURVE",
"144 302 CURVE SMOOTH",
"168 293 OFFCURVE",
"193 288 OFFCURVE",
"218 288 CURVE SMOOTH"
);
},
{
closed = 1;
nodes = (
"386 488 OFFCURVE",
"384 471 OFFCURVE",
"378 456 CURVE SMOOTH",
"372 441 OFFCURVE",
"365 429 OFFCURVE",
"354 418 CURVE SMOOTH",
"343 407 OFFCURVE",
"331 398 OFFCURVE",
"315 392 CURVE SMOOTH",
"299 386 OFFCURVE",
"282 382 OFFCURVE",
"262 382 CURVE SMOOTH",
"224 382 OFFCURVE",
"194 393 OFFCURVE",
"173 414 CURVE SMOOTH",
"152 435 OFFCURVE",
"142 466 OFFCURVE",
"142 506 CURVE SMOOTH",
"142 524 OFFCURVE",
"144 541 OFFCURVE",
"150 556 CURVE SMOOTH",
"156 571 OFFCURVE",
"164 584 OFFCURVE",
"174 595 CURVE SMOOTH",
"184 606 OFFCURVE",
"197 615 OFFCURVE",
"212 621 CURVE SMOOTH",
"227 627 OFFCURVE",
"244 630 OFFCURVE",
"263 630 CURVE SMOOTH",
"281 630 OFFCURVE",
"298 628 OFFCURVE",
"313 622 CURVE SMOOTH",
"328 616 OFFCURVE",
"341 608 OFFCURVE",
"352 597 CURVE SMOOTH",
"363 586 OFFCURVE",
"372 574 OFFCURVE",
"378 558 CURVE SMOOTH",
"384 542 OFFCURVE",
"386 525 OFFCURVE",
"386 505 CURVE SMOOTH"
);
}
);
width = 523;
}
);
note = nine;
unicode = 0039;
},
{
glyphname = colon;
layers = (
{
layerId = "394C4E3B-EB1E-48D6-87F8-186C851DDDB0";
paths = (
{
closed = 1;
nodes = (
"26 57 OFFCURVE",
"28 47 OFFCURVE",
"32 38 CURVE SMOOTH",
"36 29 OFFCURVE",
"41 22 OFFCURVE",
"48 15 CURVE SMOOTH",
"55 8 OFFCURVE",
"63 3 OFFCURVE",
"72 -1 CURVE SMOOTH",
"81 -5 OFFCURVE",
"91 -7 OFFCURVE",
"102 -7 CURVE SMOOTH",
"112 -7 OFFCURVE",
"123 -5 OFFCURVE",
"132 -1 CURVE SMOOTH",
"141 3 OFFCURVE",
"149 8 OFFCURVE",
"156 15 CURVE SMOOTH",
"163 22 OFFCURVE",
"168 29 OFFCURVE",
"172 38 CURVE SMOOTH",
"176 47 OFFCURVE",
"178 57 OFFCURVE",
"178 68 CURVE SMOOTH",
"178 78 OFFCURVE",
"176 89 OFFCURVE",
"172 98 CURVE SMOOTH",
"168 107 OFFCURVE",
"163 115 OFFCURVE",
"156 122 CURVE SMOOTH",
"149 129 OFFCURVE",
"141 134 OFFCURVE",
"132 138 CURVE SMOOTH",
"123 142 OFFCURVE",
"112 144 OFFCURVE",
"102 144 CURVE SMOOTH",
"91 144 OFFCURVE",
"81 142 OFFCURVE",
"72 138 CURVE SMOOTH",
"63 134 OFFCURVE",
"55 129 OFFCURVE",
"48 122 CURVE SMOOTH",
"41 115 OFFCURVE",
"36 107 OFFCURVE",
"32 98 CURVE SMOOTH",
"28 89 OFFCURVE",
"26 78 OFFCURVE",
"26 68 CURVE SMOOTH"
);
},
{
closed = 1;
nodes = (
"26 413 OFFCURVE",
"28 404 OFFCURVE",
"32 395 CURVE SMOOTH",
"36 386 OFFCURVE",
"41 378 OFFCURVE",
"48 371 CURVE SMOOTH",
"55 364 OFFCURVE",
"63 359 OFFCURVE",
"72 355 CURVE SMOOTH",
"81 351 OFFCURVE",
"91 350 OFFCURVE",
"102 350 CURVE SMOOTH",
"112 350 OFFCURVE",
"123 351 OFFCURVE",
"132 355 CURVE SMOOTH",
"141 359 OFFCURVE",
"149 364 OFFCURVE",
"156 371 CURVE SMOOTH",
"163 378 OFFCURVE",
"168 386 OFFCURVE",
"172 395 CURVE SMOOTH",
"176 404 OFFCURVE",
"178 414 OFFCURVE",
"178 425 CURVE SMOOTH",
"178 435 OFFCURVE",
"176 445 OFFCURVE",
"172 454 CURVE SMOOTH",
"168 463 OFFCURVE",
"163 471 OFFCURVE",
"156 478 CURVE SMOOTH",
"149 485 OFFCURVE",
"141 490 OFFCURVE",
"132 494 CURVE SMOOTH",
"123 498 OFFCURVE",
"112 500 OFFCURVE",
"102 500 CURVE SMOOTH",
"91 500 OFFCURVE",
"81 498 OFFCURVE",
"72 494 CURVE SMOOTH",
"63 490 OFFCURVE",
"55 485 OFFCURVE",
"48 478 CURVE SMOOTH",
"41 471 OFFCURVE",
"36 463 OFFCURVE",
"32 454 CURVE SMOOTH",
"28 445 OFFCURVE",
"26 434 OFFCURVE",
"26 424 CURVE SMOOTH"
);
}
);
width = 199;
}
);
note = colon;
unicode = 003A;
},
{
glyphname = semicolon;
layers = (
{
layerId = "394C4E3B-EB1E-48D6-87F8-186C851DDDB0";
paths = (
{
closed = 1;
nodes = (
"26 65 OFFCURVE",
"27 55 OFFCURVE",
"31 46 CURVE SMOOTH",
"35 37 OFFCURVE",
"39 30 OFFCURVE",
"45 23 CURVE SMOOTH",
"51 16 OFFCURVE",
"59 11 OFFCURVE",
"68 7 CURVE SMOOTH",
"77 3 OFFCURVE",
"86 2 OFFCURVE",
"96 2 CURVE",
"94 -8 OFFCURVE",
"90 -18 OFFCURVE",
"86 -27 CURVE SMOOTH",
"82 -36 OFFCURVE",
"77 -43 OFFCURVE",
"72 -51 CURVE SMOOTH",
"67 -59 OFFCURVE",
"61 -65 OFFCURVE",
"56 -71 CURVE SMOOTH",
"51 -77 OFFCURVE",
"46 -82 OFFCURVE",
"42 -86 CURVE SMOOTH",
"39 -89 OFFCURVE",
"37 -92 OFFCURVE",
"35 -95 CURVE SMOOTH",
"33 -98 OFFCURVE",
"32 -101 OFFCURVE",
"32 -104 CURVE SMOOTH",
"32 -111 OFFCURVE",
"36 -117 OFFCURVE",
"42 -122 CURVE",
"63 -142 LINE",
"81 -128 OFFCURVE",
"96 -113 OFFCURVE",
"110 -96 CURVE SMOOTH",
"124 -79 OFFCURVE",
"135 -62 OFFCURVE",
"144 -44 CURVE SMOOTH",
"153 -26 OFFCURVE",
"161 -10 OFFCURVE",
"166 8 CURVE SMOOTH",
"171 26 OFFCURVE",
"173 43 OFFCURVE",
"173 59 CURVE SMOOTH",
"173 70 OFFCURVE",
"171 81 OFFCURVE",
"168 91 CURVE SMOOTH",
"165 101 OFFCURVE",
"160 110 OFFCURVE",
"154 118 CURVE SMOOTH",
"148 126 OFFCURVE",
"140 133 OFFCURVE",
"131 137 CURVE SMOOTH",
"122 141 OFFCURVE",
"111 143 OFFCURVE",
"98 143 CURVE SMOOTH",
"87 143 OFFCURVE",
"77 142 OFFCURVE",
"68 138 CURVE SMOOTH",
"59 134 OFFCURVE",
"52 130 OFFCURVE",
"46 124 CURVE SMOOTH",
"40 118 OFFCURVE",
"35 110 OFFCURVE",
"31 102 CURVE SMOOTH",
"27 94 OFFCURVE",
"26 85 OFFCURVE",
"26 76 CURVE SMOOTH"
);
},
{
closed = 1;
nodes = (
"22 413 OFFCURVE",
"24 404 OFFCURVE",
"28 395 CURVE SMOOTH",
"32 386 OFFCURVE",
"37 378 OFFCURVE",
"44 371 CURVE SMOOTH",
"51 364 OFFCURVE",
"59 359 OFFCURVE",
"68 355 CURVE SMOOTH",
"77 351 OFFCURVE",
"87 350 OFFCURVE",
"98 350 CURVE SMOOTH",
"108 350 OFFCURVE",
"119 351 OFFCURVE",
"128 355 CURVE SMOOTH",
"137 359 OFFCURVE",
"145 364 OFFCURVE",
"152 371 CURVE SMOOTH",
"159 378 OFFCURVE",
"164 386 OFFCURVE",
"168 395 CURVE SMOOTH",
"172 404 OFFCURVE",
"174 413 OFFCURVE",
"174 424 CURVE SMOOTH",
"174 434 OFFCURVE",
"172 445 OFFCURVE",
"168 454 CURVE SMOOTH",
"164 463 OFFCURVE",
"159 471 OFFCURVE",
"152 478 CURVE SMOOTH",
"145 485 OFFCURVE",
"137 490 OFFCURVE",
"128 494 CURVE SMOOTH",
"119 498 OFFCURVE",
"108 500 OFFCURVE",
"98 500 CURVE SMOOTH",
"87 500 OFFCURVE",
"77 498 OFFCURVE",
"68 494 CURVE SMOOTH",
"59 490 OFFCURVE",
"51 485 OFFCURVE",
"44 478 CURVE SMOOTH",
"37 471 OFFCURVE",
"32 463 OFFCURVE",
"28 454 CURVE SMOOTH",
"24 445 OFFCURVE",
"22 434 OFFCURVE",
"22 424 CURVE SMOOTH"
);
}
);
width = 195;
}
);
note = semicolon;
unicode = 003B;
},
{
glyphname = less;
layers = (
{
layerId = "394C4E3B-EB1E-48D6-87F8-186C851DDDB0";
paths = (
{
closed = 1;
nodes = (
"20 362 LINE",
"20 312 LINE",
"416 105 LINE",
"416 193 LINE SMOOTH",
"416 200 OFFCURVE",
"415 205 OFFCURVE",
"412 211 CURVE SMOOTH",
"409 217 OFFCURVE",
"403 222 OFFCURVE",
"395 226 CURVE SMOOTH",
"214 319 LINE SMOOTH",
"206 323 OFFCURVE",
"197 326 OFFCURVE",
"189 329 CURVE SMOOTH",
"181 332 OFFCURVE",
"172 335 OFFCURVE",
"162 337 CURVE",
"172 339 OFFCURVE",
"181 342 OFFCURVE",
"189 345 CURVE SMOOTH",
"197 348 OFFCURVE",
"206 351 OFFCURVE",
"214 355 CURVE SMOOTH",
"395 448 LINE SMOOTH",
"403 452 OFFCURVE",
"409 456 OFFCURVE",
"412 462 CURVE",
"415 467 OFFCURVE",
"416 474 OFFCURVE",
"416 481 CURVE SMOOTH",
"416 568 LINE"
);
}
);
width = 440;
}
);
note = less;
unicode = 003C;
},
{
glyphname = equal;
layers = (
{
layerId = "394C4E3B-EB1E-48D6-87F8-186C851DDDB0";
paths = (
{
closed = 1;
nodes = (
"29 294 LINE",
"29 202 LINE",
"472 202 LINE",
"472 294 LINE"
);
},
{
closed = 1;
nodes = (
"29 470 LINE",
"29 378 LINE",
"472 378 LINE",
"472 470 LINE"
);
}
);
width = 500;
}
);
note = equal;
unicode = 003D;
},
{
glyphname = greater;
layers = (
{
layerId = "394C4E3B-EB1E-48D6-87F8-186C851DDDB0";
paths = (
{
closed = 1;
nodes = (
"24 105 LINE",
"420 312 LINE",
"420 362 LINE",
"24 568 LINE",
"24 480 LINE SMOOTH",
"24 473 OFFCURVE",
"26 468 OFFCURVE",
"29 462 CURVE SMOOTH",
"32 456 OFFCURVE",
"38 452 OFFCURVE",
"46 448 CURVE SMOOTH",
"227 355 LINE SMOOTH",
"235 351 OFFCURVE",
"243 348 OFFCURVE",
"251 345 CURVE SMOOTH",
"259 342 OFFCURVE",
"268 339 OFFCURVE",
"278 337 CURVE",
"258 332 OFFCURVE",
"242 326 OFFCURVE",
"227 319 CURVE",
"46 226 LINE SMOOTH",
"38 222 OFFCURVE",
"32 217 OFFCURVE",
"29 211 CURVE SMOOTH",
"26 205 OFFCURVE",
"24 200 OFFCURVE",
"24 193 CURVE SMOOTH"
);
}
);
width = 441;
}
);
note = greater;
unicode = 003E;
},
{
glyphname = question;
layers = (
{
layerId = "394C4E3B-EB1E-48D6-87F8-186C851DDDB0";
paths = (
{
closed = 1;
nodes = (
"48 606 LINE",
"53 596 OFFCURVE",
"62 591 OFFCURVE",
"74 591 CURVE SMOOTH",
"79 591 OFFCURVE",
"86 593 OFFCURVE",
"92 597 CURVE SMOOTH",
"98 601 OFFCURVE",
"106 606 OFFCURVE",
"115 611 CURVE SMOOTH",
"124 616 OFFCURVE",
"135 621 OFFCURVE",
"148 625 CURVE SMOOTH",
"161 629 OFFCURVE",
"177 632 OFFCURVE",
"196 632 CURVE SMOOTH",
"209 632 OFFCURVE",
"222 630 OFFCURVE",
"233 626 CURVE SMOOTH",
"244 622 OFFCURVE",
"254 617 OFFCURVE",
"262 610 CURVE SMOOTH",
"270 603 OFFCURVE",
"276 596 OFFCURVE",
"280 586 CURVE SMOOTH",
"284 576 OFFCURVE",
"287 566 OFFCURVE",
"287 554 CURVE SMOOTH",
"287 536 OFFCURVE",
"283 519 OFFCURVE",
"276 506 CURVE SMOOTH",
"269 493 OFFCURVE",
"259 482 OFFCURVE",
"248 471 CURVE",
"237 461 OFFCURVE",
"226 450 OFFCURVE",
"213 441 CURVE SMOOTH",
"200 432 OFFCURVE",
"188 424 OFFCURVE",
"177 414 CURVE",
"166 405 OFFCURVE",
"157 394 OFFCURVE",
"150 383 CURVE SMOOTH",
"143 372 OFFCURVE",
"139 360 OFFCURVE",
"139 345 CURVE SMOOTH",
"139 341 LINE",
"139 336 LINE",
"148 255 LINE",
"232 255 LINE",
"244 328 LINE SMOOTH",
"246 339 OFFCURVE",
"251 348 OFFCURVE",
"259 357 CURVE",
"267 365 OFFCURVE",
"277 374 OFFCURVE",
"289 383 CURVE SMOOTH",
"301 392 OFFCURVE",
"313 401 OFFCURVE",
"326 411 CURVE SMOOTH",
"339 421 OFFCURVE",
"352 432 OFFCURVE",
"363 446 CURVE SMOOTH",
"374 460 OFFCURVE",
"383 476 OFFCURVE",
"390 495 CURVE SMOOTH",
"397 513 OFFCURVE",
"402 535 OFFCURVE",
"402 560 CURVE SMOOTH",
"402 586 OFFCURVE",
"397 610 OFFCURVE",
"388 631 CURVE SMOOTH",
"379 652 OFFCURVE",
"365 670 OFFCURVE",
"348 685 CURVE SMOOTH",
"331 700 OFFCURVE",
"311 711 OFFCURVE",
"287 719 CURVE SMOOTH",
"263 727 OFFCURVE",
"237 731 OFFCURVE",
"208 731 CURVE SMOOTH",
"187 731 OFFCURVE",
"166 729 OFFCURVE",
"148 725 CURVE SMOOTH",
"130 721 OFFCURVE",
"113 717 OFFCURVE",
"97 710 CURVE SMOOTH",
"81 703 OFFCURVE",
"67 695 OFFCURVE",
"53 686 CURVE SMOOTH",
"39 677 OFFCURVE",
"27 668 OFFCURVE",
"16 658 CURVE"
);
},
{
closed = 1;
nodes = (
"110 57 OFFCURVE",
"112 47 OFFCURVE",
"116 38 CURVE SMOOTH",
"120 29 OFFCURVE",
"125 21 OFFCURVE",
"132 14 CURVE SMOOTH",
"139 7 OFFCURVE",
"147 3 OFFCURVE",
"156 -1 CURVE SMOOTH",
"165 -5 OFFCURVE",
"175 -7 OFFCURVE",
"186 -7 CURVE SMOOTH",
"196 -7 OFFCURVE",
"207 -5 OFFCURVE",
"216 -1 CURVE SMOOTH",
"225 3 OFFCURVE",
"233 7 OFFCURVE",
"240 14 CURVE SMOOTH",
"247 21 OFFCURVE",
"252 29 OFFCURVE",
"256 38 CURVE SMOOTH",
"260 47 OFFCURVE",
"262 57 OFFCURVE",
"262 68 CURVE SMOOTH",
"262 78 OFFCURVE",
"260 89 OFFCURVE",
"256 98 CURVE SMOOTH",
"252 107 OFFCURVE",
"247 115 OFFCURVE",
"240 122 CURVE SMOOTH",
"233 129 OFFCURVE",
"225 134 OFFCURVE",
"216 138 CURVE SMOOTH",
"207 142 OFFCURVE",
"196 144 OFFCURVE",
"186 144 CURVE SMOOTH",
"175 144 OFFCURVE",
"165 142 OFFCURVE",
"156 138 CURVE SMOOTH",
"147 134 OFFCURVE",
"139 128 OFFCURVE",
"132 121 CURVE SMOOTH",
"125 114 OFFCURVE",
"120 106 OFFCURVE",
"116 97 CURVE SMOOTH",
"112 88 OFFCURVE",
"110 78 OFFCURVE",
"110 68 CURVE SMOOTH"
);
}
);
width = 419;
}
);
note = question;
unicode = 003F;
},
{
glyphname = at;
lastChange = "2017-01-26 15:47:28 +0000";
layers = (
{
layerId = "394C4E3B-EB1E-48D6-87F8-186C851DDDB0";
paths = (
{
closed = 1;
nodes = (
"598 92 OFFCURVE",
"625 99 OFFCURVE",
"651 112 CURVE SMOOTH",
"677 125 OFFCURVE",
"699 143 OFFCURVE",
"718 166 CURVE SMOOTH",
"737 189 OFFCURVE",
"752 216 OFFCURVE",
"762 247 CURVE SMOOTH",
"772 278 OFFCURVE",
"778 312 OFFCURVE",
"778 348 CURVE SMOOTH",
"778 401 OFFCURVE",
"768 449 OFFCURVE",
"748 491 CURVE SMOOTH",
"728 533 OFFCURVE",
"701 569 OFFCURVE",
"667 599 CURVE SMOOTH",
"633 629 OFFCURVE",
"596 651 OFFCURVE",
"552 667 CURVE SMOOTH",
"508 683 OFFCURVE",
"463 691 OFFCURVE",
"416 691 CURVE SMOOTH",
"379 691 OFFCURVE",
"342 686 OFFCURVE",
"308 676 CURVE SMOOTH",
"274 666 OFFCURVE",
"242 653 OFFCURVE",
"213 635 CURVE SMOOTH",
"184 617 OFFCURVE",
"157 597 OFFCURVE",
"133 572 CURVE SMOOTH",
"109 547 OFFCURVE",
"89 520 OFFCURVE",
"72 490 CURVE SMOOTH",
"55 460 OFFCURVE",
"41 430 OFFCURVE",
"32 396 CURVE SMOOTH",
"23 362 OFFCURVE",
"18 328 OFFCURVE",
"18 292 CURVE SMOOTH",
"18 228 OFFCURVE",
"29 171 OFFCURVE",
"50 120 CURVE SMOOTH",
"71 69 OFFCURVE",
"100 26 OFFCURVE",
"138 -10 CURVE SMOOTH",
"176 -46 OFFCURVE",
"221 -73 OFFCURVE",
"272 -92 CURVE SMOOTH",
"323 -111 OFFCURVE",
"379 -120 OFFCURVE",
"439 -120 CURVE SMOOTH",
"498 -120 OFFCURVE",
"552 -113 OFFCURVE",
"598 -99 CURVE SMOOTH",
"644 -85 OFFCURVE",
"684 -67 OFFCURVE",
"719 -44 CURVE",
"702 1 LINE SMOOTH",
"698 12 OFFCURVE",
"692 17 OFFCURVE",
"682 17 CURVE SMOOTH",
"677 17 OFFCURVE",
"671 16 OFFCURVE",
"664 12 CURVE SMOOTH",
"652 5 OFFCURVE",
"639 -2 OFFCURVE",
"624 -8 CURVE SMOOTH",
"609 -14 OFFCURVE",
"591 -20 OFFCURVE",
"572 -25 CURVE SMOOTH",
"553 -30 OFFCURVE",
"533 -33 OFFCURVE",
"511 -36 CURVE SMOOTH",
"489 -39 OFFCURVE",
"465 -40 OFFCURVE",
"439 -40 CURVE SMOOTH",
"392 -40 OFFCURVE",
"349 -34 OFFCURVE",
"309 -20 CURVE SMOOTH",
"269 -6 OFFCURVE",
"234 15 OFFCURVE",
"204 43 CURVE SMOOTH",
"174 71 OFFCURVE",
"151 105 OFFCURVE",
"134 147 CURVE SMOOTH",
"117 189 OFFCURVE",
"109 237 OFFCURVE",
"109 292 CURVE SMOOTH",
"109 337 OFFCURVE",
"116 379 OFFCURVE",
"132 418 CURVE SMOOTH",
"148 457 OFFCURVE",
"168 490 OFFCURVE",
"196 519 CURVE SMOOTH",
"224 548 OFFCURVE",
"256 571 OFFCURVE",
"294 587 CURVE SMOOTH",
"332 603 OFFCURVE",
"372 612 OFFCURVE",
"416 612 CURVE SMOOTH",
"456 612 OFFCURVE",
"492 606 OFFCURVE",
"526 595 CURVE SMOOTH",
"560 584 OFFCURVE",
"589 567 OFFCURVE",
"613 545 CURVE SMOOTH",
"637 523 OFFCURVE",
"655 495 OFFCURVE",
"669 462 CURVE SMOOTH",
"683 429 OFFCURVE",
"690 391 OFFCURVE",
"690 348 CURVE SMOOTH",
"690 322 OFFCURVE",
"687 298 OFFCURVE",
"681 276 CURVE SMOOTH",
"675 254 OFFCURVE",
"668 234 OFFCURVE",
"659 218 CURVE SMOOTH",
"650 202 OFFCURVE",
"638 190 OFFCURVE",
"626 181 CURVE SMOOTH",
"614 172 OFFCURVE",
"600 168 OFFCURVE",
"586 168 CURVE SMOOTH",
"579 168 OFFCURVE",
"573 168 OFFCURVE",
"567 170 CURVE SMOOTH",
"561 172 OFFCURVE",
"556 174 OFFCURVE",
"552 178 CURVE SMOOTH",
"548 182 OFFCURVE",
"545 187 OFFCURVE",
"542 194 CURVE",
"540 201 OFFCURVE",
"538 210 OFFCURVE",
"538 220 CURVE SMOOTH",
"538 234 OFFCURVE",
"541 252 OFFCURVE",
"546 273 CURVE SMOOTH",
"594 458 LINE",
"577 465 OFFCURVE",
"559 472 OFFCURVE",
"541 476 CURVE SMOOTH",
"523 480 OFFCURVE",
"501 482 OFFCURVE",
"475 482 CURVE SMOOTH",
"445 482 OFFCURVE",
"418 478 OFFCURVE",
"394 471 CURVE SMOOTH",
"370 464 OFFCURVE",
"348 455 OFFCURVE",
"328 443 CURVE SMOOTH",
"308 431 OFFCURVE",
"291 418 OFFCURVE",
"277 402 CURVE SMOOTH",
"263 386 OFFCURVE",
"251 369 OFFCURVE",
"241 351 CURVE SMOOTH",
"231 333 OFFCURVE",
"224 314 OFFCURVE",
"219 294 CURVE SMOOTH",
"214 274 OFFCURVE",
"212 256 OFFCURVE",
"212 237 CURVE SMOOTH",
"212 216 OFFCURVE",
"214 197 OFFCURVE",
"219 179 CURVE SMOOTH",
"224 161 OFFCURVE",
"233 147 OFFCURVE",
"243 134 CURVE SMOOTH",
"253 121 OFFCURVE",
"266 111 OFFCURVE",
"282 104 CURVE SMOOTH",
"298 97 OFFCURVE",
"316 93 OFFCURVE",
"337 93 CURVE SMOOTH",
"362 93 OFFCURVE",
"386 98 OFFCURVE",
"408 108 CURVE SMOOTH",
"430 118 OFFCURVE",
"450 136 OFFCURVE",
"470 160 CURVE",
"477 136 OFFCURVE",
"489 119 OFFCURVE",
"507 108 CURVE SMOOTH",
"525 97 OFFCURVE",
"545 92 OFFCURVE",
"568 92 CURVE SMOOTH"
);
},
{
closed = 1;
nodes = (
"343 172 OFFCURVE",
"330 178 OFFCURVE",
"321 190 CURVE SMOOTH",
"312 202 OFFCURVE",
"307 219 OFFCURVE",
"307 240 CURVE SMOOTH",
"307 261 OFFCURVE",
"311 281 OFFCURVE",
"319 301 CURVE SMOOTH",
"327 321 OFFCURVE",
"337 339 OFFCURVE",
"350 354 CURVE SMOOTH",
"363 369 OFFCURVE",
"379 382 OFFCURVE",
"397 391 CURVE SMOOTH",
"415 400 OFFCURVE",
"434 404 OFFCURVE",
"455 404 CURVE SMOOTH",
"466 404 OFFCURVE",
"477 403 OFFCURVE",
"488 401 CURVE",
"451 260 LINE SMOOTH",
"447 243 OFFCURVE",
"442 229 OFFCURVE",
"435 218 CURVE SMOOTH",
"428 207 OFFCURVE",
"421 197 OFFCURVE",
"413 190 CURVE SMOOTH",
"405 183 OFFCURVE",
"396 179 OFFCURVE",
"387 176 CURVE SMOOTH",
"378 173 OFFCURVE",
"370 172 OFFCURVE",
"361 172 CURVE SMOOTH"
);
}
);
width = 796;
}
);
leftKerningGroup = O;
note = at;
rightKerningGroup = O;
unicode = 0040;
},
{
glyphname = A;
lastChange = "2017-01-26 15:47:28 +0000";
layers = (
{
anchors = (
{
name = bottom;
position = "{406, 0}";
},
{
name = ogonek;
position = "{731, 10}";
},
{
name = top;
position = "{395, 723}";
}
);
layerId = "394C4E3B-EB1E-48D6-87F8-186C851DDDB0";
paths = (
{
closed = 1;
nodes = (
"719 100 LINE",
"474 723 LINE",
"336 723 LINE",
"92 100 LINE",
"37 77 LINE",
"24 71 OFFCURVE",
"17 63 OFFCURVE",
"17 51 CURVE SMOOTH",
"17 0 LINE",
"261 0 LINE",
"261 51 LINE SMOOTH",
"261 63 OFFCURVE",
"254 71 OFFCURVE",
"241 77 CURVE",
"221 85 LINE",
"261 194 LINE",
"549 194 LINE",
"589 85 LINE",
"569 77 LINE",
"556 71 OFFCURVE",
"549 63 OFFCURVE",
"549 51 CURVE SMOOTH",
"549 0 LINE",
"793 0 LINE",
"793 51 LINE SMOOTH",
"793 63 OFFCURVE",
"787 72 OFFCURVE",
"774 77 CURVE"
);
},
{
closed = 1;
nodes = (
"378 513 LINE SMOOTH",
"387 538 OFFCURVE",
"395 567 OFFCURVE",
"405 599 CURVE",
"414 567 OFFCURVE",
"423 538 OFFCURVE",
"432 514 CURVE SMOOTH",
"515 289 LINE",
"296 289 LINE"
);
}
);
width = 812;
}
);
leftKerningGroup = A;
note = A;
rightKerningGroup = A;
unicode = 0041;
},
{
glyphname = B;
lastChange = "2017-01-26 14:17:26 +0000";
layers = (
{
anchors = (
{
name = bottom;
position = "{323, 0}";
},
{
name = top;
position = "{323, 723}";
}
);
layerId = "394C4E3B-EB1E-48D6-87F8-186C851DDDB0";
paths = (
{
closed = 1;
nodes = (
"505 382 OFFCURVE",
"524 391 OFFCURVE",
"540 402 CURVE SMOOTH",
"556 413 OFFCURVE",
"569 424 OFFCURVE",
"580 438 CURVE SMOOTH",
"590 451 OFFCURVE",
"599 466 OFFCURVE",
"604 482 CURVE SMOOTH",
"609 498 OFFCURVE",
"611 514 OFFCURVE",
"611 531 CURVE SMOOTH",
"611 561 OFFCURVE",
"606 586 OFFCURVE",
"596 610 CURVE SMOOTH",
"586 634 OFFCURVE",
"571 654 OFFCURVE",
"549 671 CURVE SMOOTH",
"528 688 OFFCURVE",
"500 701 OFFCURVE",
"466 710 CURVE SMOOTH",
"432 719 OFFCURVE",
"392 723 OFFCURVE",
"345 723 CURVE SMOOTH",
"96 723 LINE",
"20 723 LINE",
"20 664 LINE SMOOTH",
"20 647 OFFCURVE",
"28 637 OFFCURVE",
"45 633 CURVE",
"46 633 OFFCURVE",
"48 632 OFFCURVE",
"51 632 CURVE SMOOTH",
"54 632 OFFCURVE",
"59 630 OFFCURVE",
"66 629 CURVE SMOOTH",
"73 628 OFFCURVE",
"84 626 OFFCURVE",
"96 624 CURVE",
"96 99 LINE",
"84 97 OFFCURVE",
"73 95 OFFCURVE",
"66 94 CURVE SMOOTH",
"59 93 OFFCURVE",
"54 91 OFFCURVE",
"51 91 CURVE SMOOTH",
"48 91 OFFCURVE",
"46 90 OFFCURVE",
"45 90 CURVE",
"28 86 OFFCURVE",
"20 76 OFFCURVE",
"20 59 CURVE SMOOTH",
"20 0 LINE",
"96 0 LINE",
"369 0 LINE SMOOTH",
"411 0 OFFCURVE",
"448 5 OFFCURVE",
"481 16 CURVE SMOOTH",
"514 27 OFFCURVE",
"541 41 OFFCURVE",
"563 60 CURVE SMOOTH",
"585 79 OFFCURVE",
"602 102 OFFCURVE",
"614 128 CURVE SMOOTH",
"626 154 OFFCURVE",
"632 182 OFFCURVE",
"632 213 CURVE SMOOTH",
"632 298 OFFCURVE",
"582 352 OFFCURVE",
"483 374 CURVE"
);
},
{
closed = 1;
nodes = (
"230 619 LINE",
"345 619 LINE SMOOTH",
"390 619 OFFCURVE",
"424 611 OFFCURVE",
"445 595 CURVE SMOOTH",
"466 579 OFFCURVE",
"477 553 OFFCURVE",
"477 515 CURVE SMOOTH",
"477 479 OFFCURVE",
"466 452 OFFCURVE",
"442 435 CURVE SMOOTH",
"418 418 OFFCURVE",
"384 410 OFFCURVE",
"338 410 CURVE SMOOTH",
"230 410 LINE"
);
},
{
closed = 1;
nodes = (
"488 160 OFFCURVE",
"480 148 OFFCURVE",
"470 138 CURVE SMOOTH",
"460 128 OFFCURVE",
"447 120 OFFCURVE",
"430 114 CURVE SMOOTH",
"413 108 OFFCURVE",
"392 105 OFFCURVE",
"367 105 CURVE SMOOTH",
"230 105 LINE",
"230 317 LINE",
"366 317 LINE SMOOTH",
"390 317 OFFCURVE",
"410 315 OFFCURVE",
"427 310 CURVE SMOOTH",
"444 305 OFFCURVE",
"457 299 OFFCURVE",
"468 290 CURVE SMOOTH",
"479 281 OFFCURVE",
"486 270 OFFCURVE",
"491 258 CURVE SMOOTH",
"496 245 OFFCURVE",
"499 232 OFFCURVE",
"499 216 CURVE SMOOTH",
"499 201 OFFCURVE",
"497 186 OFFCURVE",
"492 173 CURVE"
);
}
);
width = 645;
}
);
note = B;
unicode = 0042;
},
{
glyphname = C;
lastChange = "2017-01-26 15:47:28 +0000";
layers = (
{
anchors = (
{
name = bottom;
position = "{319, 0}";
},
{
name = top;
position = "{319, 723}";
}
);
layerId = "394C4E3B-EB1E-48D6-87F8-186C851DDDB0";
paths = (
{
closed = 1;
nodes = (
"612 495 LINE",
"612 679 LINE",
"521 714 OFFCURVE",
"445 731 OFFCURVE",
"385 731 CURVE SMOOTH",
"330 731 OFFCURVE",
"279 722 OFFCURVE",
"234 704 CURVE SMOOTH",
"188 686 OFFCURVE",
"150 660 OFFCURVE",
"117 627 CURVE SMOOTH",
"84 594 OFFCURVE",
"59 556 OFFCURVE",
"41 511 CURVE SMOOTH",
"23 466 OFFCURVE",
"14 415 OFFCURVE",
"14 361 CURVE SMOOTH",
"14 307 OFFCURVE",
"22 258 OFFCURVE",
"38 213 CURVE SMOOTH",
"54 168 OFFCURVE",
"78 129 OFFCURVE",
"108 96 CURVE SMOOTH",
"138 63 OFFCURVE",
"175 38 OFFCURVE",
"218 20 CURVE SMOOTH",
"261 2 OFFCURVE",
"308 -8 OFFCURVE",
"362 -8 CURVE SMOOTH",
"422 -8 OFFCURVE",
"474 2 OFFCURVE",
"517 21 CURVE SMOOTH",
"560 40 OFFCURVE",
"596 68 OFFCURVE",
"625 104 CURVE",
"572 162 LINE",
"567 168 OFFCURVE",
"560 170 OFFCURVE",
"553 170 CURVE SMOOTH",
"549 170 OFFCURVE",
"545 170 OFFCURVE",
"541 168 CURVE SMOOTH",
"537 166 OFFCURVE",
"533 164 OFFCURVE",
"530 161 CURVE",
"519 151 OFFCURVE",
"508 142 OFFCURVE",
"497 135 CURVE SMOOTH",
"486 128 OFFCURVE",
"474 122 OFFCURVE",
"462 118 CURVE SMOOTH",
"450 114 OFFCURVE",
"436 111 OFFCURVE",
"421 109 CURVE SMOOTH",
"406 107 OFFCURVE",
"389 106 OFFCURVE",
"371 106 CURVE SMOOTH",
"340 106 OFFCURVE",
"312 111 OFFCURVE",
"285 123 CURVE SMOOTH",
"258 135 OFFCURVE",
"235 151 OFFCURVE",
"215 173 CURVE SMOOTH",
"195 195 OFFCURVE",
"181 221 OFFCURVE",
"169 253 CURVE SMOOTH",
"157 285 OFFCURVE",
"151 320 OFFCURVE",
"151 361 CURVE SMOOTH",
"151 400 OFFCURVE",
"157 436 OFFCURVE",
"169 468 CURVE SMOOTH",
"181 500 OFFCURVE",
"197 526 OFFCURVE",
"217 548 CURVE SMOOTH",
"237 570 OFFCURVE",
"261 587 OFFCURVE",
"290 599 CURVE SMOOTH",
"319 611 OFFCURVE",
"350 616 OFFCURVE",
"384 616 CURVE SMOOTH",
"422 616 OFFCURVE",
"467 609 OFFCURVE",
"522 593 CURVE",
"526 549 OFFCURVE",
"529 522 OFFCURVE",
"531 513 CURVE SMOOTH",
"534 501 OFFCURVE",
"541 495 OFFCURVE",
"554 495 CURVE SMOOTH"
);
}
);
width = 637;
}
);
leftKerningGroup = C;
note = C;
unicode = 0043;
},
{
glyphname = D;
lastChange = "2017-01-26 14:17:26 +0000";
layers = (
{
anchors = (
{
name = bottom;
position = "{371, 0}";
},
{
name = center;
position = "{371, 362}";
},
{
name = top;
position = "{371, 723}";
}
);
layerId = "394C4E3B-EB1E-48D6-87F8-186C851DDDB0";
paths = (
{
closed = 1;
nodes = (
"682 552 OFFCURVE",
"658 590 OFFCURVE",
"626 622 CURVE SMOOTH",
"594 654 OFFCURVE",
"555 678 OFFCURVE",
"510 696 CURVE SMOOTH",
"465 714 OFFCURVE",
"416 723 OFFCURVE",
"361 723 CURVE SMOOTH",
"96 723 LINE",
"20 723 LINE",
"20 664 LINE SMOOTH",
"20 647 OFFCURVE",
"28 637 OFFCURVE",
"45 633 CURVE",
"46 633 OFFCURVE",
"48 632 OFFCURVE",
"51 632 CURVE SMOOTH",
"54 632 OFFCURVE",
"59 630 OFFCURVE",
"66 629 CURVE SMOOTH",
"73 628 OFFCURVE",
"84 626 OFFCURVE",
"96 624 CURVE",
"96 99 LINE",
"84 97 OFFCURVE",
"73 95 OFFCURVE",
"66 94 CURVE SMOOTH",
"59 93 OFFCURVE",
"54 91 OFFCURVE",
"51 91 CURVE SMOOTH",
"48 91 OFFCURVE",
"46 90 OFFCURVE",
"45 90 CURVE",
"28 86 OFFCURVE",
"20 76 OFFCURVE",
"20 59 CURVE SMOOTH",
"20 0 LINE",
"96 0 LINE",
"361 0 LINE SMOOTH",
"416 0 OFFCURVE",
"465 9 OFFCURVE",
"510 27 CURVE SMOOTH",
"555 45 OFFCURVE",
"594 69 OFFCURVE",
"626 101 CURVE SMOOTH",
"658 133 OFFCURVE",
"682 172 OFFCURVE",
"700 216 CURVE SMOOTH",
"718 260 OFFCURVE",
"727 309 OFFCURVE",
"727 362 CURVE SMOOTH",
"727 415 OFFCURVE",
"718 464 OFFCURVE",
"700 508 CURVE SMOOTH"
);
},
{
closed = 1;
nodes = (
"562 223 OFFCURVE",
"548 197 OFFCURVE",
"528 175 CURVE SMOOTH",
"508 153 OFFCURVE",
"484 137 OFFCURVE",
"456 125 CURVE SMOOTH",
"428 113 OFFCURVE",
"396 107 OFFCURVE",
"361 107 CURVE SMOOTH",
"231 107 LINE",
"231 616 LINE",
"361 616 LINE SMOOTH",
"396 616 OFFCURVE",
"428 610 OFFCURVE",
"456 598 CURVE SMOOTH",
"484 586 OFFCURVE",
"508 570 OFFCURVE",
"528 548 CURVE SMOOTH",
"548 526 OFFCURVE",
"562 499 OFFCURVE",
"573 468 CURVE SMOOTH",
"584 436 OFFCURVE",
"589 402 OFFCURVE",
"589 362 CURVE SMOOTH",
"589 322 OFFCURVE",
"584 287 OFFCURVE",
"573 255 CURVE SMOOTH"
);
}
);
width = 742;
}
);
note = D;
unicode = 0044;
},
{
glyphname = E;
lastChange = "2017-01-26 14:17:26 +0000";
layers = (
{
anchors = (
{
name = bottom;
position = "{287, 0}";
},
{
name = ogonek;
position = "{517, 10}";
},
{
name = top;
position = "{287, 723}";
},
{
name = topleft;
position = "{20, 723}";
}
);
layerId = "394C4E3B-EB1E-48D6-87F8-186C851DDDB0";
paths = (
{
closed = 1;
nodes = (
"96 723 LINE",
"20 723 LINE",
"20 664 LINE SMOOTH",
"20 647 OFFCURVE",
"28 637 OFFCURVE",
"45 633 CURVE",
"46 633 OFFCURVE",
"48 632 OFFCURVE",
"51 632 CURVE SMOOTH",
"54 632 OFFCURVE",
"59 630 OFFCURVE",
"66 629 CURVE SMOOTH",
"73 628 OFFCURVE",
"84 626 OFFCURVE",
"96 624 CURVE",
"96 99 LINE",
"84 97 OFFCURVE",
"73 95 OFFCURVE",
"66 94 CURVE SMOOTH",
"59 93 OFFCURVE",
"54 91 OFFCURVE",
"51 91 CURVE SMOOTH",
"48 91 OFFCURVE",
"46 90 OFFCURVE",
"45 90 CURVE",
"28 86 OFFCURVE",
"20 76 OFFCURVE",
"20 59 CURVE SMOOTH",
"20 0 LINE",
"96 0 LINE",
"552 0 LINE",
"552 70 LINE",
"552 108 LINE",
"552 191 LINE",
"547 191 LINE",
"535 191 LINE",
"494 191 LINE SMOOTH",
"481 191 OFFCURVE",
"474 184 OFFCURVE",
"471 172 CURVE",
"470 164 OFFCURVE",
"467 143 OFFCURVE",
"464 108 CURVE",
"231 108 LINE",
"231 312 LINE",
"476 312 LINE",
"476 416 LINE",
"231 416 LINE",
"231 616 LINE",
"464 616 LINE",
"467 581 OFFCURVE",
"470 560 OFFCURVE",
"471 552 CURVE",
"474 540 OFFCURVE",
"481 533 OFFCURVE",
"494 533 CURVE SMOOTH",
"535 533 LINE",
"547 533 LINE",
"552 533 LINE",
"552 616 LINE",
"552 653 LINE",
"552 723 LINE"
);
}
);
width = 574;
}
);
note = E;
unicode = 0045;
},
{
glyphname = F;
lastChange = "2017-01-26 14:17:26 +0000";
layers = (
{
anchors = (
{
name = bottom;
position = "{297, 0}";
},
{
name = top;
position = "{297, 723}";
}
);
layerId = "394C4E3B-EB1E-48D6-87F8-186C851DDDB0";
paths = (
{
closed = 1;
nodes = (
"552 723 LINE",
"529 723 LINE",
"96 723 LINE",
"20 723 LINE",
"20 664 LINE SMOOTH",
"20 647 OFFCURVE",
"28 637 OFFCURVE",
"45 633 CURVE",
"46 633 OFFCURVE",
"48 633 OFFCURVE",
"51 632 CURVE",
"54 632 OFFCURVE",
"59 630 OFFCURVE",
"66 629 CURVE SMOOTH",
"73 628 OFFCURVE",
"84 626 OFFCURVE",
"96 624 CURVE",
"96 99 LINE",
"84 97 OFFCURVE",
"73 95 OFFCURVE",
"66 94 CURVE SMOOTH",
"59 93 OFFCURVE",
"54 91 OFFCURVE",
"51 91 CURVE SMOOTH",
"48 91 OFFCURVE",
"46 90 OFFCURVE",
"45 90 CURVE",
"28 86 OFFCURVE",
"20 76 OFFCURVE",
"20 59 CURVE SMOOTH",
"20 0 LINE",
"96 0 LINE",
"231 0 LINE",
"307 0 LINE",
"307 59 LINE SMOOTH",
"307 76 OFFCURVE",
"299 86 OFFCURVE",
"282 90 CURVE",
"281 90 OFFCURVE",
"279 91 OFFCURVE",
"276 91 CURVE SMOOTH",
"273 91 OFFCURVE",
"268 93 OFFCURVE",
"261 94 CURVE SMOOTH",
"254 95 OFFCURVE",
"243 97 OFFCURVE",
"231 99 CURVE",
"231 295 LINE",
"484 295 LINE",
"484 402 LINE",
"231 402 LINE",
"231 616 LINE",
"489 616 LINE",
"492 581 OFFCURVE",
"495 560 OFFCURVE",
"496 552 CURVE",
"499 540 OFFCURVE",
"506 533 OFFCURVE",
"519 533 CURVE SMOOTH",
"561 533 LINE",
"573 533 LINE",
"577 533 LINE",
"577 630 LINE",
"577 653 LINE",
"577 723 LINE"
);
}
);
width = 593;
}
);
note = F;
unicode = 0046;
},
{
glyphname = G;
lastChange = "2017-01-26 15:47:28 +0000";
layers = (
{
anchors = (
{
name = bottom;
position = "{337, 0}";
},
{
name = top;
position = "{337, 723}";
}
);
layerId = "394C4E3B-EB1E-48D6-87F8-186C851DDDB0";
paths = (
{
closed = 1;
nodes = (
"413 362 LINE",
"413 286 LINE SMOOTH",
"413 279 OFFCURVE",
"415 274 OFFCURVE",
"420 269 CURVE SMOOTH",
"425 264 OFFCURVE",
"432 261 OFFCURVE",
"441 261 CURVE SMOOTH",
"531 261 LINE",
"531 130 LINE",
"511 120 OFFCURVE",
"489 112 OFFCURVE",
"467 107 CURVE SMOOTH",
"444 102 OFFCURVE",
"418 99 OFFCURVE",
"388 99 CURVE SMOOTH",
"354 99 OFFCURVE",
"322 105 OFFCURVE",
"293 117 CURVE SMOOTH",
"264 129 OFFCURVE",
"239 146 OFFCURVE",
"218 168 CURVE SMOOTH",
"197 190 OFFCURVE",
"181 217 OFFCURVE",
"169 250 CURVE SMOOTH",
"157 282 OFFCURVE",
"151 320 OFFCURVE",
"151 362 CURVE SMOOTH",
"151 401 OFFCURVE",
"157 436 OFFCURVE",
"168 467 CURVE SMOOTH",
"179 498 OFFCURVE",
"195 525 OFFCURVE",
"215 547 CURVE SMOOTH",
"235 569 OFFCURVE",
"260 586 OFFCURVE",
"289 598 CURVE SMOOTH",
"318 610 OFFCURVE",
"349 616 OFFCURVE",
"385 616 CURVE SMOOTH",
"449 616 OFFCURVE",
"506 608 OFFCURVE",
"556 591 CURVE",
"560 548 OFFCURVE",
"563 522 OFFCURVE",
"565 513 CURVE SMOOTH",
"568 501 OFFCURVE",
"575 495 OFFCURVE",
"588 495 CURVE SMOOTH",
"629 495 LINE",
"642 495 LINE",
"646 495 LINE",
"646 679 LINE",
"553 713 OFFCURVE",
"468 731 OFFCURVE",
"390 731 CURVE SMOOTH",
"389 731 LINE",
"383 731 LINE SMOOTH",
"328 730 OFFCURVE",
"278 721 OFFCURVE",
"234 704 CURVE SMOOTH",
"188 686 OFFCURVE",
"148 661 OFFCURVE",
"116 628 CURVE SMOOTH",
"83 595 OFFCURVE",
"58 556 OFFCURVE",
"40 511 CURVE SMOOTH",
"22 466 OFFCURVE",
"14 416 OFFCURVE",
"14 362 CURVE SMOOTH",
"14 308 OFFCURVE",
"23 258 OFFCURVE",
"41 213 CURVE SMOOTH",
"59 168 OFFCURVE",
"85 129 OFFCURVE",
"117 96 CURVE SMOOTH",
"149 63 OFFCURVE",
"188 38 OFFCURVE",
"232 20 CURVE SMOOTH",
"276 2 OFFCURVE",
"324 -8 OFFCURVE",
"377 -8 CURVE SMOOTH",
"407 -8 OFFCURVE",
"434 -6 OFFCURVE",
"460 -3 CURVE SMOOTH",
"486 0 OFFCURVE",
"511 5 OFFCURVE",
"533 11 CURVE SMOOTH",
"555 17 OFFCURVE",
"576 25 OFFCURVE",
"596 35 CURVE SMOOTH",
"616 45 OFFCURVE",
"635 57 OFFCURVE",
"653 70 CURVE",
"653 362 LINE"
);
}
);
width = 673;
}
);
leftKerningGroup = C;
note = G;
unicode = 0047;
},
{
glyphname = H;
lastChange = "2017-01-26 14:17:26 +0000";
layers = (
{
anchors = (
{
name = bottom;
position = "{401, 0}";
},
{
name = center;
position = "{401, 362}";
},
{
name = top;
position = "{401, 723}";
},
{
name = topleft;
position = "{20, 723}";
}
);
layerId = "394C4E3B-EB1E-48D6-87F8-186C851DDDB0";
paths = (
{
closed = 1;
nodes = (
"773 637 OFFCURVE",
"781 647 OFFCURVE",
"781 664 CURVE SMOOTH",
"781 723 LINE",
"706 723 LINE",
"570 723 LINE",
"495 723 LINE",
"495 664 LINE SMOOTH",
"495 647 OFFCURVE",
"503 637 OFFCURVE",
"520 633 CURVE",
"521 633 OFFCURVE",
"523 632 OFFCURVE",
"526 632 CURVE",
"529 631 OFFCURVE",
"534 630 OFFCURVE",
"541 629 CURVE SMOOTH",
"548 628 OFFCURVE",
"558 626 OFFCURVE",
"570 624 CURVE",
"570 412 LINE",
"231 412 LINE",
"231 624 LINE",
"243 626 OFFCURVE",
"254 628 OFFCURVE",
"261 629 CURVE SMOOTH",
"268 630 OFFCURVE",
"273 632 OFFCURVE",
"276 632 CURVE",
"279 633 OFFCURVE",
"281 633 OFFCURVE",
"282 633 CURVE",
"299 637 OFFCURVE",
"307 647 OFFCURVE",
"307 664 CURVE SMOOTH",
"307 723 LINE",
"231 723 LINE",
"96 723 LINE",
"20 723 LINE",
"20 664 LINE SMOOTH",
"20 647 OFFCURVE",
"28 637 OFFCURVE",
"45 633 CURVE",
"46 633 OFFCURVE",
"48 633 OFFCURVE",
"51 632 CURVE",
"54 632 OFFCURVE",
"59 630 OFFCURVE",
"66 629 CURVE SMOOTH",
"73 628 OFFCURVE",
"84 626 OFFCURVE",
"96 624 CURVE",
"96 99 LINE",
"84 97 OFFCURVE",
"73 95 OFFCURVE",
"66 94 CURVE SMOOTH",
"59 93 OFFCURVE",
"54 91 OFFCURVE",
"51 91 CURVE SMOOTH",
"48 91 OFFCURVE",
"46 90 OFFCURVE",
"45 90 CURVE",
"28 86 OFFCURVE",
"20 76 OFFCURVE",
"20 59 CURVE SMOOTH",
"20 0 LINE",
"96 0 LINE",
"231 0 LINE",
"307 0 LINE",
"307 59 LINE SMOOTH",
"307 76 OFFCURVE",
"299 86 OFFCURVE",
"282 90 CURVE",
"281 90 OFFCURVE",
"279 90 OFFCURVE",
"276 91 CURVE",
"273 91 OFFCURVE",
"268 93 OFFCURVE",
"261 94 CURVE SMOOTH",
"254 95 OFFCURVE",
"243 97 OFFCURVE",
"231 99 CURVE",
"231 316 LINE",
"570 316 LINE",
"570 99 LINE",
"558 97 OFFCURVE",
"548 95 OFFCURVE",
"541 94 CURVE SMOOTH",
"534 93 OFFCURVE",
"529 92 OFFCURVE",
"526 91 CURVE SMOOTH",
"523 90 OFFCURVE",
"521 90 OFFCURVE",
"520 90 CURVE",
"503 86 OFFCURVE",
"495 76 OFFCURVE",
"495 59 CURVE SMOOTH",
"495 0 LINE",
"570 0 LINE",
"706 0 LINE",
"781 0 LINE",
"781 59 LINE SMOOTH",
"781 76 OFFCURVE",
"773 86 OFFCURVE",
"756 90 CURVE",
"755 90 OFFCURVE",
"753 91 OFFCURVE",
"750 91 CURVE SMOOTH",
"747 91 OFFCURVE",
"742 93 OFFCURVE",
"735 94 CURVE SMOOTH",
"728 95 OFFCURVE",
"718 97 OFFCURVE",
"706 99 CURVE",
"706 624 LINE",
"718 626 OFFCURVE",
"728 628 OFFCURVE",
"735 629 CURVE SMOOTH",
"742 630 OFFCURVE",
"747 632 OFFCURVE",
"750 632 CURVE SMOOTH",
"753 632 OFFCURVE",
"755 633 OFFCURVE",
"756 633 CURVE"
);
}
);
width = 801;
}
);
note = H;
unicode = 0048;
},
{
glyphname = I;
lastChange = "2017-01-26 14:17:26 +0000";
layers = (
{
anchors = (
{
name = bottom;
position = "{163, 0}";
},
{
name = ogonek;
position = "{293, 10}";
},
{
name = top;
position = "{163, 723}";
},
{
name = topleft;
position = "{20, 723}";
}
);
layerId = "394C4E3B-EB1E-48D6-87F8-186C851DDDB0";
paths = (
{
closed = 1;
nodes = (
"298 637 OFFCURVE",
"306 647 OFFCURVE",
"306 664 CURVE SMOOTH",
"306 723 LINE",
"231 723 LINE",
"96 723 LINE",
"20 723 LINE",
"20 664 LINE SMOOTH",
"20 647 OFFCURVE",
"28 637 OFFCURVE",
"45 633 CURVE",
"46 633 OFFCURVE",
"48 633 OFFCURVE",
"51 632 CURVE",
"54 632 OFFCURVE",
"59 630 OFFCURVE",
"66 629 CURVE SMOOTH",
"73 628 OFFCURVE",
"84 626 OFFCURVE",
"96 624 CURVE",
"96 99 LINE",
"84 97 OFFCURVE",
"73 95 OFFCURVE",
"66 94 CURVE SMOOTH",
"59 93 OFFCURVE",
"54 92 OFFCURVE",
"51 91 CURVE",
"48 91 OFFCURVE",
"46 90 OFFCURVE",
"45 90 CURVE",
"28 86 OFFCURVE",
"20 76 OFFCURVE",
"20 59 CURVE SMOOTH",
"20 0 LINE",
"96 0 LINE",
"231 0 LINE",
"306 0 LINE",
"306 59 LINE SMOOTH",
"306 76 OFFCURVE",
"298 86 OFFCURVE",
"281 90 CURVE",
"280 90 OFFCURVE",
"278 91 OFFCURVE",
"275 91 CURVE SMOOTH",
"272 91 OFFCURVE",
"267 93 OFFCURVE",
"260 94 CURVE SMOOTH",
"253 95 OFFCURVE",
"243 97 OFFCURVE",
"231 99 CURVE",
"231 624 LINE",
"243 626 OFFCURVE",
"253 628 OFFCURVE",
"260 629 CURVE SMOOTH",
"267 630 OFFCURVE",
"272 632 OFFCURVE",
"275 632 CURVE SMOOTH",
"278 632 OFFCURVE",
"280 633 OFFCURVE",
"281 633 CURVE"
);
}
);
width = 326;
}
);
note = I;
unicode = 0049;
},
{
glyphname = J;
lastChange = "2017-01-26 15:47:28 +0000";
layers = (
{
anchors = (
{
name = bottom;
position = "{226, 0}";
},
{
name = top;
position = "{226, 723}";
}
);
layerId = "394C4E3B-EB1E-48D6-87F8-186C851DDDB0";
paths = (
{
closed = 1;
nodes = (
"361 723 LINE",
"227 723 LINE",
"142 723 LINE",
"142 664 LINE SMOOTH",
"142 647 OFFCURVE",
"150 637 OFFCURVE",
"167 633 CURVE",
"168 633 OFFCURVE",
"172 632 OFFCURVE",
"176 632 CURVE SMOOTH",
"180 632 OFFCURVE",
"186 630 OFFCURVE",
"195 629 CURVE SMOOTH",
"204 628 OFFCURVE",
"215 626 OFFCURVE",
"227 624 CURVE",
"227 254 LINE SMOOTH",
"227 227 OFFCURVE",
"224 203 OFFCURVE",
"219 184 CURVE SMOOTH",
"214 165 OFFCURVE",
"207 150 OFFCURVE",
"197 138 CURVE SMOOTH",
"187 126 OFFCURVE",
"175 116 OFFCURVE",
"160 111 CURVE",
"145 105 OFFCURVE",
"129 103 OFFCURVE",
"110 103 CURVE SMOOTH",
"96 103 OFFCURVE",
"84 105 OFFCURVE",
"75 107 CURVE SMOOTH",
"66 109 OFFCURVE",
"59 110 OFFCURVE",
"53 110 CURVE SMOOTH",
"44 110 OFFCURVE",
"37 107 OFFCURVE",
"32 103 CURVE",
"27 98 OFFCURVE",
"24 93 OFFCURVE",
"23 86 CURVE",
"16 6 LINE",
"35 1 OFFCURVE",
"54 -3 OFFCURVE",
"71 -5 CURVE SMOOTH",
"88 -7 OFFCURVE",
"106 -8 OFFCURVE",
"124 -8 CURVE SMOOTH",
"163 -8 OFFCURVE",
"197 -1 OFFCURVE",
"227 11 CURVE SMOOTH",
"257 23 OFFCURVE",
"282 41 OFFCURVE",
"302 64 CURVE SMOOTH",
"322 87 OFFCURVE",
"336 114 OFFCURVE",
"346 147 CURVE SMOOTH",
"356 180 OFFCURVE",
"361 216 OFFCURVE",
"361 257 CURVE SMOOTH",
"361 624 LINE",
"373 626 OFFCURVE",
"384 628 OFFCURVE",
"391 629 CURVE SMOOTH",
"398 630 OFFCURVE",
"403 632 OFFCURVE",
"406 632 CURVE SMOOTH",
"409 632 OFFCURVE",
"411 633 OFFCURVE",
"412 633 CURVE",
"429 637 OFFCURVE",
"437 647 OFFCURVE",
"437 664 CURVE SMOOTH",
"437 723 LINE"
);
}
);
width = 452;
}
);
leftKerningGroup = J;
note = J;
rightKerningGroup = J;
unicode = 004A;
},
{
glyphname = K;
lastChange = "2017-01-26 14:17:26 +0000";
layers = (
{
anchors = (
{
name = bottom;
position = "{368, 0}";
},
{
name = top;
position = "{368, 723}";
}
);
layerId = "394C4E3B-EB1E-48D6-87F8-186C851DDDB0";
paths = (
{
closed = 1;
nodes = (
"690 90 OFFCURVE",
"688 91 OFFCURVE",
"684 91 CURVE SMOOTH",
"680 91 OFFCURVE",
"674 93 OFFCURVE",
"666 94 CURVE SMOOTH",
"658 95 OFFCURVE",
"649 97 OFFCURVE",
"637 99 CURVE",
"459 338 LINE SMOOTH",
"451 349 OFFCURVE",
"442 359 OFFCURVE",
"433 366 CURVE SMOOTH",
"424 373 OFFCURVE",
"414 379 OFFCURVE",
"403 383 CURVE",
"411 387 OFFCURVE",
"419 393 OFFCURVE",
"426 399 CURVE SMOOTH",
"433 405 OFFCURVE",
"440 413 OFFCURVE",
"448 422 CURVE",
"611 624 LINE",
"623 626 OFFCURVE",
"633 628 OFFCURVE",
"641 629 CURVE SMOOTH",
"649 630 OFFCURVE",
"655 632 OFFCURVE",
"659 632 CURVE SMOOTH",
"663 632 OFFCURVE",
"665 633 OFFCURVE",
"667 633 CURVE",
"684 637 OFFCURVE",
"692 647 OFFCURVE",
"692 664 CURVE SMOOTH",
"692 723 LINE",
"616 723 LINE",
"591 723 LINE",
"426 723 LINE",
"426 664 LINE SMOOTH",
"426 647 OFFCURVE",
"434 637 OFFCURVE",
"451 633 CURVE",
"452 633 OFFCURVE",
"454 632 OFFCURVE",
"457 632 CURVE SMOOTH",
"460 632 OFFCURVE",
"462 631 OFFCURVE",
"464 631 CURVE",
"315 442 LINE SMOOTH",
"309 434 OFFCURVE",
"301 429 OFFCURVE",
"293 425 CURVE SMOOTH",
"285 421 OFFCURVE",
"275 420 OFFCURVE",
"262 420 CURVE SMOOTH",
"230 420 LINE",
"230 624 LINE",
"242 626 OFFCURVE",
"253 629 OFFCURVE",
"260 630 CURVE SMOOTH",
"267 631 OFFCURVE",
"272 631 OFFCURVE",
"275 632 CURVE",
"278 632 OFFCURVE",
"280 633 OFFCURVE",
"281 633 CURVE",
"298 637 OFFCURVE",
"306 648 OFFCURVE",
"306 665 CURVE SMOOTH",
"306 723 LINE",
"230 723 LINE",
"96 723 LINE",
"20 723 LINE",
"20 665 LINE SMOOTH",
"20 648 OFFCURVE",
"28 637 OFFCURVE",
"45 633 CURVE",
"46 633 OFFCURVE",
"48 632 OFFCURVE",
"51 632 CURVE SMOOTH",
"54 632 OFFCURVE",
"59 631 OFFCURVE",
"66 630 CURVE SMOOTH",
"73 629 OFFCURVE",
"84 626 OFFCURVE",
"96 624 CURVE",
"96 99 LINE",
"84 97 OFFCURVE",
"73 95 OFFCURVE",
"66 94 CURVE SMOOTH",
"59 93 OFFCURVE",
"54 92 OFFCURVE",
"51 91 CURVE SMOOTH",
"48 90 OFFCURVE",
"46 90 OFFCURVE",
"45 90 CURVE",
"28 86 OFFCURVE",
"20 76 OFFCURVE",
"20 59 CURVE SMOOTH",
"20 0 LINE",
"96 0 LINE",
"230 0 LINE",
"306 0 LINE",
"306 59 LINE SMOOTH",
"306 76 OFFCURVE",
"298 86 OFFCURVE",
"281 90 CURVE",
"280 90 OFFCURVE",
"278 91 OFFCURVE",
"275 91 CURVE SMOOTH",
"272 91 OFFCURVE",
"267 93 OFFCURVE",
"260 94 CURVE SMOOTH",
"253 95 OFFCURVE",
"242 97 OFFCURVE",
"230 99 CURVE",
"230 318 LINE",
"273 318 LINE SMOOTH",
"288 318 OFFCURVE",
"300 316 OFFCURVE",
"308 312 CURVE SMOOTH",
"316 308 OFFCURVE",
"324 303 OFFCURVE",
"331 294 CURVE SMOOTH",
"484 94 LINE",
"479 93 OFFCURVE",
"474 92 OFFCURVE",
"470 91 CURVE SMOOTH",
"466 90 OFFCURVE",
"463 90 OFFCURVE",
"462 90 CURVE",
"445 86 OFFCURVE",
"437 76 OFFCURVE",
"437 59 CURVE SMOOTH",
"437 0 LINE",
"591 0 LINE",
"603 0 LINE",
"642 0 LINE",
"710 0 LINE",
"717 0 LINE",
"717 59 LINE SMOOTH",
"717 76 OFFCURVE",
"709 86 OFFCURVE",
"692 90 CURVE"
);
}
);
width = 736;
}
);
note = K;
unicode = 004B;
},
{
glyphname = L;
lastChange = "2017-01-26 14:17:26 +0000";
layers = (
{
anchors = (
{
name = bottom;
position = "{283, 0}";
},
{
name = center;
position = "{283, 362}";
},
{
name = top;
position = "{283, 723}";
},
{
name = topright;
position = "{545, 723}";
}
);
layerId = "394C4E3B-EB1E-48D6-87F8-186C851DDDB0";
paths = (
{
closed = 1;
nodes = (
"490 173 LINE SMOOTH",
"477 173 OFFCURVE",
"470 166 OFFCURVE",
"467 154 CURVE SMOOTH",
"466 150 OFFCURVE",
"465 136 OFFCURVE",
"463 111 CURVE",
"230 111 LINE",
"230 624 LINE",
"242 626 OFFCURVE",
"253 628 OFFCURVE",
"260 629 CURVE SMOOTH",
"267 630 OFFCURVE",
"272 631 OFFCURVE",
"275 632 CURVE SMOOTH",
"278 633 OFFCURVE",
"280 633 OFFCURVE",
"281 633 CURVE",
"298 637 OFFCURVE",
"306 647 OFFCURVE",
"306 664 CURVE SMOOTH",
"306 723 LINE",
"230 723 LINE",
"96 723 LINE",
"20 723 LINE",
"20 664 LINE SMOOTH",
"20 647 OFFCURVE",
"28 637 OFFCURVE",
"45 633 CURVE",
"46 633 OFFCURVE",
"48 633 OFFCURVE",
"51 632 CURVE",
"54 632 OFFCURVE",
"59 630 OFFCURVE",
"66 629 CURVE SMOOTH",
"73 628 OFFCURVE",
"84 626 OFFCURVE",
"96 624 CURVE",
"96 99 LINE",
"84 97 OFFCURVE",
"73 95 OFFCURVE",
"66 94 CURVE SMOOTH",
"59 93 OFFCURVE",
"54 92 OFFCURVE",
"51 91 CURVE SMOOTH",
"48 90 OFFCURVE",
"46 90 OFFCURVE",
"45 90 CURVE",
"28 86 OFFCURVE",
"20 76 OFFCURVE",
"20 59 CURVE SMOOTH",
"20 0 LINE",
"96 0 LINE",
"517 0 LINE",
"520 0 LINE",
"544 0 LINE",
"544 53 LINE",
"544 72 LINE",
"544 173 LINE"
);
}
);
width = 565;
}
);
note = L;
unicode = 004C;
},
{
glyphname = M;
lastChange = "2017-01-26 14:17:26 +0000";
layers = (
{
anchors = (
{
name = bottom;
position = "{488, 0}";
},
{
name = top;
position = "{488, 723}";
}
);
layerId = "394C4E3B-EB1E-48D6-87F8-186C851DDDB0";
paths = (
{
closed = 1;
nodes = (
"947 637 OFFCURVE",
"955 647 OFFCURVE",
"955 664 CURVE SMOOTH",
"955 723 LINE",
"880 723 LINE",
"778 723 LINE SMOOTH",
"772 723 OFFCURVE",
"767 722 OFFCURVE",
"763 722 CURVE SMOOTH",
"759 722 OFFCURVE",
"755 721 OFFCURVE",
"751 720 CURVE SMOOTH",
"747 719 OFFCURVE",
"744 716 OFFCURVE",
"741 713 CURVE SMOOTH",
"738 710 OFFCURVE",
"736 706 OFFCURVE",
"733 701 CURVE",
"519 301 LINE SMOOTH",
"513 290 OFFCURVE",
"508 279 OFFCURVE",
"503 267 CURVE SMOOTH",
"498 255 OFFCURVE",
"494 244 OFFCURVE",
"489 232 CURVE",
"484 244 OFFCURVE",
"479 256 OFFCURVE",
"474 267 CURVE SMOOTH",
"469 278 OFFCURVE",
"465 289 OFFCURVE",
"459 300 CURVE SMOOTH",
"243 701 LINE",
"240 706 OFFCURVE",
"237 710 OFFCURVE",
"234 713 CURVE SMOOTH",
"231 716 OFFCURVE",
"229 719 OFFCURVE",
"225 720 CURVE",
"222 721 OFFCURVE",
"217 722 OFFCURVE",
"213 722 CURVE SMOOTH",
"209 722 OFFCURVE",
"203 723 OFFCURVE",
"197 723 CURVE SMOOTH",
"96 723 LINE",
"20 723 LINE",
"20 664 LINE SMOOTH",
"20 647 OFFCURVE",
"28 637 OFFCURVE",
"45 633 CURVE",
"46 633 OFFCURVE",
"48 633 OFFCURVE",
"51 632 CURVE",
"54 632 OFFCURVE",
"59 630 OFFCURVE",
"66 629 CURVE SMOOTH",
"73 628 OFFCURVE",
"84 626 OFFCURVE",
"96 624 CURVE",
"96 99 LINE",
"84 97 OFFCURVE",
"73 95 OFFCURVE",
"66 94 CURVE SMOOTH",
"59 93 OFFCURVE",
"54 92 OFFCURVE",
"51 91 CURVE SMOOTH",
"48 90 OFFCURVE",
"46 90 OFFCURVE",
"45 90 CURVE",
"28 86 OFFCURVE",
"20 76 OFFCURVE",
"20 59 CURVE SMOOTH",
"20 0 LINE",
"96 0 LINE",
"214 0 LINE",
"304 0 LINE",
"304 59 LINE SMOOTH",
"304 76 OFFCURVE",
"296 86 OFFCURVE",
"279 90 CURVE",
"277 90 OFFCURVE",
"256 93 OFFCURVE",
"214 99 CURVE",
"214 467 LINE SMOOTH",
"214 476 OFFCURVE",
"214 486 OFFCURVE",
"213 496 CURVE SMOOTH",
"212 506 OFFCURVE",
"212 517 OFFCURVE",
"211 528 CURVE",
"432 117 LINE SMOOTH",
"437 108 OFFCURVE",
"444 100 OFFCURVE",
"452 95 CURVE SMOOTH",
"460 90 OFFCURVE",
"469 87 OFFCURVE",
"480 87 CURVE SMOOTH",
"498 87 LINE SMOOTH",
"509 87 OFFCURVE",
"518 90 OFFCURVE",
"526 95 CURVE SMOOTH",
"534 100 OFFCURVE",
"541 108 OFFCURVE",
"546 117 CURVE SMOOTH",
"764 527 LINE",
"763 516 OFFCURVE",
"762 505 OFFCURVE",
"762 495 CURVE SMOOTH",
"762 485 OFFCURVE",
"761 476 OFFCURVE",
"761 467 CURVE SMOOTH",
"761 99 LINE",
"720 93 OFFCURVE",
"698 90 OFFCURVE",
"696 90 CURVE",
"679 86 OFFCURVE",
"671 76 OFFCURVE",
"671 59 CURVE SMOOTH",
"671 0 LINE",
"761 0 LINE",
"880 0 LINE",
"955 0 LINE",
"955 59 LINE SMOOTH",
"955 76 OFFCURVE",
"947 86 OFFCURVE",
"930 90 CURVE",
"929 90 OFFCURVE",
"927 91 OFFCURVE",
"924 91 CURVE SMOOTH",
"921 91 OFFCURVE",
"916 93 OFFCURVE",
"909 94 CURVE SMOOTH",
"902 95 OFFCURVE",
"892 97 OFFCURVE",
"880 99 CURVE",
"880 624 LINE",
"892 626 OFFCURVE",
"902 628 OFFCURVE",
"909 629 CURVE SMOOTH",
"916 630 OFFCURVE",
"921 632 OFFCURVE",
"924 632 CURVE SMOOTH",
"927 632 OFFCURVE",
"929 633 OFFCURVE",
"930 633 CURVE"
);
}
);
width = 975;
}
);
note = M;
unicode = 004D;
},
{
glyphname = N;
lastChange = "2017-01-26 14:17:26 +0000";
layers = (
{
anchors = (
{
name = bottom;
position = "{398, 0}";
},
{
name = top;
position = "{398, 723}";
}
);
layerId = "394C4E3B-EB1E-48D6-87F8-186C851DDDB0";
paths = (
{
closed = 1;
nodes = (
"706 723 LINE",
"587 723 LINE",
"497 723 LINE",
"497 664 LINE SMOOTH",
"497 647 OFFCURVE",
"505 637 OFFCURVE",
"522 633 CURVE",
"524 633 OFFCURVE",
"545 630 OFFCURVE",
"587 624 CURVE",
"587 284 LINE SMOOTH",
"587 274 OFFCURVE",
"587 263 OFFCURVE",
"588 252 CURVE SMOOTH",
"589 241 OFFCURVE",
"590 230 OFFCURVE",
"591 218 CURVE",
"211 701 LINE SMOOTH",
"207 706 OFFCURVE",
"204 710 OFFCURVE",
"201 713 CURVE SMOOTH",
"198 716 OFFCURVE",
"195 718 OFFCURVE",
"192 719 CURVE",
"189 721 OFFCURVE",
"185 722 OFFCURVE",
"181 722 CURVE SMOOTH",
"177 722 OFFCURVE",
"172 723 OFFCURVE",
"166 723 CURVE SMOOTH",
"96 723 LINE",
"20 723 LINE",
"20 664 LINE SMOOTH",
"20 647 OFFCURVE",
"28 637 OFFCURVE",
"45 633 CURVE",
"46 633 OFFCURVE",
"48 632 OFFCURVE",
"51 632 CURVE SMOOTH",
"54 632 OFFCURVE",
"59 630 OFFCURVE",
"66 629 CURVE SMOOTH",
"73 628 OFFCURVE",
"84 626 OFFCURVE",
"96 624 CURVE",
"96 99 LINE",
"84 97 OFFCURVE",
"73 95 OFFCURVE",
"66 94 CURVE SMOOTH",
"59 93 OFFCURVE",
"54 92 OFFCURVE",
"51 91 CURVE SMOOTH",
"48 90 OFFCURVE",
"46 90 OFFCURVE",
"45 90 CURVE",
"28 86 OFFCURVE",
"20 76 OFFCURVE",
"20 59 CURVE SMOOTH",
"20 0 LINE",
"96 0 LINE",
"214 0 LINE",
"304 0 LINE",
"304 59 LINE SMOOTH",
"304 76 OFFCURVE",
"296 86 OFFCURVE",
"279 90 CURVE",
"277 90 OFFCURVE",
"256 93 OFFCURVE",
"214 99 CURVE",
"214 444 LINE SMOOTH",
"214 453 OFFCURVE",
"213 463 OFFCURVE",
"213 473 CURVE SMOOTH",
"213 483 OFFCURVE",
"212 493 OFFCURVE",
"211 504 CURVE",
"589 23 LINE SMOOTH",
"596 14 OFFCURVE",
"603 8 OFFCURVE",
"610 5 CURVE SMOOTH",
"617 2 OFFCURVE",
"625 0 OFFCURVE",
"636 0 CURVE SMOOTH",
"706 0 LINE",
"706 624 LINE",
"718 626 OFFCURVE",
"728 628 OFFCURVE",
"735 629 CURVE SMOOTH",
"742 630 OFFCURVE",
"747 632 OFFCURVE",
"750 632 CURVE SMOOTH",
"753 632 OFFCURVE",
"755 633 OFFCURVE",
"756 633 CURVE",
"773 637 OFFCURVE",
"781 647 OFFCURVE",
"781 664 CURVE SMOOTH",
"781 723 LINE"
);
}
);
width = 796;
}
);
note = N;
unicode = 004E;
},
{
glyphname = O;
lastChange = "2017-01-26 15:47:28 +0000";
layers = (
{
anchors = (
{
name = bottom;
position = "{381, 0}";
},
{
name = center;
position = "{381, 362}";
},
{
name = ogonek;
position = "{686, 10}";
},
{
name = top;
position = "{381, 723}";
},
{
name = topleft;
position = "{20, 723}";
},
{
name = topright;
position = "{742, 723}";
}
);
layerId = "394C4E3B-EB1E-48D6-87F8-186C851DDDB0";
paths = (
{
closed = 1;
nodes = (
"747 415 OFFCURVE",
"738 464 OFFCURVE",
"720 509 CURVE SMOOTH",
"702 554 OFFCURVE",
"678 593 OFFCURVE",
"646 626 CURVE SMOOTH",
"614 659 OFFCURVE",
"575 684 OFFCURVE",
"530 703 CURVE SMOOTH",
"485 722 OFFCURVE",
"436 731 OFFCURVE",
"381 731 CURVE SMOOTH",
"326 731 OFFCURVE",
"276 721 OFFCURVE",
"231 703 CURVE SMOOTH",
"186 685 OFFCURVE",
"147 659 OFFCURVE",
"115 626 CURVE SMOOTH",
"83 593 OFFCURVE",
"58 554 OFFCURVE",
"40 509 CURVE SMOOTH",
"22 464 OFFCURVE",
"14 415 OFFCURVE",
"14 362 CURVE SMOOTH",
"14 309 OFFCURVE",
"22 259 OFFCURVE",
"40 214 CURVE SMOOTH",
"58 169 OFFCURVE",
"83 130 OFFCURVE",
"115 97 CURVE SMOOTH",
"147 64 OFFCURVE",
"186 38 OFFCURVE",
"231 20 CURVE SMOOTH",
"276 2 OFFCURVE",
"326 -8 OFFCURVE",
"381 -8 CURVE SMOOTH",
"436 -8 OFFCURVE",
"485 2 OFFCURVE",
"530 20 CURVE SMOOTH",
"575 38 OFFCURVE",
"614 64 OFFCURVE",
"646 97 CURVE SMOOTH",
"678 130 OFFCURVE",
"702 169 OFFCURVE",
"720 214 CURVE SMOOTH",
"738 259 OFFCURVE",
"747 309 OFFCURVE",
"747 362 CURVE SMOOTH"
);
},
{
closed = 1;
nodes = (
"609 322 OFFCURVE",
"603 287 OFFCURVE",
"593 255 CURVE SMOOTH",
"583 223 OFFCURVE",
"568 197 OFFCURVE",
"548 175 CURVE SMOOTH",
"528 153 OFFCURVE",
"504 136 OFFCURVE",
"476 124 CURVE SMOOTH",
"448 112 OFFCURVE",
"416 107 OFFCURVE",
"381 107 CURVE SMOOTH",
"346 107 OFFCURVE",
"313 112 OFFCURVE",
"285 124 CURVE SMOOTH",
"257 136 OFFCURVE",
"233 153 OFFCURVE",
"213 175 CURVE SMOOTH",
"193 197 OFFCURVE",
"178 223 OFFCURVE",
"167 255 CURVE SMOOTH",
"156 287 OFFCURVE",
"151 322 OFFCURVE",
"151 362 CURVE SMOOTH",
"151 402 OFFCURVE",
"156 436 OFFCURVE",
"167 468 CURVE SMOOTH",
"178 500 OFFCURVE",
"193 526 OFFCURVE",
"213 548 CURVE SMOOTH",
"233 570 OFFCURVE",
"257 587 OFFCURVE",
"285 599 CURVE SMOOTH",
"313 611 OFFCURVE",
"346 616 OFFCURVE",
"381 616 CURVE SMOOTH",
"416 616 OFFCURVE",
"448 611 OFFCURVE",
"476 599 CURVE SMOOTH",
"504 587 OFFCURVE",
"528 570 OFFCURVE",
"548 548 CURVE SMOOTH",
"568 526 OFFCURVE",
"583 500 OFFCURVE",
"593 468 CURVE SMOOTH",
"603 436 OFFCURVE",
"609 402 OFFCURVE",
"609 362 CURVE SMOOTH"
);
}
);
width = 762;
}
);
leftKerningGroup = C;
note = O;
rightKerningGroup = D;
unicode = 004F;
},
{
glyphname = P;
lastChange = "2017-01-26 14:17:26 +0000";
layers = (
{
anchors = (
{
name = bottom;
position = "{308, 0}";
},
{
name = top;
position = "{308, 723}";
}
);
layerId = "394C4E3B-EB1E-48D6-87F8-186C851DDDB0";
paths = (
{
closed = 1;
nodes = (
"572 614 OFFCURVE",
"555 638 OFFCURVE",
"532 658 CURVE SMOOTH",
"509 678 OFFCURVE",
"480 695 OFFCURVE",
"445 706 CURVE SMOOTH",
"410 717 OFFCURVE",
"367 723 OFFCURVE",
"319 723 CURVE SMOOTH",
"96 723 LINE",
"20 723 LINE",
"20 664 LINE SMOOTH",
"20 647 OFFCURVE",
"28 637 OFFCURVE",
"45 633 CURVE",
"46 633 OFFCURVE",
"48 633 OFFCURVE",
"51 632 CURVE",
"54 632 OFFCURVE",
"59 630 OFFCURVE",
"66 629 CURVE SMOOTH",
"73 628 OFFCURVE",
"84 626 OFFCURVE",
"96 624 CURVE",
"96 99 LINE",
"84 97 OFFCURVE",
"73 95 OFFCURVE",
"66 94 CURVE SMOOTH",
"59 93 OFFCURVE",
"54 92 OFFCURVE",
"51 91 CURVE",
"48 91 OFFCURVE",
"46 90 OFFCURVE",
"45 90 CURVE",
"28 86 OFFCURVE",
"20 76 OFFCURVE",
"20 59 CURVE SMOOTH",
"20 0 LINE",
"96 0 LINE",
"230 0 LINE",
"306 0 LINE",
"306 59 LINE SMOOTH",
"306 76 OFFCURVE",
"298 86 OFFCURVE",
"281 90 CURVE",
"280 90 OFFCURVE",
"278 91 OFFCURVE",
"275 91 CURVE SMOOTH",
"272 91 OFFCURVE",
"267 93 OFFCURVE",
"260 94 CURVE SMOOTH",
"253 95 OFFCURVE",
"242 97 OFFCURVE",
"230 99 CURVE",
"230 255 LINE",
"319 255 LINE SMOOTH",
"366 255 OFFCURVE",
"407 260 OFFCURVE",
"442 272 CURVE SMOOTH",
"477 284 OFFCURVE",
"507 300 OFFCURVE",
"530 321 CURVE SMOOTH",
"553 342 OFFCURVE",
"570 367 OFFCURVE",
"582 396 CURVE SMOOTH",
"594 425 OFFCURVE",
"600 458 OFFCURVE",
"600 493 CURVE SMOOTH",
"600 527 OFFCURVE",
"594 558 OFFCURVE",
"583 586 CURVE SMOOTH"
);
},
{
closed = 1;
nodes = (
"450 420 OFFCURVE",
"441 406 OFFCURVE",
"429 395 CURVE",
"417 383 OFFCURVE",
"402 375 OFFCURVE",
"384 369 CURVE SMOOTH",
"366 363 OFFCURVE",
"344 360 OFFCURVE",
"319 360 CURVE SMOOTH",
"230 360 LINE",
"230 619 LINE",
"319 619 LINE SMOOTH",
"344 619 OFFCURVE",
"366 616 OFFCURVE",
"384 610 CURVE SMOOTH",
"402 604 OFFCURVE",
"417 596 OFFCURVE",
"429 585 CURVE SMOOTH",
"441 574 OFFCURVE",
"450 561 OFFCURVE",
"456 545 CURVE SMOOTH",
"462 529 OFFCURVE",
"465 512 OFFCURVE",
"465 493 CURVE SMOOTH",
"465 473 OFFCURVE",
"462 453 OFFCURVE",
"456 437 CURVE SMOOTH"
);
}
);
width = 615;
}
);
note = P;
unicode = 0050;
},
{
glyphname = Q;
lastChange = "2017-01-26 15:47:28 +0000";
layers = (
{
anchors = (
{
name = bottom;
position = "{398, 0}";
},
{
name = top;
position = "{398, 723}";
}
);
layerId = "394C4E3B-EB1E-48D6-87F8-186C851DDDB0";
paths = (
{
closed = 1;
nodes = (
"747 415 OFFCURVE",
"738 464 OFFCURVE",
"720 509 CURVE SMOOTH",
"702 554 OFFCURVE",
"678 593 OFFCURVE",
"646 626 CURVE SMOOTH",
"614 659 OFFCURVE",
"575 684 OFFCURVE",
"530 703 CURVE SMOOTH",
"485 722 OFFCURVE",
"436 731 OFFCURVE",
"381 731 CURVE SMOOTH",
"326 731 OFFCURVE",
"276 721 OFFCURVE",
"231 703 CURVE SMOOTH",
"186 685 OFFCURVE",
"147 659 OFFCURVE",
"115 626 CURVE SMOOTH",
"83 593 OFFCURVE",
"58 554 OFFCURVE",
"40 509 CURVE SMOOTH",
"22 464 OFFCURVE",
"14 415 OFFCURVE",
"14 362 CURVE SMOOTH",
"14 309 OFFCURVE",
"22 259 OFFCURVE",
"40 214 CURVE SMOOTH",
"58 169 OFFCURVE",
"83 130 OFFCURVE",
"115 97 CURVE SMOOTH",
"147 64 OFFCURVE",
"186 38 OFFCURVE",
"231 20 CURVE SMOOTH",
"276 2 OFFCURVE",
"326 -8 OFFCURVE",
"381 -8 CURVE SMOOTH",
"400 -8 OFFCURVE",
"419 -6 OFFCURVE",
"437 -4 CURVE SMOOTH",
"455 -2 OFFCURVE",
"472 1 OFFCURVE",
"489 6 CURVE",
"595 -111 LINE SMOOTH",
"606 -123 OFFCURVE",
"617 -131 OFFCURVE",
"630 -135 CURVE SMOOTH",
"643 -139 OFFCURVE",
"658 -142 OFFCURVE",
"674 -142 CURVE SMOOTH",
"784 -142 LINE",
"601 58 LINE",
"624 74 OFFCURVE",
"644 93 OFFCURVE",
"662 115 CURVE SMOOTH",
"680 137 OFFCURVE",
"696 160 OFFCURVE",
"708 186 CURVE SMOOTH",
"720 212 OFFCURVE",
"730 239 OFFCURVE",
"737 269 CURVE SMOOTH",
"744 299 OFFCURVE",
"747 330 OFFCURVE",
"747 362 CURVE SMOOTH"
);
},
{
closed = 1;
nodes = (
"609 322 OFFCURVE",
"603 287 OFFCURVE",
"593 255 CURVE SMOOTH",
"583 223 OFFCURVE",
"568 197 OFFCURVE",
"548 175 CURVE SMOOTH",
"528 153 OFFCURVE",
"504 136 OFFCURVE",
"476 124 CURVE SMOOTH",
"448 112 OFFCURVE",
"416 107 OFFCURVE",
"381 107 CURVE SMOOTH",
"346 107 OFFCURVE",
"314 112 OFFCURVE",
"286 124 CURVE SMOOTH",
"258 136 OFFCURVE",
"233 153 OFFCURVE",
"213 175 CURVE SMOOTH",
"193 197 OFFCURVE",
"178 223 OFFCURVE",
"167 255 CURVE SMOOTH",
"156 287 OFFCURVE",
"151 322 OFFCURVE",
"151 362 CURVE SMOOTH",
"151 402 OFFCURVE",
"156 436 OFFCURVE",
"167 468 CURVE SMOOTH",
"178 500 OFFCURVE",
"193 526 OFFCURVE",
"213 548 CURVE SMOOTH",
"233 570 OFFCURVE",
"258 587 OFFCURVE",
"286 599 CURVE SMOOTH",
"314 611 OFFCURVE",
"346 616 OFFCURVE",
"381 616 CURVE SMOOTH",
"416 616 OFFCURVE",
"448 611 OFFCURVE",
"476 599 CURVE SMOOTH",
"504 587 OFFCURVE",
"528 570 OFFCURVE",
"548 548 CURVE SMOOTH",
"568 526 OFFCURVE",
"583 500 OFFCURVE",
"593 468 CURVE SMOOTH",
"603 436 OFFCURVE",
"609 402 OFFCURVE",
"609 362 CURVE SMOOTH"
);
}
);
width = 796;
}
);
leftKerningGroup = C;
note = Q;
rightKerningGroup = Q;
unicode = 0051;
},
{
glyphname = R;
lastChange = "2017-01-26 14:17:26 +0000";
layers = (
{
anchors = (
{
name = bottom;
position = "{343, 0}";
},
{
name = top;
position = "{343, 723}";
}
);
layerId = "394C4E3B-EB1E-48D6-87F8-186C851DDDB0";
paths = (
{
closed = 1;
nodes = (
"641 90 OFFCURVE",
"638 91 OFFCURVE",
"634 91 CURVE SMOOTH",
"630 91 OFFCURVE",
"625 93 OFFCURVE",
"617 94 CURVE SMOOTH",
"609 95 OFFCURVE",
"598 97 OFFCURVE",
"586 99 CURVE",
"472 267 LINE SMOOTH",
"460 285 OFFCURVE",
"445 299 OFFCURVE",
"428 309 CURVE",
"453 317 OFFCURVE",
"476 328 OFFCURVE",
"496 341 CURVE SMOOTH",
"516 354 OFFCURVE",
"533 369 OFFCURVE",
"546 387 CURVE SMOOTH",
"559 405 OFFCURVE",
"570 424 OFFCURVE",
"577 446 CURVE SMOOTH",
"584 468 OFFCURVE",
"588 491 OFFCURVE",
"588 515 CURVE SMOOTH",
"588 546 OFFCURVE",
"583 573 OFFCURVE",
"572 599 CURVE SMOOTH",
"562 624 OFFCURVE",
"544 647 OFFCURVE",
"522 665 CURVE SMOOTH",
"500 683 OFFCURVE",
"471 698 OFFCURVE",
"436 708 CURVE SMOOTH",
"401 718 OFFCURVE",
"358 723 OFFCURVE",
"309 723 CURVE SMOOTH",
"96 723 LINE",
"20 723 LINE",
"20 664 LINE SMOOTH",
"20 647 OFFCURVE",
"28 637 OFFCURVE",
"45 633 CURVE",
"46 633 OFFCURVE",
"48 632 OFFCURVE",
"51 632 CURVE SMOOTH",
"54 632 OFFCURVE",
"59 630 OFFCURVE",
"66 629 CURVE SMOOTH",
"73 628 OFFCURVE",
"84 626 OFFCURVE",
"96 624 CURVE",
"96 99 LINE",
"84 97 OFFCURVE",
"73 95 OFFCURVE",
"66 94 CURVE SMOOTH",
"59 93 OFFCURVE",
"54 92 OFFCURVE",
"51 91 CURVE",
"48 91 OFFCURVE",
"46 90 OFFCURVE",
"45 90 CURVE",
"28 86 OFFCURVE",
"20 76 OFFCURVE",
"20 59 CURVE SMOOTH",
"20 0 LINE",
"96 0 LINE",
"230 0 LINE",
"306 0 LINE",
"306 59 LINE SMOOTH",
"306 76 OFFCURVE",
"298 86 OFFCURVE",
"281 90 CURVE",
"280 90 OFFCURVE",
"278 91 OFFCURVE",
"275 91 CURVE SMOOTH",
"272 91 OFFCURVE",
"267 93 OFFCURVE",
"260 94 CURVE SMOOTH",
"253 95 OFFCURVE",
"242 97 OFFCURVE",
"230 99 CURVE",
"230 283 LINE",
"281 283 LINE SMOOTH",
"294 283 OFFCURVE",
"304 281 OFFCURVE",
"311 277 CURVE SMOOTH",
"318 273 OFFCURVE",
"324 268 OFFCURVE",
"330 259 CURVE SMOOTH",
"482 27 LINE SMOOTH",
"488 18 OFFCURVE",
"494 12 OFFCURVE",
"502 7 CURVE SMOOTH",
"510 2 OFFCURVE",
"520 0 OFFCURVE",
"532 0 CURVE SMOOTH",
"591 0 LINE",
"653 0 LINE",
"667 0 LINE",
"667 59 LINE SMOOTH",
"667 76 OFFCURVE",
"659 86 OFFCURVE",
"642 90 CURVE"
);
},
{
closed = 1;
nodes = (
"354 383 OFFCURVE",
"332 379 OFFCURVE",
"307 379 CURVE SMOOTH",
"230 379 LINE",
"230 619 LINE",
"309 619 LINE SMOOTH",
"359 619 OFFCURVE",
"396 610 OFFCURVE",
"420 590 CURVE SMOOTH",
"444 570 OFFCURVE",
"456 542 OFFCURVE",
"456 505 CURVE SMOOTH",
"456 487 OFFCURVE",
"453 470 OFFCURVE",
"447 455 CURVE SMOOTH",
"441 440 OFFCURVE",
"432 426 OFFCURVE",
"420 415 CURVE SMOOTH",
"408 404 OFFCURVE",
"392 395 OFFCURVE",
"373 389 CURVE SMOOTH"
);
}
);
width = 685;
}
);
note = R;
unicode = 0052;
},
{
glyphname = S;
lastChange = "2017-01-26 15:47:28 +0000";
layers = (
{
anchors = (
{
name = bottom;
position = "{253, 0}";
},
{
name = top;
position = "{253, 723}";
}
);
layerId = "394C4E3B-EB1E-48D6-87F8-186C851DDDB0";
paths = (
{
closed = 1;
nodes = (
"468 324 OFFCURVE",
"455 341 OFFCURVE",
"439 356 CURVE SMOOTH",
"423 371 OFFCURVE",
"405 383 OFFCURVE",
"385 392 CURVE SMOOTH",
"365 401 OFFCURVE",
"345 410 OFFCURVE",
"324 417 CURVE SMOOTH",
"303 424 OFFCURVE",
"283 431 OFFCURVE",
"263 437 CURVE SMOOTH",
"243 443 OFFCURVE",
"225 451 OFFCURVE",
"209 459 CURVE SMOOTH",
"193 467 OFFCURVE",
"181 477 OFFCURVE",
"172 488 CURVE SMOOTH",
"163 499 OFFCURVE",
"157 513 OFFCURVE",
"157 530 CURVE SMOOTH",
"157 543 OFFCURVE",
"159 556 OFFCURVE",
"164 567 CURVE SMOOTH",
"169 578 OFFCURVE",
"177 588 OFFCURVE",
"186 596 CURVE SMOOTH",
"195 604 OFFCURVE",
"207 610 OFFCURVE",
"221 615 CURVE",
"235 619 OFFCURVE",
"250 621 OFFCURVE",
"269 621 CURVE SMOOTH",
"321 621 OFFCURVE",
"361 616 OFFCURVE",
"386 605 CURVE",
"390 560 OFFCURVE",
"393 533 OFFCURVE",
"395 524 CURVE SMOOTH",
"398 512 OFFCURVE",
"405 505 OFFCURVE",
"418 505 CURVE SMOOTH",
"459 505 LINE",
"471 505 LINE",
"475 505 LINE",
"475 690 LINE",
"408 717 OFFCURVE",
"339 731 OFFCURVE",
"268 731 CURVE SMOOTH",
"230 731 OFFCURVE",
"196 725 OFFCURVE",
"167 713 CURVE SMOOTH",
"138 701 OFFCURVE",
"113 686 OFFCURVE",
"93 667 CURVE SMOOTH",
"73 648 OFFCURVE",
"57 625 OFFCURVE",
"47 600 CURVE SMOOTH",
"36 575 OFFCURVE",
"31 549 OFFCURVE",
"31 523 CURVE SMOOTH",
"31 490 OFFCURVE",
"37 462 OFFCURVE",
"46 440 CURVE SMOOTH",
"55 417 OFFCURVE",
"67 399 OFFCURVE",
"83 384 CURVE SMOOTH",
"99 369 OFFCURVE",
"117 356 OFFCURVE",
"137 347 CURVE SMOOTH",
"157 338 OFFCURVE",
"177 330 OFFCURVE",
"198 323 CURVE SMOOTH",
"218 316 OFFCURVE",
"239 311 OFFCURVE",
"259 305 CURVE SMOOTH",
"279 299 OFFCURVE",
"296 292 OFFCURVE",
"312 284 CURVE SMOOTH",
"328 276 OFFCURVE",
"341 266 OFFCURVE",
"350 254 CURVE SMOOTH",
"359 242 OFFCURVE",
"364 226 OFFCURVE",
"364 207 CURVE SMOOTH",
"364 173 OFFCURVE",
"354 147 OFFCURVE",
"333 129 CURVE SMOOTH",
"312 111 OFFCURVE",
"282 102 OFFCURVE",
"244 102 CURVE SMOOTH",
"182 102 OFFCURVE",
"136 106 OFFCURVE",
"107 115 CURVE",
"103 161 OFFCURVE",
"100 189 OFFCURVE",
"98 198 CURVE SMOOTH",
"95 210 OFFCURVE",
"88 216 OFFCURVE",
"75 216 CURVE SMOOTH",
"34 216 LINE",
"22 216 LINE",
"18 216 LINE",
"18 48 LINE",
"18 30 LINE",
"92 5 OFFCURVE",
"161 -8 OFFCURVE",
"225 -8 CURVE SMOOTH",
"240 -8 LINE SMOOTH",
"280 -8 OFFCURVE",
"315 -2 OFFCURVE",
"346 10 CURVE SMOOTH",
"377 22 OFFCURVE",
"404 39 OFFCURVE",
"425 60 CURVE SMOOTH",
"447 81 OFFCURVE",
"463 106 OFFCURVE",
"474 135 CURVE SMOOTH",
"485 164 OFFCURVE",
"491 193 OFFCURVE",
"491 226 CURVE SMOOTH",
"491 256 OFFCURVE",
"487 282 OFFCURVE",
"477 303 CURVE"
);
}
);
width = 505;
}
);
leftKerningGroup = S;
note = S;
rightKerningGroup = S;
unicode = 0053;
},
{
glyphname = T;
lastChange = "2017-01-26 15:47:28 +0000";
layers = (
{
anchors = (
{
name = bottom;
position = "{317, 0}";
},
{
name = center;
position = "{317, 362}";
},
{
name = top;
position = "{317, 723}";
}
);
layerId = "394C4E3B-EB1E-48D6-87F8-186C851DDDB0";
paths = (
{
closed = 1;
nodes = (
"601 723 LINE",
"601 723 LINE",
"32 723 LINE",
"31 723 LINE",
"16 723 LINE",
"16 552 LINE",
"20 552 LINE",
"32 552 LINE",
"74 552 LINE SMOOTH",
"87 552 OFFCURVE",
"94 559 OFFCURVE",
"97 571 CURVE",
"98 577 OFFCURVE",
"100 591 OFFCURVE",
"102 613 CURVE",
"249 613 LINE",
"249 99 LINE",
"237 97 OFFCURVE",
"227 95 OFFCURVE",
"220 94 CURVE SMOOTH",
"213 93 OFFCURVE",
"208 91 OFFCURVE",
"205 91 CURVE SMOOTH",
"202 91 OFFCURVE",
"200 90 OFFCURVE",
"199 90 CURVE",
"182 86 OFFCURVE",
"174 76 OFFCURVE",
"174 59 CURVE SMOOTH",
"174 0 LINE",
"249 0 LINE",
"384 0 LINE",
"460 0 LINE",
"460 59 LINE SMOOTH",
"460 76 OFFCURVE",
"451 86 OFFCURVE",
"434 90 CURVE",
"433 90 OFFCURVE",
"431 91 OFFCURVE",
"428 91 CURVE SMOOTH",
"425 91 OFFCURVE",
"420 93 OFFCURVE",
"413 94 CURVE SMOOTH",
"406 95 OFFCURVE",
"396 97 OFFCURVE",
"384 99 CURVE",
"384 612 LINE",
"531 612 LINE",
"533 590 OFFCURVE",
"535 577 OFFCURVE",
"536 571 CURVE",
"539 559 OFFCURVE",
"547 552 OFFCURVE",
"560 552 CURVE SMOOTH",
"601 552 LINE",
"613 552 LINE",
"617 552 LINE",
"617 723 LINE"
);
}
);
width = 633;
}
);
leftKerningGroup = T;
note = T;
rightKerningGroup = T;
unicode = 0054;
},
{
glyphname = U;
lastChange = "2017-01-26 15:47:28 +0000";
layers = (
{
anchors = (
{
name = bottom;
position = "{391, 0}";
},
{
name = ogonek;
position = "{703, 10}";
},
{
name = top;
position = "{391, 723}";
},
{
name = topright;
position = "{761, 723}";
}
);
layerId = "394C4E3B-EB1E-48D6-87F8-186C851DDDB0";
paths = (
{
closed = 1;
nodes = (
"690 723 LINE",
"556 723 LINE",
"476 723 LINE",
"476 664 LINE SMOOTH",
"476 647 OFFCURVE",
"484 637 OFFCURVE",
"501 633 CURVE",
"502 633 OFFCURVE",
"505 632 OFFCURVE",
"508 632 CURVE SMOOTH",
"511 632 OFFCURVE",
"517 630 OFFCURVE",
"525 629 CURVE SMOOTH",
"533 628 OFFCURVE",
"544 626 OFFCURVE",
"556 624 CURVE",
"556 290 LINE SMOOTH",
"556 262 OFFCURVE",
"551 237 OFFCURVE",
"544 215 CURVE",
"536 193 OFFCURVE",
"526 174 OFFCURVE",
"512 158 CURVE SMOOTH",
"498 142 OFFCURVE",
"480 131 OFFCURVE",
"460 122 CURVE SMOOTH",
"440 113 OFFCURVE",
"416 109 OFFCURVE",
"390 109 CURVE SMOOTH",
"364 109 OFFCURVE",
"340 113 OFFCURVE",
"320 122 CURVE SMOOTH",
"300 131 OFFCURVE",
"283 142 OFFCURVE",
"269 158 CURVE SMOOTH",
"255 174 OFFCURVE",
"243 194 OFFCURVE",
"236 216 CURVE",
"228 238 OFFCURVE",
"225 263 OFFCURVE",
"225 291 CURVE SMOOTH",
"225 624 LINE",
"237 626 OFFCURVE",
"248 628 OFFCURVE",
"256 629 CURVE SMOOTH",
"264 630 OFFCURVE",
"270 632 OFFCURVE",
"273 632 CURVE SMOOTH",
"276 632 OFFCURVE",
"279 633 OFFCURVE",
"280 633 CURVE",
"297 637 OFFCURVE",
"305 647 OFFCURVE",
"305 664 CURVE SMOOTH",
"305 723 LINE",
"225 723 LINE",
"91 723 LINE",
"15 723 LINE",
"15 664 LINE SMOOTH",
"15 647 OFFCURVE",
"23 637 OFFCURVE",
"40 633 CURVE",
"41 633 OFFCURVE",
"43 632 OFFCURVE",
"46 632 CURVE SMOOTH",
"49 632 OFFCURVE",
"54 630 OFFCURVE",
"61 629 CURVE SMOOTH",
"68 628 OFFCURVE",
"79 626 OFFCURVE",
"91 624 CURVE",
"91 290 LINE SMOOTH",
"91 247 OFFCURVE",
"97 207 OFFCURVE",
"111 171 CURVE SMOOTH",
"125 135 OFFCURVE",
"145 103 OFFCURVE",
"171 76 CURVE SMOOTH",
"197 50 OFFCURVE",
"228 29 OFFCURVE",
"265 14 CURVE SMOOTH",
"302 -1 OFFCURVE",
"344 -8 OFFCURVE",
"390 -8 CURVE SMOOTH",
"436 -8 OFFCURVE",
"478 -1 OFFCURVE",
"515 14 CURVE SMOOTH",
"552 29 OFFCURVE",
"584 50 OFFCURVE",
"610 76 CURVE SMOOTH",
"636 103 OFFCURVE",
"655 135 OFFCURVE",
"669 171 CURVE SMOOTH",
"683 207 OFFCURVE",
"690 247 OFFCURVE",
"690 290 CURVE SMOOTH",
"690 624 LINE",
"702 626 OFFCURVE",
"713 628 OFFCURVE",
"720 629 CURVE SMOOTH",
"727 630 OFFCURVE",
"732 632 OFFCURVE",
"735 632 CURVE SMOOTH",
"738 632 OFFCURVE",
"740 633 OFFCURVE",
"741 633 CURVE",
"758 637 OFFCURVE",
"766 647 OFFCURVE",
"766 664 CURVE SMOOTH",
"766 723 LINE"
);
}
);
width = 781;
}
);
leftKerningGroup = U;
note = U;
rightKerningGroup = J;
unicode = 0055;
},
{
glyphname = V;
lastChange = "2017-01-26 15:47:28 +0000";
layers = (
{
anchors = (
{
name = bottom;
position = "{404, 0}";
},
{
name = top;
position = "{404, 723}";
}
);
layerId = "394C4E3B-EB1E-48D6-87F8-186C851DDDB0";
paths = (
{
closed = 1;
nodes = (
"756 723 LINE",
"715 723 LINE",
"648 723 LINE",
"520 723 LINE",
"520 664 LINE SMOOTH",
"520 647 OFFCURVE",
"528 637 OFFCURVE",
"545 633 CURVE",
"546 633 OFFCURVE",
"548 633 OFFCURVE",
"550 632 CURVE SMOOTH",
"552 631 OFFCURVE",
"556 630 OFFCURVE",
"561 629 CURVE SMOOTH",
"566 628 OFFCURVE",
"571 626 OFFCURVE",
"577 625 CURVE",
"434 251 LINE SMOOTH",
"423 222 OFFCURVE",
"413 188 OFFCURVE",
"405 150 CURVE",
"400 169 OFFCURVE",
"395 187 OFFCURVE",
"390 204 CURVE SMOOTH",
"385 221 OFFCURVE",
"380 237 OFFCURVE",
"374 251 CURVE",
"230 625 LINE",
"236 626 OFFCURVE",
"241 628 OFFCURVE",
"246 629 CURVE SMOOTH",
"251 630 OFFCURVE",
"254 631 OFFCURVE",
"256 632 CURVE SMOOTH",
"258 633 OFFCURVE",
"260 633 OFFCURVE",
"261 633 CURVE",
"278 637 OFFCURVE",
"286 647 OFFCURVE",
"286 664 CURVE SMOOTH",
"286 723 LINE",
"159 723 LINE",
"92 723 LINE",
"51 723 LINE",
"16 723 LINE",
"16 664 LINE SMOOTH",
"16 647 OFFCURVE",
"24 637 OFFCURVE",
"41 633 CURVE",
"43 633 OFFCURVE",
"44 633 OFFCURVE",
"47 632 CURVE",
"50 632 OFFCURVE",
"55 630 OFFCURVE",
"62 629 CURVE SMOOTH",
"69 628 OFFCURVE",
"78 626 OFFCURVE",
"90 624 CURVE",
"343 0 LINE",
"464 0 LINE",
"716 624 LINE",
"728 626 OFFCURVE",
"738 628 OFFCURVE",
"745 629 CURVE SMOOTH",
"752 630 OFFCURVE",
"756 632 OFFCURVE",
"759 632 CURVE SMOOTH",
"762 632 OFFCURVE",
"763 633 OFFCURVE",
"765 633 CURVE",
"782 637 OFFCURVE",
"790 647 OFFCURVE",
"790 664 CURVE SMOOTH",
"790 723 LINE"
);
}
);
width = 807;
}
);
leftKerningGroup = V;
note = V;
rightKerningGroup = V;
unicode = 0056;
},
{
glyphname = W;
lastChange = "2017-01-26 15:47:28 +0000";
layers = (
{
anchors = (
{
name = bottom;
position = "{567, 0}";
},
{
name = top;
position = "{567, 723}";
}
);
layerId = "394C4E3B-EB1E-48D6-87F8-186C851DDDB0";
paths = (
{
closed = 1;
nodes = (
"1084 723 LINE",
"1042 723 LINE",
"978 723 LINE",
"848 723 LINE",
"848 664 LINE SMOOTH",
"848 647 OFFCURVE",
"856 637 OFFCURVE",
"873 633 CURVE SMOOTH",
"890 629 OFFCURVE",
"904 626 OFFCURVE",
"914 624 CURVE",
"811 260 LINE SMOOTH",
"808 250 OFFCURVE",
"805 238 OFFCURVE",
"803 226 CURVE",
"800 214 OFFCURVE",
"798 202 OFFCURVE",
"796 189 CURVE",
"791 215 OFFCURVE",
"784 239 OFFCURVE",
"777 260 CURVE SMOOTH",
"636 692 LINE SMOOTH",
"633 701 OFFCURVE",
"628 709 OFFCURVE",
"620 715 CURVE SMOOTH",
"612 721 OFFCURVE",
"603 723 OFFCURVE",
"591 723 CURVE SMOOTH",
"551 723 LINE SMOOTH",
"540 723 OFFCURVE",
"531 719 OFFCURVE",
"523 713 CURVE SMOOTH",
"515 707 OFFCURVE",
"510 700 OFFCURVE",
"507 692 CURVE",
"365 260 LINE SMOOTH",
"361 249 OFFCURVE",
"358 238 OFFCURVE",
"355 225 CURVE SMOOTH",
"352 213 OFFCURVE",
"349 199 OFFCURVE",
"346 185 CURVE",
"344 199 OFFCURVE",
"341 213 OFFCURVE",
"339 225 CURVE",
"336 237 OFFCURVE",
"333 249 OFFCURVE",
"330 260 CURVE SMOOTH",
"227 625 LINE",
"233 627 OFFCURVE",
"239 628 OFFCURVE",
"244 629 CURVE SMOOTH",
"249 630 OFFCURVE",
"253 631 OFFCURVE",
"255 632 CURVE SMOOTH",
"257 633 OFFCURVE",
"259 633 OFFCURVE",
"260 633 CURVE",
"277 637 OFFCURVE",
"285 647 OFFCURVE",
"285 664 CURVE SMOOTH",
"285 723 LINE",
"162 723 LINE",
"91 723 LINE",
"50 723 LINE",
"15 723 LINE",
"15 664 LINE SMOOTH",
"15 647 OFFCURVE",
"23 637 OFFCURVE",
"40 633 CURVE",
"41 633 OFFCURVE",
"44 632 OFFCURVE",
"51 631 CURVE SMOOTH",
"58 630 OFFCURVE",
"68 628 OFFCURVE",
"80 626 CURVE",
"274 0 LINE",
"395 0 LINE",
"555 494 LINE SMOOTH",
"557 500 OFFCURVE",
"559 506 OFFCURVE",
"561 514 CURVE SMOOTH",
"563 521 OFFCURVE",
"565 530 OFFCURVE",
"567 538 CURVE",
"569 530 OFFCURVE",
"572 521 OFFCURVE",
"574 514 CURVE SMOOTH",
"576 507 OFFCURVE",
"578 500 OFFCURVE",
"580 494 CURVE SMOOTH",
"738 0 LINE",
"859 0 LINE",
"1054 626 LINE",
"1066 628 OFFCURVE",
"1075 630 OFFCURVE",
"1082 631 CURVE SMOOTH",
"1089 632 OFFCURVE",
"1092 633 OFFCURVE",
"1093 633 CURVE",
"1110 637 OFFCURVE",
"1118 647 OFFCURVE",
"1118 664 CURVE SMOOTH",
"1118 723 LINE"
);
}
);
width = 1133;
}
);
leftKerningGroup = V;
note = W;
rightKerningGroup = V;
unicode = 0057;
},
{
glyphname = X;
lastChange = "2017-01-26 15:47:28 +0000";
layers = (
{
anchors = (
{
name = bottom;
position = "{390, 0}";
},
{
name = top;
position = "{390, 723}";
}
);
layerId = "394C4E3B-EB1E-48D6-87F8-186C851DDDB0";
paths = (
{
closed = 1;
nodes = (
"729 91 OFFCURVE",
"704 94 OFFCURVE",
"659 99 CURVE",
"483 378 LINE",
"649 624 LINE",
"694 629 OFFCURVE",
"719 632 OFFCURVE",
"725 633 CURVE",
"742 637 OFFCURVE",
"750 647 OFFCURVE",
"750 664 CURVE SMOOTH",
"750 723 LINE",
"716 723 LINE",
"681 723 LINE",
"670 723 LINE",
"587 723 LINE",
"445 723 LINE",
"445 664 LINE SMOOTH",
"445 647 OFFCURVE",
"453 637 OFFCURVE",
"470 633 CURVE SMOOTH",
"487 629 OFFCURVE",
"500 627 OFFCURVE",
"508 625 CURVE",
"408 467 LINE",
"405 463 OFFCURVE",
"403 458 OFFCURVE",
"401 454 CURVE SMOOTH",
"399 450 OFFCURVE",
"397 445 OFFCURVE",
"395 441 CURVE",
"281 626 LINE",
"287 627 OFFCURVE",
"298 630 OFFCURVE",
"314 633 CURVE",
"331 637 OFFCURVE",
"339 647 OFFCURVE",
"339 664 CURVE SMOOTH",
"339 723 LINE",
"199 723 LINE",
"108 723 LINE",
"103 723 LINE",
"65 723 LINE",
"28 723 LINE",
"28 664 LINE SMOOTH",
"28 647 OFFCURVE",
"36 637 OFFCURVE",
"53 633 CURVE SMOOTH",
"58 632 OFFCURVE",
"84 629 OFFCURVE",
"130 624 CURVE",
"296 372 LINE",
"119 99 LINE",
"74 94 OFFCURVE",
"49 91 OFFCURVE",
"44 90 CURVE SMOOTH",
"27 86 OFFCURVE",
"18 76 OFFCURVE",
"18 59 CURVE SMOOTH",
"18 0 LINE",
"55 0 LINE",
"93 0 LINE",
"99 0 LINE",
"181 0 LINE",
"329 0 LINE",
"329 59 LINE SMOOTH",
"329 76 OFFCURVE",
"321 86 OFFCURVE",
"304 90 CURVE SMOOTH",
"287 94 OFFCURVE",
"272 97 OFFCURVE",
"262 99 CURVE",
"375 279 LINE SMOOTH",
"377 282 OFFCURVE",
"378 285 OFFCURVE",
"380 289 CURVE",
"382 292 OFFCURVE",
"384 296 OFFCURVE",
"385 300 CURVE",
"508 96 LINE",
"504 95 OFFCURVE",
"493 93 OFFCURVE",
"478 90 CURVE SMOOTH",
"461 86 OFFCURVE",
"453 76 OFFCURVE",
"453 59 CURVE SMOOTH",
"453 0 LINE",
"588 0 LINE",
"680 0 LINE",
"689 0 LINE",
"722 0 LINE",
"760 0 LINE",
"760 59 LINE SMOOTH",
"760 76 OFFCURVE",
"752 86 OFFCURVE",
"735 90 CURVE"
);
}
);
width = 779;
}
);
leftKerningGroup = X;
note = X;
rightKerningGroup = K;
unicode = 0058;
},
{
glyphname = Y;
lastChange = "2017-01-26 15:47:28 +0000";
layers = (
{
anchors = (
{
name = bottom;
position = "{363, 0}";
},
{
name = top;
position = "{363, 723}";
},
{
name = topleft;
position = "{20, 723}";
}
);
layerId = "394C4E3B-EB1E-48D6-87F8-186C851DDDB0";
paths = (
{
closed = 1;
nodes = (
"694 723 LINE",
"676 723 LINE",
"634 723 LINE",
"575 723 LINE",
"440 723 LINE",
"440 664 LINE SMOOTH",
"440 647 OFFCURVE",
"448 637 OFFCURVE",
"465 633 CURVE",
"466 633 OFFCURVE",
"468 633 OFFCURVE",
"470 632 CURVE",
"472 632 OFFCURVE",
"475 630 OFFCURVE",
"479 629 CURVE SMOOTH",
"483 628 OFFCURVE",
"489 627 OFFCURVE",
"494 626 CURVE",
"399 451 LINE SMOOTH",
"391 437 OFFCURVE",
"385 424 OFFCURVE",
"379 411 CURVE SMOOTH",
"373 398 OFFCURVE",
"368 386 OFFCURVE",
"364 373 CURVE",
"359 385 OFFCURVE",
"355 398 OFFCURVE",
"349 411 CURVE SMOOTH",
"343 424 OFFCURVE",
"337 437 OFFCURVE",
"329 451 CURVE SMOOTH",
"233 626 LINE",
"238 627 OFFCURVE",
"243 628 OFFCURVE",
"247 629 CURVE SMOOTH",
"251 630 OFFCURVE",
"255 631 OFFCURVE",
"257 632 CURVE",
"259 632 OFFCURVE",
"260 633 OFFCURVE",
"261 633 CURVE",
"278 637 OFFCURVE",
"286 647 OFFCURVE",
"286 664 CURVE SMOOTH",
"286 723 LINE",
"151 723 LINE",
"92 723 LINE",
"51 723 LINE",
"33 723 LINE",
"16 723 LINE",
"16 664 LINE SMOOTH",
"16 647 OFFCURVE",
"24 637 OFFCURVE",
"41 633 CURVE",
"42 633 OFFCURVE",
"44 633 OFFCURVE",
"47 632 CURVE",
"50 632 OFFCURVE",
"55 630 OFFCURVE",
"62 629 CURVE SMOOTH",
"69 628 OFFCURVE",
"80 626 OFFCURVE",
"92 624 CURVE",
"296 281 LINE",
"296 99 LINE",
"284 97 OFFCURVE",
"274 95 OFFCURVE",
"267 94 CURVE SMOOTH",
"260 93 OFFCURVE",
"255 92 OFFCURVE",
"252 91 CURVE SMOOTH",
"249 90 OFFCURVE",
"246 90 OFFCURVE",
"245 90 CURVE",
"228 86 OFFCURVE",
"220 76 OFFCURVE",
"220 59 CURVE SMOOTH",
"220 0 LINE",
"296 0 LINE",
"431 0 LINE",
"506 0 LINE",
"506 59 LINE SMOOTH",
"506 76 OFFCURVE",
"498 86 OFFCURVE",
"481 90 CURVE",
"480 90 OFFCURVE",
"478 91 OFFCURVE",
"475 91 CURVE SMOOTH",
"472 91 OFFCURVE",
"467 93 OFFCURVE",
"460 94 CURVE SMOOTH",
"453 95 OFFCURVE",
"443 97 OFFCURVE",
"431 99 CURVE",
"431 281 LINE",
"635 624 LINE",
"647 626 OFFCURVE",
"657 628 OFFCURVE",
"664 629 CURVE SMOOTH",
"671 630 OFFCURVE",
"676 632 OFFCURVE",
"679 632 CURVE SMOOTH",
"682 632 OFFCURVE",
"683 633 OFFCURVE",
"685 633 CURVE",
"702 637 OFFCURVE",
"710 647 OFFCURVE",
"710 664 CURVE SMOOTH",
"710 723 LINE"
);
}
);
width = 726;
}
);
leftKerningGroup = Y;
note = Y;
rightKerningGroup = Y;
unicode = 0059;
},
{
glyphname = Z;
lastChange = "2017-01-26 15:47:28 +0000";
layers = (
{
anchors = (
{
name = bottom;
position = "{297, 0}";
},
{
name = top;
position = "{297, 723}";
}
);
layerId = "394C4E3B-EB1E-48D6-87F8-186C851DDDB0";
paths = (
{
closed = 1;
nodes = (
"562 631 LINE SMOOTH",
"571 644 OFFCURVE",
"575 658 OFFCURVE",
"575 673 CURVE SMOOTH",
"575 723 LINE",
"40 723 LINE",
"41 526 LINE",
"94 526 LINE SMOOTH",
"107 526 OFFCURVE",
"114 533 OFFCURVE",
"117 545 CURVE",
"117 548 OFFCURVE",
"121 571 OFFCURVE",
"126 616 CURVE",
"401 616 LINE",
"29 90 LINE",
"25 85 OFFCURVE",
"22 78 OFFCURVE",
"20 72 CURVE SMOOTH",
"18 66 OFFCURVE",
"17 60 OFFCURVE",
"17 53 CURVE SMOOTH",
"17 0 LINE",
"566 0 LINE",
"566 107 LINE",
"566 195 LINE",
"513 195 LINE SMOOTH",
"500 195 OFFCURVE",
"493 188 OFFCURVE",
"490 176 CURVE",
"490 173 OFFCURVE",
"486 150 OFFCURVE",
"481 107 CURVE",
"191 107 LINE"
);
}
);
width = 593;
}
);
leftKerningGroup = Z;
note = Z;
rightKerningGroup = uni01F1;
unicode = 005A;
},
{
glyphname = bracketleft;
layers = (
{
layerId = "394C4E3B-EB1E-48D6-87F8-186C851DDDB0";
paths = (
{
closed = 1;
nodes = (
"28 -154 LINE",
"232 -154 LINE",
"232 -106 LINE SMOOTH",
"232 -97 OFFCURVE",
"229 -89 OFFCURVE",
"223 -83 CURVE SMOOTH",
"217 -77 OFFCURVE",
"210 -74 OFFCURVE",
"200 -74 CURVE SMOOTH",
"130 -74 LINE",
"130 694 LINE",
"200 694 LINE SMOOTH",
"210 694 OFFCURVE",
"217 697 OFFCURVE",
"223 703 CURVE SMOOTH",
"229 709 OFFCURVE",
"232 716 OFFCURVE",
"232 725 CURVE SMOOTH",
"232 774 LINE",
"28 774 LINE"
);
}
);
width = 248;
}
);
note = bracketleft;
unicode = 005B;
},
{
glyphname = backslash;
layers = (
{
layerId = "394C4E3B-EB1E-48D6-87F8-186C851DDDB0";
paths = (
{
closed = 1;
nodes = (
"15 743 LINE",
"305 -2 LINE SMOOTH",
"311 -17 OFFCURVE",
"320 -28 OFFCURVE",
"332 -36 CURVE SMOOTH",
"344 -44 OFFCURVE",
"357 -48 OFFCURVE",
"370 -48 CURVE SMOOTH",
"422 -48 LINE",
"131 700 LINE SMOOTH",
"125 714 OFFCURVE",
"117 724 OFFCURVE",
"106 732 CURVE SMOOTH",
"95 740 OFFCURVE",
"83 743 OFFCURVE",
"68 743 CURVE SMOOTH"
);
}
);
width = 437;
}
);
note = backslash;
unicode = 005C;
},
{
glyphname = bracketright;
layers = (
{
layerId = "394C4E3B-EB1E-48D6-87F8-186C851DDDB0";
paths = (
{
closed = 1;
nodes = (
"16 -154 LINE",
"220 -154 LINE",
"220 774 LINE",
"16 774 LINE",
"16 725 LINE SMOOTH",
"16 716 OFFCURVE",
"19 709 OFFCURVE",
"25 703 CURVE SMOOTH",
"31 697 OFFCURVE",
"38 694 OFFCURVE",
"48 694 CURVE SMOOTH",
"118 694 LINE",
"118 -74 LINE",
"48 -74 LINE SMOOTH",
"38 -74 OFFCURVE",
"31 -77 OFFCURVE",
"25 -83 CURVE SMOOTH",
"19 -89 OFFCURVE",
"16 -97 OFFCURVE",
"16 -106 CURVE SMOOTH"
);
}
);
width = 247;
}
);
note = bracketright;
unicode = 005D;
},
{
glyphname = asciicircum;
layers = (
{
layerId = "394C4E3B-EB1E-48D6-87F8-186C851DDDB0";
paths = (
{
closed = 1;
nodes = (
"472 388 LINE",
"285 723 LINE",
"205 723 LINE",
"18 388 LINE",
"114 388 LINE SMOOTH",
"123 388 OFFCURVE",
"129 390 OFFCURVE",
"134 394 CURVE SMOOTH",
"139 398 OFFCURVE",
"143 403 OFFCURVE",
"146 409 CURVE SMOOTH",
"224 554 LINE SMOOTH",
"229 563 OFFCURVE",
"233 572 OFFCURVE",
"237 580 CURVE SMOOTH",
"241 588 OFFCURVE",
"243 597 OFFCURVE",
"246 606 CURVE",
"249 597 OFFCURVE",
"253 588 OFFCURVE",
"257 580 CURVE SMOOTH",
"261 572 OFFCURVE",
"265 563 OFFCURVE",
"270 554 CURVE SMOOTH",
"350 409 LINE",
"353 403 OFFCURVE",
"357 398 OFFCURVE",
"362 394 CURVE SMOOTH",
"367 390 OFFCURVE",
"373 388 OFFCURVE",
"381 388 CURVE SMOOTH"
);
}
);
width = 490;
}
);
note = asciicircum;
unicode = 005E;
},
{
glyphname = underscore;
layers = (
{
layerId = "394C4E3B-EB1E-48D6-87F8-186C851DDDB0";
paths = (
{
closed = 1;
nodes = (
"428 -67 LINE",
"34 -67 LINE",
"34 -147 LINE",
"428 -147 LINE"
);
}
);
width = 463;
}
);
note = underscore;
unicode = 005F;
},
{
glyphname = grave;
layers = (
{
layerId = "394C4E3B-EB1E-48D6-87F8-186C851DDDB0";
paths = (
{
closed = 1;
nodes = (
"22 731 LINE",
"146 600 LINE",
"152 593 OFFCURVE",
"158 590 OFFCURVE",
"164 587 CURVE",
"170 585 OFFCURVE",
"177 583 OFFCURVE",
"186 583 CURVE SMOOTH",
"257 583 LINE",
"186 704 LINE SMOOTH",
"181 713 OFFCURVE",
"174 720 OFFCURVE",
"168 724 CURVE SMOOTH",
"162 728 OFFCURVE",
"152 731 OFFCURVE",
"138 731 CURVE SMOOTH"
);
}
);
width = 279;
}
);
note = grave;
unicode = 0060;
},
{
glyphname = a;
lastChange = "2017-01-26 15:47:28 +0000";
layers = (
{
anchors = (
{
name = bottom;
position = "{261, 0}";
},
{
name = ogonek;
position = "{469, 10}";
},
{
name = top;
position = "{261, 513}";
}
);
layerId = "394C4E3B-EB1E-48D6-87F8-186C851DDDB0";
paths = (
{
closed = 1;
nodes = (
"477 91 OFFCURVE",
"473 92 OFFCURVE",
"467 93 CURVE SMOOTH",
"461 94 OFFCURVE",
"451 96 OFFCURVE",
"440 98 CURVE",
"440 325 LINE SMOOTH",
"440 354 OFFCURVE",
"436 381 OFFCURVE",
"428 405 CURVE SMOOTH",
"420 429 OFFCURVE",
"406 450 OFFCURVE",
"390 468 CURVE SMOOTH",
"374 485 OFFCURVE",
"354 499 OFFCURVE",
"331 509 CURVE SMOOTH",
"307 519 OFFCURVE",
"280 524 OFFCURVE",
"250 524 CURVE SMOOTH",
"167 524 OFFCURVE",
"96 496 OFFCURVE",
"37 442 CURVE",
"60 403 LINE",
"64 397 OFFCURVE",
"68 391 OFFCURVE",
"74 387 CURVE SMOOTH",
"80 383 OFFCURVE",
"88 381 OFFCURVE",
"96 381 CURVE SMOOTH",
"106 381 OFFCURVE",
"115 383 OFFCURVE",
"123 388 CURVE SMOOTH",
"131 393 OFFCURVE",
"140 397 OFFCURVE",
"150 403 CURVE SMOOTH",
"160 409 OFFCURVE",
"172 414 OFFCURVE",
"185 419 CURVE SMOOTH",
"198 424 OFFCURVE",
"215 426 OFFCURVE",
"235 426 CURVE SMOOTH",
"263 426 OFFCURVE",
"284 418 OFFCURVE",
"298 401 CURVE SMOOTH",
"312 384 OFFCURVE",
"320 359 OFFCURVE",
"320 324 CURVE SMOOTH",
"320 294 LINE",
"262 294 OFFCURVE",
"212 289 OFFCURVE",
"173 279 CURVE SMOOTH",
"134 269 OFFCURVE",
"103 256 OFFCURVE",
"79 241 CURVE SMOOTH",
"55 226 OFFCURVE",
"38 209 OFFCURVE",
"28 190 CURVE SMOOTH",
"18 171 OFFCURVE",
"13 151 OFFCURVE",
"13 132 CURVE SMOOTH",
"13 109 OFFCURVE",
"17 89 OFFCURVE",
"24 72 CURVE SMOOTH",
"31 55 OFFCURVE",
"42 40 OFFCURVE",
"55 28 CURVE SMOOTH",
"68 16 OFFCURVE",
"84 8 OFFCURVE",
"102 2 CURVE SMOOTH",
"120 -4 OFFCURVE",
"140 -7 OFFCURVE",
"162 -7 CURVE SMOOTH",
"180 -7 OFFCURVE",
"197 -5 OFFCURVE",
"212 -2 CURVE SMOOTH",
"227 1 OFFCURVE",
"241 5 OFFCURVE",
"254 11 CURVE SMOOTH",
"267 17 OFFCURVE",
"281 24 OFFCURVE",
"293 33 CURVE",
"306 42 OFFCURVE",
"318 52 OFFCURVE",
"331 64 CURVE",
"342 28 LINE SMOOTH",
"345 17 OFFCURVE",
"350 9 OFFCURVE",
"357 6 CURVE",
"364 2 OFFCURVE",
"373 1 OFFCURVE",
"385 1 CURVE SMOOTH",
"427 1 LINE",
"440 1 LINE",
"503 1 LINE",
"503 60 LINE SMOOTH",
"503 77 OFFCURVE",
"495 87 OFFCURVE",
"478 91 CURVE"
);
},
{
closed = 1;
nodes = (
"320 133 LINE",
"311 124 OFFCURVE",
"302 116 OFFCURVE",
"293 109 CURVE SMOOTH",
"284 102 OFFCURVE",
"275 97 OFFCURVE",
"266 92 CURVE SMOOTH",
"257 87 OFFCURVE",
"246 83 OFFCURVE",
"235 81 CURVE SMOOTH",
"224 79 OFFCURVE",
"213 78 OFFCURVE",
"200 78 CURVE SMOOTH",
"179 78 OFFCURVE",
"163 83 OFFCURVE",
"150 92 CURVE SMOOTH",
"137 101 OFFCURVE",
"131 117 OFFCURVE",
"131 139 CURVE SMOOTH",
"131 150 OFFCURVE",
"134 161 OFFCURVE",
"140 170 CURVE SMOOTH",
"146 179 OFFCURVE",
"156 187 OFFCURVE",
"171 194 CURVE SMOOTH",
"186 201 OFFCURVE",
"206 207 OFFCURVE",
"230 212 CURVE SMOOTH",
"254 217 OFFCURVE",
"284 219 OFFCURVE",
"320 219 CURVE"
);
}
);
width = 521;
}
);
leftKerningGroup = a;
note = a;
unicode = 0061;
},
{
glyphname = b;
lastChange = "2017-01-26 14:17:26 +0000";
layers = (
{
anchors = (
{
name = bottom;
position = "{291, 0}";
},
{
name = top;
position = "{291, 513}";
}
);
layerId = "394C4E3B-EB1E-48D6-87F8-186C851DDDB0";
paths = (
{
closed = 1;
nodes = (
"543 404 OFFCURVE",
"530 432 OFFCURVE",
"513 454 CURVE SMOOTH",
"496 476 OFFCURVE",
"476 493 OFFCURVE",
"453 504 CURVE SMOOTH",
"430 516 OFFCURVE",
"404 521 OFFCURVE",
"376 521 CURVE SMOOTH",
"342 521 OFFCURVE",
"312 515 OFFCURVE",
"286 502 CURVE SMOOTH",
"260 489 OFFCURVE",
"237 472 OFFCURVE",
"217 450 CURVE",
"217 743 LINE",
"94 743 LINE",
"14 743 LINE",
"14 684 LINE SMOOTH",
"14 667 OFFCURVE",
"22 657 OFFCURVE",
"39 653 CURVE",
"40 653 OFFCURVE",
"43 652 OFFCURVE",
"46 652 CURVE SMOOTH",
"49 652 OFFCURVE",
"55 650 OFFCURVE",
"63 649 CURVE SMOOTH",
"71 648 OFFCURVE",
"82 646 OFFCURVE",
"94 644 CURVE",
"94 181 LINE",
"94 21 LINE",
"188 2 OFFCURVE",
"271 -7 OFFCURVE",
"345 -7 CURVE SMOOTH",
"379 -7 OFFCURVE",
"409 -1 OFFCURVE",
"436 13 CURVE SMOOTH",
"463 26 OFFCURVE",
"487 45 OFFCURVE",
"506 69 CURVE SMOOTH",
"525 93 OFFCURVE",
"540 121 OFFCURVE",
"550 154 CURVE SMOOTH",
"560 187 OFFCURVE",
"566 223 OFFCURVE",
"566 261 CURVE SMOOTH",
"566 303 OFFCURVE",
"561 340 OFFCURVE",
"552 372 CURVE SMOOTH"
);
},
{
closed = 1;
nodes = (
"424 161 OFFCURVE",
"415 143 OFFCURVE",
"405 129 CURVE SMOOTH",
"395 115 OFFCURVE",
"382 104 OFFCURVE",
"367 97 CURVE SMOOTH",
"352 90 OFFCURVE",
"336 87 OFFCURVE",
"317 87 CURVE SMOOTH",
"284 87 OFFCURVE",
"250 90 OFFCURVE",
"217 96 CURVE",
"217 363 LINE",
"233 383 OFFCURVE",
"250 398 OFFCURVE",
"268 409 CURVE SMOOTH",
"286 420 OFFCURVE",
"308 425 OFFCURVE",
"334 425 CURVE SMOOTH",
"350 425 OFFCURVE",
"364 422 OFFCURVE",
"377 416 CURVE SMOOTH",
"390 410 OFFCURVE",
"401 401 OFFCURVE",
"410 388 CURVE SMOOTH",
"419 375 OFFCURVE",
"426 358 OFFCURVE",
"431 337 CURVE SMOOTH",
"436 316 OFFCURVE",
"438 291 OFFCURVE",
"438 261 CURVE SMOOTH",
"438 231 OFFCURVE",
"436 205 OFFCURVE",
"430 183 CURVE SMOOTH"
);
}
);
width = 581;
}
);
note = b;
unicode = 0062;
},
{
glyphname = c;
lastChange = "2017-01-26 15:47:28 +0000";
layers = (
{
anchors = (
{
name = bottom;
position = "{230, 0}";
},
{
name = top;
position = "{230, 513}";
}
);
layerId = "394C4E3B-EB1E-48D6-87F8-186C851DDDB0";
paths = (
{
closed = 1;
nodes = (
"412 122 LINE",
"407 130 OFFCURVE",
"399 133 OFFCURVE",
"389 133 CURVE SMOOTH",
"381 133 OFFCURVE",
"375 131 OFFCURVE",
"369 126 CURVE SMOOTH",
"363 121 OFFCURVE",
"355 116 OFFCURVE",
"347 110 CURVE SMOOTH",
"339 104 OFFCURVE",
"328 99 OFFCURVE",
"316 94 CURVE SMOOTH",
"304 89 OFFCURVE",
"288 87 OFFCURVE",
"268 87 CURVE SMOOTH",
"248 87 OFFCURVE",
"231 91 OFFCURVE",
"215 98 CURVE",
"199 106 OFFCURVE",
"186 117 OFFCURVE",
"175 131 CURVE SMOOTH",
"164 146 OFFCURVE",
"156 164 OFFCURVE",
"150 185 CURVE SMOOTH",
"144 206 OFFCURVE",
"141 231 OFFCURVE",
"141 258 CURVE SMOOTH",
"141 284 OFFCURVE",
"144 307 OFFCURVE",
"149 328 CURVE SMOOTH",
"154 349 OFFCURVE",
"163 367 OFFCURVE",
"174 382 CURVE SMOOTH",
"185 397 OFFCURVE",
"198 407 OFFCURVE",
"214 415 CURVE SMOOTH",
"230 423 OFFCURVE",
"249 427 OFFCURVE",
"271 427 CURVE SMOOTH",
"288 427 OFFCURVE",
"311 424 OFFCURVE",
"337 417 CURVE",
"341 377 OFFCURVE",
"344 353 OFFCURVE",
"345 345 CURVE",
"348 333 OFFCURVE",
"355 326 OFFCURVE",
"368 326 CURVE SMOOTH",
"409 326 LINE",
"421 326 LINE",
"425 326 LINE",
"426 484 LINE",
"360 509 OFFCURVE",
"306 521 OFFCURVE",
"264 521 CURVE SMOOTH",
"224 521 OFFCURVE",
"188 514 OFFCURVE",
"157 501 CURVE SMOOTH",
"126 488 OFFCURVE",
"100 470 OFFCURVE",
"79 446 CURVE SMOOTH",
"58 422 OFFCURVE",
"42 394 OFFCURVE",
"31 362 CURVE SMOOTH",
"20 330 OFFCURVE",
"15 296 OFFCURVE",
"15 258 CURVE SMOOTH",
"15 216 OFFCURVE",
"21 178 OFFCURVE",
"33 145 CURVE SMOOTH",
"45 112 OFFCURVE",
"62 85 OFFCURVE",
"83 62 CURVE SMOOTH",
"104 39 OFFCURVE",
"128 22 OFFCURVE",
"156 10 CURVE SMOOTH",
"184 -2 OFFCURVE",
"213 -7 OFFCURVE",
"245 -7 CURVE SMOOTH",
"263 -7 OFFCURVE",
"282 -6 OFFCURVE",
"300 -3 CURVE SMOOTH",
"318 0 OFFCURVE",
"336 4 OFFCURVE",
"353 10 CURVE",
"370 17 OFFCURVE",
"387 25 OFFCURVE",
"403 36 CURVE SMOOTH",
"419 47 OFFCURVE",
"433 61 OFFCURVE",
"447 77 CURVE"
);
}
);
width = 459;
}
);
leftKerningGroup = c;
note = c;
unicode = 0063;
},
{
glyphname = d;
lastChange = "2017-01-26 15:47:28 +0000";
layers = (
{
anchors = (
{
name = bottom;
position = "{287, 0}";
},
{
name = center;
position = "{287, 257}";
},
{
name = top;
position = "{287, 513}";
},
{
name = topright;
position = "{553, 513}";
}
);
layerId = "394C4E3B-EB1E-48D6-87F8-186C851DDDB0";
paths = (
{
closed = 1;
nodes = (
"557 61 LINE SMOOTH",
"557 78 OFFCURVE",
"549 88 OFFCURVE",
"532 92 CURVE",
"530 92 OFFCURVE",
"528 93 OFFCURVE",
"526 93 CURVE SMOOTH",
"524 93 OFFCURVE",
"519 95 OFFCURVE",
"513 96 CURVE SMOOTH",
"507 97 OFFCURVE",
"498 98 OFFCURVE",
"487 100 CURVE",
"487 743 LINE",
"363 743 LINE",
"288 743 LINE",
"288 684 LINE SMOOTH",
"288 667 OFFCURVE",
"296 657 OFFCURVE",
"313 653 CURVE",
"314 653 OFFCURVE",
"316 652 OFFCURVE",
"319 652 CURVE SMOOTH",
"322 652 OFFCURVE",
"327 650 OFFCURVE",
"334 649 CURVE SMOOTH",
"341 648 OFFCURVE",
"350 646 OFFCURVE",
"363 644 CURVE",
"363 473 LINE",
"347 489 OFFCURVE",
"329 500 OFFCURVE",
"309 509 CURVE SMOOTH",
"289 518 OFFCURVE",
"264 523 OFFCURVE",
"235 523 CURVE SMOOTH",
"201 523 OFFCURVE",
"171 516 OFFCURVE",
"144 502 CURVE SMOOTH",
"117 488 OFFCURVE",
"94 470 OFFCURVE",
"75 446 CURVE SMOOTH",
"56 422 OFFCURVE",
"40 394 OFFCURVE",
"30 361 CURVE SMOOTH",
"20 328 OFFCURVE",
"15 293 OFFCURVE",
"15 255 CURVE SMOOTH",
"15 213 OFFCURVE",
"20 176 OFFCURVE",
"29 143 CURVE SMOOTH",
"38 111 OFFCURVE",
"51 83 OFFCURVE",
"68 61 CURVE SMOOTH",
"85 39 OFFCURVE",
"105 22 OFFCURVE",
"128 10 CURVE SMOOTH",
"151 -2 OFFCURVE",
"176 -7 OFFCURVE",
"204 -7 CURVE SMOOTH",
"240 -7 OFFCURVE",
"272 0 OFFCURVE",
"299 15 CURVE SMOOTH",
"326 30 OFFCURVE",
"349 48 OFFCURVE",
"370 72 CURVE",
"380 25 LINE",
"382 17 OFFCURVE",
"385 12 OFFCURVE",
"391 8 CURVE SMOOTH",
"397 4 OFFCURVE",
"403 2 OFFCURVE",
"411 2 CURVE SMOOTH",
"487 2 LINE",
"557 2 LINE"
);
},
{
closed = 1;
nodes = (
"364 152 LINE",
"348 132 OFFCURVE",
"331 117 OFFCURVE",
"313 106 CURVE SMOOTH",
"295 95 OFFCURVE",
"273 90 OFFCURVE",
"247 90 CURVE SMOOTH",
"231 90 OFFCURVE",
"216 93 OFFCURVE",
"203 99 CURVE SMOOTH",
"190 105 OFFCURVE",
"180 115 OFFCURVE",
"171 128 CURVE SMOOTH",
"162 141 OFFCURVE",
"155 157 OFFCURVE",
"150 178 CURVE SMOOTH",
"145 199 OFFCURVE",
"143 225 OFFCURVE",
"143 255 CURVE SMOOTH",
"143 285 OFFCURVE",
"145 310 OFFCURVE",
"151 332 CURVE SMOOTH",
"157 354 OFFCURVE",
"165 372 OFFCURVE",
"175 386 CURVE",
"186 400 OFFCURVE",
"199 411 OFFCURVE",
"214 418 CURVE SMOOTH",
"229 425 OFFCURVE",
"245 429 OFFCURVE",
"264 429 CURVE SMOOTH",
"283 429 OFFCURVE",
"301 425 OFFCURVE",
"318 418 CURVE SMOOTH",
"334 411 OFFCURVE",
"350 399 OFFCURVE",
"364 382 CURVE"
);
}
);
width = 573;
}
);
leftKerningGroup = c;
note = d;
unicode = 0064;
},
{
glyphname = e;
lastChange = "2017-01-26 15:47:28 +0000";
layers = (
{
anchors = (
{
name = bottom;
position = "{250, 0}";
},
{
name = ogonek;
position = "{449, 10}";
},
{
name = top;
position = "{250, 513}";
}
);
layerId = "394C4E3B-EB1E-48D6-87F8-186C851DDDB0";
paths = (
{
closed = 1;
nodes = (
"224 521 OFFCURVE",
"188 514 OFFCURVE",
"158 501 CURVE SMOOTH",
"128 488 OFFCURVE",
"102 470 OFFCURVE",
"81 447 CURVE SMOOTH",
"60 424 OFFCURVE",
"43 397 OFFCURVE",
"32 366 CURVE SMOOTH",
"21 335 OFFCURVE",
"15 303 OFFCURVE",
"15 268 CURVE SMOOTH",
"15 223 OFFCURVE",
"21 183 OFFCURVE",
"34 149 CURVE SMOOTH",
"47 115 OFFCURVE",
"65 86 OFFCURVE",
"88 63 CURVE SMOOTH",
"111 40 OFFCURVE",
"137 22 OFFCURVE",
"168 10 CURVE SMOOTH",
"199 -2 OFFCURVE",
"231 -7 OFFCURVE",
"267 -7 CURVE SMOOTH",
"285 -7 OFFCURVE",
"304 -6 OFFCURVE",
"323 -3 CURVE SMOOTH",
"342 0 OFFCURVE",
"361 4 OFFCURVE",
"380 10 CURVE SMOOTH",
"398 16 OFFCURVE",
"416 25 OFFCURVE",
"433 36 CURVE SMOOTH",
"450 47 OFFCURVE",
"465 61 OFFCURVE",
"479 77 CURVE",
"443 122 LINE SMOOTH",
"440 126 OFFCURVE",
"438 128 OFFCURVE",
"434 130 CURVE SMOOTH",
"430 132 OFFCURVE",
"425 133 OFFCURVE",
"420 133 CURVE SMOOTH",
"412 133 OFFCURVE",
"405 131 OFFCURVE",
"397 126 CURVE SMOOTH",
"389 121 OFFCURVE",
"379 117 OFFCURVE",
"368 111 CURVE SMOOTH",
"357 105 OFFCURVE",
"345 100 OFFCURVE",
"330 95 CURVE SMOOTH",
"316 90 OFFCURVE",
"299 88 OFFCURVE",
"279 88 CURVE SMOOTH",
"238 88 OFFCURVE",
"206 100 OFFCURVE",
"181 125 CURVE SMOOTH",
"156 150 OFFCURVE",
"142 188 OFFCURVE",
"138 241 CURVE",
"455 241 LINE SMOOTH",
"461 241 OFFCURVE",
"465 241 OFFCURVE",
"469 243 CURVE SMOOTH",
"473 245 OFFCURVE",
"476 247 OFFCURVE",
"478 251 CURVE",
"480 254 OFFCURVE",
"481 259 OFFCURVE",
"482 265 CURVE SMOOTH",
"483 271 OFFCURVE",
"484 280 OFFCURVE",
"484 289 CURVE SMOOTH",
"484 326 OFFCURVE",
"478 358 OFFCURVE",
"467 387 CURVE SMOOTH",
"456 416 OFFCURVE",
"441 440 OFFCURVE",
"421 460 CURVE SMOOTH",
"401 480 OFFCURVE",
"378 496 OFFCURVE",
"351 506 CURVE SMOOTH",
"324 516 OFFCURVE",
"294 521 OFFCURVE",
"262 521 CURVE SMOOTH"
);
},
{
closed = 1;
nodes = (
"282 433 OFFCURVE",
"298 429 OFFCURVE",
"312 423 CURVE SMOOTH",
"326 417 OFFCURVE",
"337 409 OFFCURVE",
"346 398 CURVE SMOOTH",
"355 387 OFFCURVE",
"362 375 OFFCURVE",
"366 361 CURVE SMOOTH",
"370 347 OFFCURVE",
"373 332 OFFCURVE",
"373 316 CURVE",
"141 316 LINE",
"147 353 OFFCURVE",
"160 382 OFFCURVE",
"180 402 CURVE SMOOTH",
"200 422 OFFCURVE",
"228 433 OFFCURVE",
"264 433 CURVE SMOOTH"
);
}
);
width = 499;
}
);
leftKerningGroup = c;
note = e;
rightKerningGroup = e;
unicode = 0065;
},
{
glyphname = f;
lastChange = "2017-01-26 14:17:26 +0000";
layers = (
{
anchors = (
{
name = bottom;
position = "{184, 0}";
},
{
name = top;
position = "{184, 513}";
}
);
layerId = "394C4E3B-EB1E-48D6-87F8-186C851DDDB0";
paths = (
{
closed = 1;
nodes = (
"224 603 OFFCURVE",
"230 613 OFFCURVE",
"238 621 CURVE SMOOTH",
"246 629 OFFCURVE",
"256 635 OFFCURVE",
"267 638 CURVE SMOOTH",
"278 641 OFFCURVE",
"291 642 OFFCURVE",
"306 642 CURVE SMOOTH",
"317 642 OFFCURVE",
"327 644 OFFCURVE",
"335 646 CURVE SMOOTH",
"343 648 OFFCURVE",
"348 654 OFFCURVE",
"349 664 CURVE",
"351 726 LINE",
"331 732 OFFCURVE",
"309 735 OFFCURVE",
"285 735 CURVE SMOOTH",
"255 735 OFFCURVE",
"229 731 OFFCURVE",
"205 722 CURVE SMOOTH",
"181 713 OFFCURVE",
"162 701 OFFCURVE",
"145 685 CURVE SMOOTH",
"128 669 OFFCURVE",
"116 648 OFFCURVE",
"107 625 CURVE SMOOTH",
"98 602 OFFCURVE",
"94 575 OFFCURVE",
"94 546 CURVE SMOOTH",
"94 508 LINE",
"18 508 LINE",
"18 458 LINE SMOOTH",
"18 449 OFFCURVE",
"20 442 OFFCURVE",
"26 437 CURVE SMOOTH",
"32 432 OFFCURVE",
"40 429 OFFCURVE",
"50 427 CURVE",
"94 420 LINE",
"94 99 LINE",
"82 97 OFFCURVE",
"72 95 OFFCURVE",
"65 94 CURVE SMOOTH",
"58 93 OFFCURVE",
"53 92 OFFCURVE",
"50 91 CURVE SMOOTH",
"47 90 OFFCURVE",
"44 90 OFFCURVE",
"43 90 CURVE",
"26 86 OFFCURVE",
"18 76 OFFCURVE",
"18 59 CURVE SMOOTH",
"18 0 LINE",
"94 0 LINE",
"217 0 LINE",
"218 0 LINE",
"299 0 LINE",
"299 59 LINE SMOOTH",
"299 76 OFFCURVE",
"291 86 OFFCURVE",
"274 90 CURVE",
"273 90 OFFCURVE",
"270 91 OFFCURVE",
"266 91 CURVE SMOOTH",
"262 91 OFFCURVE",
"256 93 OFFCURVE",
"248 94 CURVE SMOOTH",
"240 95 OFFCURVE",
"230 97 OFFCURVE",
"218 99 CURVE",
"218 421 LINE",
"347 421 LINE",
"347 509 LINE",
"213 509 LINE",
"213 543 LINE SMOOTH",
"213 562 OFFCURVE",
"216 577 OFFCURVE",
"220 590 CURVE SMOOTH"
);
}
);
width = 368;
}
);
note = f;
unicode = 0066;
},
{
glyphname = g;
lastChange = "2017-01-26 15:47:28 +0000";
layers = (
{
anchors = (
{
name = bottom;
position = "{258, 0}";
},
{
name = top;
position = "{258, 513}";
}
);
layerId = "394C4E3B-EB1E-48D6-87F8-186C851DDDB0";
paths = (
{
closed = 1;
nodes = (
"210 522 OFFCURVE",
"182 518 OFFCURVE",
"157 510 CURVE SMOOTH",
"132 502 OFFCURVE",
"111 491 OFFCURVE",
"93 477 CURVE SMOOTH",
"75 463 OFFCURVE",
"60 445 OFFCURVE",
"50 425 CURVE SMOOTH",
"40 405 OFFCURVE",
"35 381 OFFCURVE",
"35 356 CURVE SMOOTH",
"35 325 OFFCURVE",
"42 297 OFFCURVE",
"57 274 CURVE SMOOTH",
"72 251 OFFCURVE",
"93 232 OFFCURVE",
"119 218 CURVE",
"108 212 OFFCURVE",
"97 206 OFFCURVE",
"89 199 CURVE SMOOTH",
"81 192 OFFCURVE",
"74 184 OFFCURVE",
"68 176 CURVE SMOOTH",
"62 168 OFFCURVE",
"59 160 OFFCURVE",
"56 152 CURVE SMOOTH",
"53 144 OFFCURVE",
"52 136 OFFCURVE",
"52 128 CURVE SMOOTH",
"52 109 OFFCURVE",
"56 94 OFFCURVE",
"64 82 CURVE SMOOTH",
"72 70 OFFCURVE",
"81 61 OFFCURVE",
"94 54 CURVE",
"68 44 OFFCURVE",
"48 32 OFFCURVE",
"33 16 CURVE SMOOTH",
"18 0 OFFCURVE",
"11 -21 OFFCURVE",
"11 -45 CURVE SMOOTH",
"11 -63 OFFCURVE",
"16 -80 OFFCURVE",
"25 -96 CURVE SMOOTH",
"34 -112 OFFCURVE",
"48 -127 OFFCURVE",
"67 -139 CURVE SMOOTH",
"86 -151 OFFCURVE",
"109 -161 OFFCURVE",
"138 -169 CURVE SMOOTH",
"167 -177 OFFCURVE",
"201 -180 OFFCURVE",
"240 -180 CURVE SMOOTH",
"279 -180 OFFCURVE",
"314 -175 OFFCURVE",
"345 -165 CURVE SMOOTH",
"376 -155 OFFCURVE",
"402 -142 OFFCURVE",
"423 -125 CURVE SMOOTH",
"444 -108 OFFCURVE",
"460 -89 OFFCURVE",
"471 -68 CURVE SMOOTH",
"482 -47 OFFCURVE",
"488 -25 OFFCURVE",
"488 -2 CURVE SMOOTH",
"488 22 OFFCURVE",
"484 42 OFFCURVE",
"474 58 CURVE SMOOTH",
"464 74 OFFCURVE",
"452 85 OFFCURVE",
"436 94 CURVE SMOOTH",
"420 103 OFFCURVE",
"404 110 OFFCURVE",
"384 114 CURVE SMOOTH",
"364 118 OFFCURVE",
"344 121 OFFCURVE",
"323 123 CURVE SMOOTH",
"302 125 OFFCURVE",
"283 125 OFFCURVE",
"263 126 CURVE",
"243 126 OFFCURVE",
"226 128 OFFCURVE",
"210 130 CURVE SMOOTH",
"194 132 OFFCURVE",
"182 135 OFFCURVE",
"172 140 CURVE SMOOTH",
"162 145 OFFCURVE",
"158 153 OFFCURVE",
"158 163 CURVE SMOOTH",
"158 175 OFFCURVE",
"166 185 OFFCURVE",
"182 195 CURVE",
"200 191 OFFCURVE",
"220 190 OFFCURVE",
"239 190 CURVE SMOOTH",
"268 190 OFFCURVE",
"294 194 OFFCURVE",
"318 202 CURVE SMOOTH",
"342 210 OFFCURVE",
"364 221 OFFCURVE",
"382 235 CURVE SMOOTH",
"400 249 OFFCURVE",
"414 267 OFFCURVE",
"424 287 CURVE SMOOTH",
"434 307 OFFCURVE",
"439 331 OFFCURVE",
"439 356 CURVE SMOOTH",
"439 367 OFFCURVE",
"438 376 OFFCURVE",
"436 386 CURVE SMOOTH",
"434 396 OFFCURVE",
"432 405 OFFCURVE",
"429 414 CURVE",
"475 422 LINE SMOOTH",
"485 424 OFFCURVE",
"491 427 OFFCURVE",
"495 431 CURVE SMOOTH",
"499 435 OFFCURVE",
"501 441 OFFCURVE",
"501 449 CURVE SMOOTH",
"501 495 LINE",
"354 495 LINE",
"338 504 OFFCURVE",
"320 511 OFFCURVE",
"301 515 CURVE SMOOTH",
"282 519 OFFCURVE",
"261 522 OFFCURVE",
"239 522 CURVE SMOOTH"
);
},
{
closed = 1;
nodes = (
"374 -33 OFFCURVE",
"372 -43 OFFCURVE",
"367 -51 CURVE SMOOTH",
"362 -59 OFFCURVE",
"354 -67 OFFCURVE",
"343 -73 CURVE SMOOTH",
"332 -79 OFFCURVE",
"319 -83 OFFCURVE",
"302 -87 CURVE SMOOTH",
"285 -91 OFFCURVE",
"265 -93 OFFCURVE",
"242 -93 CURVE SMOOTH",
"219 -93 OFFCURVE",
"201 -91 OFFCURVE",
"185 -88 CURVE SMOOTH",
"169 -85 OFFCURVE",
"156 -81 OFFCURVE",
"146 -75 CURVE SMOOTH",
"136 -69 OFFCURVE",
"129 -62 OFFCURVE",
"125 -54 CURVE SMOOTH",
"121 -46 OFFCURVE",
"118 -38 OFFCURVE",
"118 -29 CURVE SMOOTH",
"118 -15 OFFCURVE",
"123 -3 OFFCURVE",
"131 7 CURVE SMOOTH",
"139 17 OFFCURVE",
"151 26 OFFCURVE",
"165 34 CURVE",
"180 32 OFFCURVE",
"196 31 OFFCURVE",
"212 30 CURVE SMOOTH",
"228 29 OFFCURVE",
"244 29 OFFCURVE",
"260 28 CURVE SMOOTH",
"276 27 OFFCURVE",
"290 26 OFFCURVE",
"304 24 CURVE SMOOTH",
"318 22 OFFCURVE",
"331 20 OFFCURVE",
"341 16 CURVE SMOOTH",
"351 12 OFFCURVE",
"359 7 OFFCURVE",
"365 1 CURVE SMOOTH",
"371 -5 OFFCURVE",
"374 -13 OFFCURVE",
"374 -23 CURVE SMOOTH"
);
},
{
closed = 1;
nodes = (
"224 269 OFFCURVE",
"211 271 OFFCURVE",
"199 275 CURVE SMOOTH",
"187 279 OFFCURVE",
"178 285 OFFCURVE",
"170 293 CURVE SMOOTH",
"162 301 OFFCURVE",
"157 309 OFFCURVE",
"153 319 CURVE SMOOTH",
"149 329 OFFCURVE",
"148 341 OFFCURVE",
"148 353 CURVE SMOOTH",
"148 378 OFFCURVE",
"155 398 OFFCURVE",
"170 413 CURVE SMOOTH",
"185 428 OFFCURVE",
"209 435 OFFCURVE",
"239 435 CURVE SMOOTH",
"269 435 OFFCURVE",
"292 428 OFFCURVE",
"307 413 CURVE SMOOTH",
"322 398 OFFCURVE",
"330 378 OFFCURVE",
"330 353 CURVE SMOOTH",
"330 341 OFFCURVE",
"328 329 OFFCURVE",
"324 319 CURVE SMOOTH",
"320 309 OFFCURVE",
"315 299 OFFCURVE",
"307 292 CURVE",
"300 285 OFFCURVE",
"290 279 OFFCURVE",
"279 275 CURVE SMOOTH",
"268 271 OFFCURVE",
"254 269 OFFCURVE",
"239 269 CURVE SMOOTH"
);
}
);
width = 516;
}
);
leftKerningGroup = c;
note = g;
rightKerningGroup = g;
unicode = 0067;
},
{
glyphname = h;
lastChange = "2017-01-26 14:17:26 +0000";
layers = (
{
anchors = (
{
name = bottom;
position = "{318, 0}";
},
{
name = center;
position = "{318, 257}";
},
{
name = top;
position = "{318, 513}";
}
);
layerId = "394C4E3B-EB1E-48D6-87F8-186C851DDDB0";
paths = (
{
closed = 1;
nodes = (
"591 90 OFFCURVE",
"589 90 OFFCURVE",
"586 91 CURVE SMOOTH",
"583 92 OFFCURVE",
"578 93 OFFCURVE",
"571 94 CURVE SMOOTH",
"564 95 OFFCURVE",
"554 97 OFFCURVE",
"542 99 CURVE",
"542 327 LINE SMOOTH",
"542 356 OFFCURVE",
"537 381 OFFCURVE",
"530 405 CURVE",
"522 429 OFFCURVE",
"511 450 OFFCURVE",
"497 467 CURVE SMOOTH",
"482 484 OFFCURVE",
"465 498 OFFCURVE",
"443 507 CURVE SMOOTH",
"421 516 OFFCURVE",
"397 521 OFFCURVE",
"369 521 CURVE SMOOTH",
"337 521 OFFCURVE",
"308 515 OFFCURVE",
"284 503 CURVE SMOOTH",
"260 491 OFFCURVE",
"238 476 OFFCURVE",
"218 457 CURVE",
"218 743 LINE",
"95 743 LINE",
"19 743 LINE",
"19 684 LINE SMOOTH",
"19 667 OFFCURVE",
"27 657 OFFCURVE",
"44 653 CURVE",
"45 653 OFFCURVE",
"47 652 OFFCURVE",
"50 652 CURVE SMOOTH",
"53 652 OFFCURVE",
"58 650 OFFCURVE",
"65 649 CURVE SMOOTH",
"72 648 OFFCURVE",
"83 646 OFFCURVE",
"95 644 CURVE",
"95 99 LINE",
"83 97 OFFCURVE",
"72 95 OFFCURVE",
"65 94 CURVE SMOOTH",
"58 93 OFFCURVE",
"53 91 OFFCURVE",
"50 91 CURVE SMOOTH",
"47 91 OFFCURVE",
"45 90 OFFCURVE",
"44 90 CURVE",
"27 86 OFFCURVE",
"19 76 OFFCURVE",
"19 59 CURVE SMOOTH",
"19 0 LINE",
"95 0 LINE",
"218 0 LINE",
"294 0 LINE",
"294 59 LINE SMOOTH",
"294 76 OFFCURVE",
"286 86 OFFCURVE",
"269 90 CURVE",
"268 90 OFFCURVE",
"266 90 OFFCURVE",
"263 91 CURVE",
"260 91 OFFCURVE",
"255 93 OFFCURVE",
"248 94 CURVE SMOOTH",
"241 95 OFFCURVE",
"230 97 OFFCURVE",
"218 99 CURVE",
"218 371 LINE",
"235 388 OFFCURVE",
"252 400 OFFCURVE",
"271 410 CURVE SMOOTH",
"290 420 OFFCURVE",
"310 425 OFFCURVE",
"331 425 CURVE SMOOTH",
"360 425 OFFCURVE",
"382 416 OFFCURVE",
"396 399 CURVE SMOOTH",
"411 382 OFFCURVE",
"418 357 OFFCURVE",
"418 326 CURVE SMOOTH",
"418 0 LINE",
"542 0 LINE",
"617 0 LINE",
"617 59 LINE SMOOTH",
"617 76 OFFCURVE",
"609 86 OFFCURVE",
"592 90 CURVE"
);
}
);
width = 635;
}
);
note = h;
unicode = 0068;
},
{
glyphname = i;
lastChange = "2017-01-26 14:17:26 +0000";
layers = (
{
anchors = (
{
name = bottom;
position = "{155, 0}";
}
);
layerId = "394C4E3B-EB1E-48D6-87F8-186C851DDDB0";
paths = (
{
closed = 1;
nodes = (
"267 90 OFFCURVE",
"265 91 OFFCURVE",
"262 91 CURVE SMOOTH",
"259 91 OFFCURVE",
"254 93 OFFCURVE",
"247 94 CURVE SMOOTH",
"240 95 OFFCURVE",
"229 97 OFFCURVE",
"217 99 CURVE",
"217 513 LINE",
"94 513 LINE",
"18 513 LINE",
"18 454 LINE SMOOTH",
"18 437 OFFCURVE",
"26 427 OFFCURVE",
"43 423 CURVE",
"44 423 OFFCURVE",
"46 422 OFFCURVE",
"49 422 CURVE SMOOTH",
"52 422 OFFCURVE",
"57 420 OFFCURVE",
"64 419 CURVE SMOOTH",
"71 418 OFFCURVE",
"82 416 OFFCURVE",
"94 414 CURVE",
"94 99 LINE",
"82 97 OFFCURVE",
"71 95 OFFCURVE",
"64 94 CURVE SMOOTH",
"57 93 OFFCURVE",
"52 92 OFFCURVE",
"49 91 CURVE",
"46 91 OFFCURVE",
"44 90 OFFCURVE",
"43 90 CURVE",
"26 86 OFFCURVE",
"18 76 OFFCURVE",
"18 59 CURVE SMOOTH",
"18 0 LINE",
"94 0 LINE",
"217 0 LINE",
"293 0 LINE",
"293 59 LINE SMOOTH",
"293 76 OFFCURVE",
"285 86 OFFCURVE",
"268 90 CURVE"
);
},
{
closed = 1;
nodes = (
"236 674 OFFCURVE",
"233 684 OFFCURVE",
"229 694 CURVE SMOOTH",
"225 704 OFFCURVE",
"219 712 OFFCURVE",
"212 719 CURVE SMOOTH",
"205 726 OFFCURVE",
"197 731 OFFCURVE",
"187 735 CURVE SMOOTH",
"177 739 OFFCURVE",
"167 742 OFFCURVE",
"156 742 CURVE SMOOTH",
"145 742 OFFCURVE",
"135 739 OFFCURVE",
"125 735 CURVE SMOOTH",
"115 731 OFFCURVE",
"108 726 OFFCURVE",
"101 719 CURVE SMOOTH",
"94 712 OFFCURVE",
"88 704 OFFCURVE",
"84 694 CURVE SMOOTH",
"80 684 OFFCURVE",
"78 674 OFFCURVE",
"78 663 CURVE SMOOTH",
"78 652 OFFCURVE",
"80 642 OFFCURVE",
"84 633 CURVE SMOOTH",
"88 624 OFFCURVE",
"94 615 OFFCURVE",
"101 608 CURVE SMOOTH",
"108 601 OFFCURVE",
"115 595 OFFCURVE",
"125 591 CURVE SMOOTH",
"135 587 OFFCURVE",
"145 585 OFFCURVE",
"156 585 CURVE SMOOTH",
"167 585 OFFCURVE",
"177 587 OFFCURVE",
"187 591 CURVE SMOOTH",
"197 595 OFFCURVE",
"205 601 OFFCURVE",
"212 608 CURVE SMOOTH",
"219 615 OFFCURVE",
"225 624 OFFCURVE",
"229 633 CURVE SMOOTH",
"233 642 OFFCURVE",
"236 652 OFFCURVE",
"236 663 CURVE SMOOTH"
);
}
);
width = 310;
}
);
note = i;
unicode = 0069;
},
{
glyphname = j;
lastChange = "2017-01-26 15:47:28 +0000";
layers = (
{
layerId = "394C4E3B-EB1E-48D6-87F8-186C851DDDB0";
paths = (
{
closed = 1;
nodes = (
"246 703 OFFCURVE",
"239 711 OFFCURVE",
"232 718 CURVE SMOOTH",
"225 725 OFFCURVE",
"217 731 OFFCURVE",
"207 735 CURVE SMOOTH",
"197 739 OFFCURVE",
"187 741 OFFCURVE",
"176 741 CURVE SMOOTH",
"165 741 OFFCURVE",
"155 739 OFFCURVE",
"146 735 CURVE",
"136 731 OFFCURVE",
"128 725 OFFCURVE",
"121 718 CURVE SMOOTH",
"114 711 OFFCURVE",
"108 703 OFFCURVE",
"104 693 CURVE SMOOTH",
"100 683 OFFCURVE",
"98 673 OFFCURVE",
"98 662 CURVE SMOOTH",
"98 651 OFFCURVE",
"100 641 OFFCURVE",
"104 632 CURVE SMOOTH",
"108 623 OFFCURVE",
"114 615 OFFCURVE",
"121 608 CURVE SMOOTH",
"128 601 OFFCURVE",
"137 595 OFFCURVE",
"146 591 CURVE SMOOTH",
"155 587 OFFCURVE",
"165 585 OFFCURVE",
"176 585 CURVE SMOOTH",
"187 585 OFFCURVE",
"197 587 OFFCURVE",
"207 591 CURVE SMOOTH",
"217 595 OFFCURVE",
"225 601 OFFCURVE",
"232 608 CURVE SMOOTH",
"239 615 OFFCURVE",
"246 623 OFFCURVE",
"250 632 CURVE SMOOTH",
"254 641 OFFCURVE",
"256 651 OFFCURVE",
"256 662 CURVE SMOOTH",
"256 673 OFFCURVE",
"254 683 OFFCURVE",
"250 693 CURVE SMOOTH"
);
},
{
closed = 1;
nodes = (
"114 513 LINE",
"38 513 LINE",
"38 454 LINE SMOOTH",
"38 437 OFFCURVE",
"46 427 OFFCURVE",
"63 423 CURVE",
"65 423 OFFCURVE",
"67 422 OFFCURVE",
"70 422 CURVE SMOOTH",
"73 422 OFFCURVE",
"78 420 OFFCURVE",
"85 419 CURVE SMOOTH",
"92 418 OFFCURVE",
"102 416 OFFCURVE",
"114 414 CURVE",
"114 -17 LINE SMOOTH",
"114 -30 OFFCURVE",
"113 -42 OFFCURVE",
"111 -51 CURVE SMOOTH",
"109 -60 OFFCURVE",
"105 -68 OFFCURVE",
"100 -73 CURVE",
"95 -79 OFFCURVE",
"87 -83 OFFCURVE",
"79 -85 CURVE",
"71 -88 OFFCURVE",
"60 -88 OFFCURVE",
"48 -88 CURVE SMOOTH",
"36 -88 OFFCURVE",
"27 -89 OFFCURVE",
"23 -91 CURVE SMOOTH",
"19 -93 OFFCURVE",
"16 -97 OFFCURVE",
"15 -104 CURVE",
"11 -170 LINE",
"21 -173 OFFCURVE",
"32 -177 OFFCURVE",
"42 -178 CURVE SMOOTH",
"52 -179 OFFCURVE",
"62 -180 OFFCURVE",
"74 -180 CURVE SMOOTH",
"104 -180 OFFCURVE",
"129 -175 OFFCURVE",
"150 -167 CURVE SMOOTH",
"171 -159 OFFCURVE",
"188 -147 OFFCURVE",
"201 -132 CURVE SMOOTH",
"214 -117 OFFCURVE",
"223 -100 OFFCURVE",
"229 -80 CURVE SMOOTH",
"235 -60 OFFCURVE",
"237 -39 OFFCURVE",
"237 -17 CURVE SMOOTH",
"237 513 LINE"
);
}
);
width = 270;
}
);
leftKerningGroup = j;
note = j;
unicode = 006A;
},
{
glyphname = k;
lastChange = "2017-01-26 15:47:28 +0000";
layers = (
{
anchors = (
{
name = bottom;
position = "{303, 0}";
},
{
name = top;
position = "{303, 513}";
}
);
layerId = "394C4E3B-EB1E-48D6-87F8-186C851DDDB0";
paths = (
{
closed = 1;
nodes = (
"561 90 OFFCURVE",
"557 91 OFFCURVE",
"553 92 CURVE SMOOTH",
"549 93 OFFCURVE",
"542 93 OFFCURVE",
"532 94 CURVE SMOOTH",
"522 95 OFFCURVE",
"511 97 OFFCURVE",
"500 99 CURVE",
"397 249 LINE",
"392 257 OFFCURVE",
"386 264 OFFCURVE",
"381 271 CURVE SMOOTH",
"376 278 OFFCURVE",
"370 283 OFFCURVE",
"363 288 CURVE",
"370 292 OFFCURVE",
"376 297 OFFCURVE",
"382 303 CURVE SMOOTH",
"388 309 OFFCURVE",
"394 316 OFFCURVE",
"400 323 CURVE SMOOTH",
"476 415 LINE",
"486 416 OFFCURVE",
"494 418 OFFCURVE",
"503 419 CURVE SMOOTH",
"512 420 OFFCURVE",
"519 421 OFFCURVE",
"523 422 CURVE SMOOTH",
"527 423 OFFCURVE",
"529 423 OFFCURVE",
"531 423 CURVE",
"548 427 OFFCURVE",
"556 437 OFFCURVE",
"556 454 CURVE SMOOTH",
"556 513 LINE",
"556 513 LINE",
"446 513 LINE SMOOTH",
"443 513 OFFCURVE",
"440 513 OFFCURVE",
"436 512 CURVE",
"436 513 LINE",
"313 513 LINE",
"313 454 LINE SMOOTH",
"313 437 OFFCURVE",
"321 427 OFFCURVE",
"338 423 CURVE",
"339 423 OFFCURVE",
"342 422 OFFCURVE",
"347 421 CURVE",
"276 334 LINE SMOOTH",
"271 328 OFFCURVE",
"266 323 OFFCURVE",
"261 321 CURVE SMOOTH",
"256 319 OFFCURVE",
"249 318 OFFCURVE",
"241 318 CURVE SMOOTH",
"218 318 LINE",
"218 743 LINE",
"95 743 LINE",
"19 743 LINE",
"19 684 LINE SMOOTH",
"19 667 OFFCURVE",
"27 657 OFFCURVE",
"44 653 CURVE",
"45 653 OFFCURVE",
"47 652 OFFCURVE",
"50 652 CURVE SMOOTH",
"53 652 OFFCURVE",
"58 650 OFFCURVE",
"65 649 CURVE SMOOTH",
"72 648 OFFCURVE",
"83 646 OFFCURVE",
"95 644 CURVE",
"95 99 LINE",
"83 97 OFFCURVE",
"72 95 OFFCURVE",
"65 94 CURVE SMOOTH",
"58 93 OFFCURVE",
"53 91 OFFCURVE",
"50 91 CURVE SMOOTH",
"47 91 OFFCURVE",
"45 90 OFFCURVE",
"44 90 CURVE",
"27 86 OFFCURVE",
"19 76 OFFCURVE",
"19 59 CURVE SMOOTH",
"19 0 LINE",
"95 0 LINE",
"218 0 LINE",
"294 0 LINE",
"294 59 LINE SMOOTH",
"294 76 OFFCURVE",
"286 86 OFFCURVE",
"269 90 CURVE",
"268 90 OFFCURVE",
"266 91 OFFCURVE",
"263 91 CURVE",
"260 92 OFFCURVE",
"255 93 OFFCURVE",
"248 94 CURVE SMOOTH",
"241 95 OFFCURVE",
"230 97 OFFCURVE",
"218 99 CURVE",
"218 235 LINE",
"246 235 LINE SMOOTH",
"256 235 OFFCURVE",
"264 234 OFFCURVE",
"269 232 CURVE SMOOTH",
"274 230 OFFCURVE",
"279 225 OFFCURVE",
"284 217 CURVE SMOOTH",
"414 22 LINE SMOOTH",
"419 14 OFFCURVE",
"425 8 OFFCURVE",
"432 5 CURVE SMOOTH",
"439 2 OFFCURVE",
"447 0 OFFCURVE",
"457 0 CURVE SMOOTH",
"512 0 LINE",
"568 0 LINE",
"588 0 LINE",
"588 59 LINE SMOOTH",
"588 76 OFFCURVE",
"580 86 OFFCURVE",
"563 90 CURVE"
);
}
);
width = 606;
}
);
leftKerningGroup = k;
note = k;
rightKerningGroup = k;
unicode = 006B;
},
{
glyphname = l;
lastChange = "2017-01-26 14:17:26 +0000";
layers = (
{
anchors = (
{
name = bottom;
position = "{156, 0}";
},
{
name = center;
position = "{156, 257}";
},
{
name = top;
position = "{156, 513}";
},
{
name = topright;
position = "{291, 513}";
}
);
layerId = "394C4E3B-EB1E-48D6-87F8-186C851DDDB0";
paths = (
{
closed = 1;
nodes = (
"268 90 OFFCURVE",
"266 90 OFFCURVE",
"263 91 CURVE SMOOTH",
"260 92 OFFCURVE",
"255 93 OFFCURVE",
"248 94 CURVE SMOOTH",
"241 95 OFFCURVE",
"230 97 OFFCURVE",
"218 99 CURVE",
"218 743 LINE",
"95 743 LINE",
"19 743 LINE",
"19 684 LINE SMOOTH",
"19 667 OFFCURVE",
"27 657 OFFCURVE",
"44 653 CURVE",
"45 653 OFFCURVE",
"47 652 OFFCURVE",
"50 652 CURVE SMOOTH",
"53 652 OFFCURVE",
"58 650 OFFCURVE",
"65 649 CURVE SMOOTH",
"72 648 OFFCURVE",
"83 646 OFFCURVE",
"95 644 CURVE",
"95 99 LINE",
"83 97 OFFCURVE",
"72 95 OFFCURVE",
"65 94 CURVE SMOOTH",
"58 93 OFFCURVE",
"53 92 OFFCURVE",
"50 91 CURVE SMOOTH",
"47 90 OFFCURVE",
"45 90 OFFCURVE",
"44 90 CURVE",
"27 86 OFFCURVE",
"19 76 OFFCURVE",
"19 59 CURVE SMOOTH",
"19 0 LINE",
"95 0 LINE",
"218 0 LINE",
"294 0 LINE",
"294 59 LINE SMOOTH",
"294 76 OFFCURVE",
"286 86 OFFCURVE",
"269 90 CURVE"
);
}
);
width = 311;
}
);
note = l;
unicode = 006C;
},
{
glyphname = m;
lastChange = "2017-01-26 15:47:28 +0000";
layers = (
{
anchors = (
{
name = bottom;
position = "{455, 0}";
},
{
name = top;
position = "{455, 513}";
}
);
layerId = "394C4E3B-EB1E-48D6-87F8-186C851DDDB0";
paths = (
{
closed = 1;
nodes = (
"865 90 OFFCURVE",
"863 91 OFFCURVE",
"860 91 CURVE SMOOTH",
"857 91 OFFCURVE",
"852 93 OFFCURVE",
"845 94 CURVE SMOOTH",
"838 95 OFFCURVE",
"828 97 OFFCURVE",
"816 99 CURVE",
"816 326 LINE SMOOTH",
"816 357 OFFCURVE",
"812 385 OFFCURVE",
"804 409 CURVE SMOOTH",
"796 433 OFFCURVE",
"785 453 OFFCURVE",
"770 470 CURVE SMOOTH",
"755 487 OFFCURVE",
"736 499 OFFCURVE",
"714 508 CURVE SMOOTH",
"692 517 OFFCURVE",
"667 521 OFFCURVE",
"639 521 CURVE SMOOTH",
"623 521 OFFCURVE",
"606 519 OFFCURVE",
"590 515 CURVE SMOOTH",
"574 511 OFFCURVE",
"558 506 OFFCURVE",
"544 498 CURVE SMOOTH",
"530 490 OFFCURVE",
"517 481 OFFCURVE",
"505 469 CURVE SMOOTH",
"493 457 OFFCURVE",
"483 442 OFFCURVE",
"475 425 CURVE",
"465 454 OFFCURVE",
"449 477 OFFCURVE",
"428 495 CURVE SMOOTH",
"407 513 OFFCURVE",
"380 521 OFFCURVE",
"348 521 CURVE SMOOTH",
"333 521 OFFCURVE",
"319 520 OFFCURVE",
"306 516 CURVE SMOOTH",
"293 512 OFFCURVE",
"281 507 OFFCURVE",
"270 501 CURVE SMOOTH",
"259 495 OFFCURVE",
"248 488 OFFCURVE",
"238 480 CURVE SMOOTH",
"228 472 OFFCURVE",
"219 462 OFFCURVE",
"210 452 CURVE",
"202 490 LINE",
"197 505 OFFCURVE",
"187 513 OFFCURVE",
"171 513 CURVE SMOOTH",
"95 513 LINE",
"19 513 LINE",
"19 454 LINE SMOOTH",
"19 437 OFFCURVE",
"28 427 OFFCURVE",
"45 423 CURVE",
"46 423 OFFCURVE",
"48 422 OFFCURVE",
"51 422 CURVE SMOOTH",
"54 422 OFFCURVE",
"59 420 OFFCURVE",
"66 419 CURVE SMOOTH",
"73 418 OFFCURVE",
"83 416 OFFCURVE",
"95 414 CURVE",
"95 99 LINE",
"83 97 OFFCURVE",
"73 95 OFFCURVE",
"66 94 CURVE SMOOTH",
"59 93 OFFCURVE",
"54 91 OFFCURVE",
"51 91 CURVE SMOOTH",
"48 91 OFFCURVE",
"46 90 OFFCURVE",
"45 90 CURVE",
"28 86 OFFCURVE",
"20 76 OFFCURVE",
"20 59 CURVE SMOOTH",
"20 0 LINE",
"95 0 LINE",
"219 0 LINE",
"294 0 LINE",
"294 59 LINE SMOOTH",
"294 76 OFFCURVE",
"286 86 OFFCURVE",
"269 90 CURVE",
"268 90 OFFCURVE",
"266 90 OFFCURVE",
"263 91 CURVE SMOOTH",
"260 92 OFFCURVE",
"255 93 OFFCURVE",
"248 94 CURVE SMOOTH",
"241 95 OFFCURVE",
"231 97 OFFCURVE",
"219 99 CURVE",
"219 375 LINE",
"232 390 OFFCURVE",
"246 403 OFFCURVE",
"262 412 CURVE SMOOTH",
"278 421 OFFCURVE",
"294 425 OFFCURVE",
"312 425 CURVE SMOOTH",
"339 425 OFFCURVE",
"359 417 OFFCURVE",
"373 401 CURVE SMOOTH",
"387 385 OFFCURVE",
"394 360 OFFCURVE",
"394 326 CURVE SMOOTH",
"394 0 LINE",
"518 0 LINE",
"593 0 LINE",
"593 59 LINE SMOOTH",
"593 76 OFFCURVE",
"585 86 OFFCURVE",
"568 90 CURVE",
"567 90 OFFCURVE",
"565 90 OFFCURVE",
"562 91 CURVE SMOOTH",
"559 92 OFFCURVE",
"554 93 OFFCURVE",
"547 94 CURVE SMOOTH",
"540 95 OFFCURVE",
"531 97 OFFCURVE",
"518 99 CURVE",
"518 326 LINE SMOOTH",
"518 342 OFFCURVE",
"520 357 OFFCURVE",
"525 369 CURVE SMOOTH",
"530 381 OFFCURVE",
"536 392 OFFCURVE",
"544 400 CURVE SMOOTH",
"552 408 OFFCURVE",
"561 414 OFFCURVE",
"572 418 CURVE SMOOTH",
"583 422 OFFCURVE",
"595 425 OFFCURVE",
"608 425 CURVE SMOOTH",
"636 425 OFFCURVE",
"657 417 OFFCURVE",
"671 400 CURVE SMOOTH",
"685 384 OFFCURVE",
"692 359 OFFCURVE",
"692 326 CURVE SMOOTH",
"692 0 LINE",
"816 0 LINE",
"891 0 LINE",
"891 59 LINE SMOOTH",
"891 76 OFFCURVE",
"883 86 OFFCURVE",
"866 90 CURVE"
);
}
);
width = 910;
}
);
leftKerningGroup = k;
note = m;
unicode = 006D;
},
{
glyphname = n;
lastChange = "2017-01-26 15:47:28 +0000";
layers = (
{
anchors = (
{
name = bottom;
position = "{318, 0}";
},
{
name = top;
position = "{318, 513}";
}
);
layerId = "394C4E3B-EB1E-48D6-87F8-186C851DDDB0";
paths = (
{
closed = 1;
nodes = (
"592 90 OFFCURVE",
"590 91 OFFCURVE",
"587 91 CURVE SMOOTH",
"584 91 OFFCURVE",
"579 93 OFFCURVE",
"572 94 CURVE SMOOTH",
"565 95 OFFCURVE",
"554 97 OFFCURVE",
"542 99 CURVE",
"542 326 LINE SMOOTH",
"542 355 OFFCURVE",
"539 381 OFFCURVE",
"531 405 CURVE SMOOTH",
"523 429 OFFCURVE",
"512 450 OFFCURVE",
"498 467 CURVE SMOOTH",
"483 484 OFFCURVE",
"466 498 OFFCURVE",
"444 507 CURVE",
"422 517 OFFCURVE",
"397 521 OFFCURVE",
"369 521 CURVE SMOOTH",
"352 521 OFFCURVE",
"336 519 OFFCURVE",
"321 516 CURVE SMOOTH",
"306 513 OFFCURVE",
"293 507 OFFCURVE",
"280 501 CURVE SMOOTH",
"267 495 OFFCURVE",
"254 488 OFFCURVE",
"243 479 CURVE",
"231 470 OFFCURVE",
"221 461 OFFCURVE",
"211 450 CURVE",
"202 490 LINE",
"197 505 OFFCURVE",
"187 513 OFFCURVE",
"171 513 CURVE SMOOTH",
"95 513 LINE",
"20 513 LINE",
"20 454 LINE SMOOTH",
"20 437 OFFCURVE",
"28 427 OFFCURVE",
"45 423 CURVE",
"46 423 OFFCURVE",
"48 423 OFFCURVE",
"51 422 CURVE",
"54 422 OFFCURVE",
"59 420 OFFCURVE",
"66 419 CURVE SMOOTH",
"73 418 OFFCURVE",
"83 416 OFFCURVE",
"95 414 CURVE",
"95 99 LINE",
"83 97 OFFCURVE",
"73 95 OFFCURVE",
"66 94 CURVE SMOOTH",
"59 93 OFFCURVE",
"54 92 OFFCURVE",
"51 91 CURVE",
"48 91 OFFCURVE",
"46 90 OFFCURVE",
"45 90 CURVE",
"28 86 OFFCURVE",
"20 76 OFFCURVE",
"20 59 CURVE SMOOTH",
"20 0 LINE",
"95 0 LINE",
"219 0 LINE",
"294 0 LINE",
"294 59 LINE SMOOTH",
"294 76 OFFCURVE",
"286 86 OFFCURVE",
"269 90 CURVE",
"268 90 OFFCURVE",
"266 90 OFFCURVE",
"263 91 CURVE SMOOTH",
"260 92 OFFCURVE",
"255 93 OFFCURVE",
"248 94 CURVE SMOOTH",
"241 95 OFFCURVE",
"231 97 OFFCURVE",
"219 99 CURVE",
"219 371 LINE",
"236 388 OFFCURVE",
"253 400 OFFCURVE",
"272 410 CURVE SMOOTH",
"291 420 OFFCURVE",
"311 425 OFFCURVE",
"332 425 CURVE SMOOTH",
"361 425 OFFCURVE",
"383 416 OFFCURVE",
"397 399 CURVE SMOOTH",
"411 382 OFFCURVE",
"419 357 OFFCURVE",
"419 326 CURVE SMOOTH",
"419 0 LINE",
"542 0 LINE",
"618 0 LINE",
"618 59 LINE SMOOTH",
"618 76 OFFCURVE",
"610 86 OFFCURVE",
"593 90 CURVE"
);
}
);
width = 636;
}
);
leftKerningGroup = k;
note = n;
unicode = 006E;
},
{
glyphname = o;
lastChange = "2017-01-26 15:47:28 +0000";
layers = (
{
anchors = (
{
name = bottom;
position = "{269, 0}";
},
{
name = center;
position = "{269, 257}";
},
{
name = ogonek;
position = "{484, 10}";
},
{
name = top;
position = "{269, 513}";
},
{
name = topright;
position = "{518, 513}";
}
);
layerId = "394C4E3B-EB1E-48D6-87F8-186C851DDDB0";
paths = (
{
closed = 1;
nodes = (
"232 521 OFFCURVE",
"196 514 OFFCURVE",
"165 502 CURVE SMOOTH",
"134 490 OFFCURVE",
"107 473 OFFCURVE",
"85 450 CURVE SMOOTH",
"63 427 OFFCURVE",
"45 400 OFFCURVE",
"33 367 CURVE SMOOTH",
"21 334 OFFCURVE",
"15 298 OFFCURVE",
"15 258 CURVE SMOOTH",
"15 217 OFFCURVE",
"21 181 OFFCURVE",
"33 148 CURVE SMOOTH",
"45 115 OFFCURVE",
"63 87 OFFCURVE",
"85 64 CURVE SMOOTH",
"107 41 OFFCURVE",
"134 23 OFFCURVE",
"165 11 CURVE SMOOTH",
"196 -1 OFFCURVE",
"232 -7 OFFCURVE",
"270 -7 CURVE SMOOTH",
"308 -7 OFFCURVE",
"343 -1 OFFCURVE",
"374 11 CURVE SMOOTH",
"405 23 OFFCURVE",
"432 41 OFFCURVE",
"454 64 CURVE SMOOTH",
"476 87 OFFCURVE",
"492 115 OFFCURVE",
"504 148 CURVE SMOOTH",
"516 181 OFFCURVE",
"522 217 OFFCURVE",
"522 258 CURVE SMOOTH",
"522 298 OFFCURVE",
"516 334 OFFCURVE",
"504 367 CURVE SMOOTH",
"492 400 OFFCURVE",
"476 427 OFFCURVE",
"454 450 CURVE SMOOTH",
"432 473 OFFCURVE",
"405 490 OFFCURVE",
"374 502 CURVE SMOOTH",
"343 514 OFFCURVE",
"308 521 OFFCURVE",
"270 521 CURVE SMOOTH"
);
},
{
closed = 1;
nodes = (
"227 88 OFFCURVE",
"195 102 OFFCURVE",
"174 131 CURVE SMOOTH",
"153 160 OFFCURVE",
"142 201 OFFCURVE",
"142 256 CURVE SMOOTH",
"142 311 OFFCURVE",
"153 354 OFFCURVE",
"174 383 CURVE SMOOTH",
"195 412 OFFCURVE",
"227 427 OFFCURVE",
"270 427 CURVE SMOOTH",
"313 427 OFFCURVE",
"344 412 OFFCURVE",
"364 383 CURVE SMOOTH",
"384 354 OFFCURVE",
"395 312 OFFCURVE",
"395 257 CURVE SMOOTH",
"395 202 OFFCURVE",
"384 160 OFFCURVE",
"364 131 CURVE SMOOTH",
"344 102 OFFCURVE",
"313 88 OFFCURVE",
"270 88 CURVE SMOOTH"
);
}
);
width = 538;
}
);
leftKerningGroup = c;
note = o;
rightKerningGroup = b;
unicode = 006F;
},
{
glyphname = p;
lastChange = "2017-01-26 14:17:26 +0000";
layers = (
{
anchors = (
{
name = bottom;
position = "{289, 0}";
},
{
name = top;
position = "{289, 513}";
}
);
layerId = "394C4E3B-EB1E-48D6-87F8-186C851DDDB0";
paths = (
{
closed = 1;
nodes = (
"538 404 OFFCURVE",
"525 432 OFFCURVE",
"508 454 CURVE SMOOTH",
"491 476 OFFCURVE",
"471 493 OFFCURVE",
"448 505 CURVE SMOOTH",
"425 517 OFFCURVE",
"399 522 OFFCURVE",
"371 522 CURVE SMOOTH",
"335 522 OFFCURVE",
"304 515 OFFCURVE",
"277 500 CURVE SMOOTH",
"250 485 OFFCURVE",
"227 467 OFFCURVE",
"206 443 CURVE",
"196 490 LINE",
"194 498 OFFCURVE",
"191 503 OFFCURVE",
"185 507 CURVE SMOOTH",
"179 511 OFFCURVE",
"172 513 OFFCURVE",
"164 513 CURVE SMOOTH",
"89 513 LINE",
"13 513 LINE",
"13 454 LINE SMOOTH",
"13 437 OFFCURVE",
"21 427 OFFCURVE",
"38 423 CURVE",
"39 423 OFFCURVE",
"41 422 OFFCURVE",
"44 422 CURVE SMOOTH",
"47 422 OFFCURVE",
"52 420 OFFCURVE",
"59 419 CURVE SMOOTH",
"66 418 OFFCURVE",
"77 416 OFFCURVE",
"89 414 CURVE",
"89 -68 LINE",
"77 -70 OFFCURVE",
"66 -73 OFFCURVE",
"59 -74 CURVE SMOOTH",
"52 -75 OFFCURVE",
"47 -76 OFFCURVE",
"44 -76 CURVE SMOOTH",
"41 -76 OFFCURVE",
"39 -77 OFFCURVE",
"38 -77 CURVE",
"21 -81 OFFCURVE",
"13 -92 OFFCURVE",
"13 -109 CURVE SMOOTH",
"13 -167 LINE",
"89 -167 LINE",
"212 -167 LINE",
"288 -167 LINE",
"288 -109 LINE SMOOTH",
"288 -92 OFFCURVE",
"280 -81 OFFCURVE",
"263 -77 CURVE",
"262 -77 OFFCURVE",
"260 -77 OFFCURVE",
"257 -76 CURVE SMOOTH",
"254 -75 OFFCURVE",
"249 -75 OFFCURVE",
"242 -74 CURVE SMOOTH",
"235 -73 OFFCURVE",
"225 -70 OFFCURVE",
"212 -68 CURVE",
"212 43 LINE",
"228 27 OFFCURVE",
"247 15 OFFCURVE",
"267 6 CURVE SMOOTH",
"287 -3 OFFCURVE",
"311 -7 OFFCURVE",
"340 -7 CURVE SMOOTH",
"374 -7 OFFCURVE",
"405 -1 OFFCURVE",
"432 13 CURVE SMOOTH",
"459 27 OFFCURVE",
"482 45 OFFCURVE",
"501 69 CURVE SMOOTH",
"520 93 OFFCURVE",
"535 121 OFFCURVE",
"545 154 CURVE SMOOTH",
"555 187 OFFCURVE",
"561 223 OFFCURVE",
"561 261 CURVE SMOOTH",
"561 303 OFFCURVE",
"556 339 OFFCURVE",
"547 372 CURVE SMOOTH"
);
},
{
closed = 1;
nodes = (
"419 161 OFFCURVE",
"410 143 OFFCURVE",
"400 129 CURVE",
"389 115 OFFCURVE",
"377 104 OFFCURVE",
"362 97 CURVE SMOOTH",
"347 90 OFFCURVE",
"330 87 OFFCURVE",
"311 87 CURVE SMOOTH",
"292 87 OFFCURVE",
"274 90 OFFCURVE",
"258 97 CURVE SMOOTH",
"242 104 OFFCURVE",
"226 116 OFFCURVE",
"212 133 CURVE",
"212 363 LINE",
"228 383 OFFCURVE",
"245 398 OFFCURVE",
"263 409 CURVE SMOOTH",
"281 420 OFFCURVE",
"303 425 OFFCURVE",
"329 425 CURVE SMOOTH",
"345 425 OFFCURVE",
"359 422 OFFCURVE",
"372 416 CURVE SMOOTH",
"385 410 OFFCURVE",
"396 400 OFFCURVE",
"405 387 CURVE SMOOTH",
"414 374 OFFCURVE",
"421 358 OFFCURVE",
"426 337 CURVE SMOOTH",
"431 316 OFFCURVE",
"433 290 OFFCURVE",
"433 260 CURVE SMOOTH",
"433 230 OFFCURVE",
"431 205 OFFCURVE",
"425 183 CURVE SMOOTH"
);
}
);
width = 577;
}
);
note = p;
unicode = 0070;
},
{
glyphname = q;
lastChange = "2017-01-26 15:47:28 +0000";
layers = (
{
anchors = (
{
name = bottom;
position = "{289, 0}";
},
{
name = top;
position = "{289, 513}";
}
);
layerId = "394C4E3B-EB1E-48D6-87F8-186C851DDDB0";
paths = (
{
closed = 1;
nodes = (
"541 -78 OFFCURVE",
"537 -77 OFFCURVE",
"534 -77 CURVE SMOOTH",
"531 -77 OFFCURVE",
"526 -75 OFFCURVE",
"518 -74 CURVE SMOOTH",
"510 -73 OFFCURVE",
"499 -71 OFFCURVE",
"487 -69 CURVE",
"487 333 LINE",
"487 494 LINE",
"393 513 OFFCURVE",
"309 522 OFFCURVE",
"235 522 CURVE SMOOTH",
"201 522 OFFCURVE",
"171 516 OFFCURVE",
"144 502 CURVE SMOOTH",
"117 489 OFFCURVE",
"94 469 OFFCURVE",
"75 445 CURVE SMOOTH",
"56 421 OFFCURVE",
"40 393 OFFCURVE",
"30 360 CURVE SMOOTH",
"20 327 OFFCURVE",
"15 292 OFFCURVE",
"15 254 CURVE SMOOTH",
"15 212 OFFCURVE",
"20 174 OFFCURVE",
"29 142 CURVE SMOOTH",
"38 110 OFFCURVE",
"51 83 OFFCURVE",
"68 61 CURVE SMOOTH",
"85 39 OFFCURVE",
"105 23 OFFCURVE",
"128 11 CURVE SMOOTH",
"151 -1 OFFCURVE",
"176 -7 OFFCURVE",
"204 -7 CURVE SMOOTH",
"238 -7 OFFCURVE",
"268 0 OFFCURVE",
"294 13 CURVE SMOOTH",
"320 26 OFFCURVE",
"343 42 OFFCURVE",
"363 64 CURVE",
"363 -69 LINE",
"350 -71 OFFCURVE",
"341 -73 OFFCURVE",
"334 -74 CURVE SMOOTH",
"327 -75 OFFCURVE",
"322 -76 OFFCURVE",
"319 -77 CURVE SMOOTH",
"316 -78 OFFCURVE",
"314 -78 OFFCURVE",
"313 -78 CURVE",
"296 -82 OFFCURVE",
"288 -92 OFFCURVE",
"288 -109 CURVE SMOOTH",
"288 -168 LINE",
"364 -168 LINE",
"487 -168 LINE",
"567 -168 LINE",
"567 -109 LINE SMOOTH",
"567 -92 OFFCURVE",
"559 -82 OFFCURVE",
"542 -78 CURVE"
);
},
{
closed = 1;
nodes = (
"295 95 OFFCURVE",
"273 89 OFFCURVE",
"247 89 CURVE SMOOTH",
"231 89 OFFCURVE",
"216 92 OFFCURVE",
"203 98 CURVE SMOOTH",
"190 104 OFFCURVE",
"179 114 OFFCURVE",
"170 127 CURVE SMOOTH",
"161 140 OFFCURVE",
"155 157 OFFCURVE",
"150 178 CURVE SMOOTH",
"145 199 OFFCURVE",
"142 224 OFFCURVE",
"142 254 CURVE SMOOTH",
"142 284 OFFCURVE",
"145 309 OFFCURVE",
"151 331 CURVE SMOOTH",
"157 353 OFFCURVE",
"164 371 OFFCURVE",
"175 385 CURVE",
"185 399 OFFCURVE",
"198 410 OFFCURVE",
"213 417 CURVE SMOOTH",
"228 424 OFFCURVE",
"245 428 OFFCURVE",
"264 428 CURVE SMOOTH",
"297 428 OFFCURVE",
"330 424 OFFCURVE",
"363 418 CURVE",
"363 151 LINE",
"347 131 OFFCURVE",
"331 117 OFFCURVE",
"313 106 CURVE SMOOTH"
);
}
);
width = 578;
}
);
leftKerningGroup = c;
note = q;
rightKerningGroup = q;
unicode = 0071;
},
{
glyphname = r;
lastChange = "2017-01-26 15:47:28 +0000";
layers = (
{
anchors = (
{
name = bottom;
position = "{218, 0}";
},
{
name = top;
position = "{218, 513}";
}
);
layerId = "394C4E3B-EB1E-48D6-87F8-186C851DDDB0";
paths = (
{
closed = 1;
nodes = (
"328 522 OFFCURVE",
"301 513 OFFCURVE",
"276 495 CURVE SMOOTH",
"251 477 OFFCURVE",
"230 452 OFFCURVE",
"212 420 CURVE",
"204 482 LINE",
"202 493 OFFCURVE",
"199 501 OFFCURVE",
"194 506 CURVE SMOOTH",
"189 511 OFFCURVE",
"181 513 OFFCURVE",
"168 513 CURVE SMOOTH",
"95 513 LINE",
"95 513 LINE",
"20 513 LINE",
"20 454 LINE SMOOTH",
"20 437 OFFCURVE",
"28 427 OFFCURVE",
"45 423 CURVE",
"53 422 OFFCURVE",
"52 422 OFFCURVE",
"95 414 CURVE",
"95 99 LINE",
"52 91 OFFCURVE",
"53 91 OFFCURVE",
"45 90 CURVE",
"28 86 OFFCURVE",
"20 76 OFFCURVE",
"20 59 CURVE SMOOTH",
"20 0 LINE",
"95 0 LINE",
"219 0 LINE",
"219 0 LINE",
"294 0 LINE",
"294 59 LINE SMOOTH",
"294 76 OFFCURVE",
"286 86 OFFCURVE",
"269 90 CURVE",
"261 91 OFFCURVE",
"262 91 OFFCURVE",
"219 99 CURVE",
"219 319 LINE",
"232 346 OFFCURVE",
"247 368 OFFCURVE",
"265 382 CURVE SMOOTH",
"283 396 OFFCURVE",
"305 403 OFFCURVE",
"331 403 CURVE SMOOTH",
"345 403 OFFCURVE",
"357 401 OFFCURVE",
"366 399 CURVE SMOOTH",
"375 397 OFFCURVE",
"381 396 OFFCURVE",
"386 396 CURVE SMOOTH",
"392 396 OFFCURVE",
"397 398 OFFCURVE",
"400 400 CURVE SMOOTH",
"403 402 OFFCURVE",
"405 406 OFFCURVE",
"406 412 CURVE SMOOTH",
"422 505 LINE",
"405 517 OFFCURVE",
"384 522 OFFCURVE",
"359 522 CURVE SMOOTH"
);
}
);
width = 436;
}
);
leftKerningGroup = k;
note = r;
rightKerningGroup = r;
unicode = 0072;
},
{
glyphname = s;
lastChange = "2017-01-26 15:47:28 +0000";
layers = (
{
anchors = (
{
name = bottom;
position = "{201, 0}";
},
{
name = top;
position = "{201, 513}";
}
);
layerId = "394C4E3B-EB1E-48D6-87F8-186C851DDDB0";
paths = (
{
closed = 1;
nodes = (
"371 231 OFFCURVE",
"362 243 OFFCURVE",
"350 253 CURVE",
"338 264 OFFCURVE",
"325 272 OFFCURVE",
"310 279 CURVE SMOOTH",
"295 286 OFFCURVE",
"279 293 OFFCURVE",
"263 298 CURVE SMOOTH",
"247 303 OFFCURVE",
"232 308 OFFCURVE",
"217 312 CURVE SMOOTH",
"202 316 OFFCURVE",
"189 322 OFFCURVE",
"177 328 CURVE SMOOTH",
"165 334 OFFCURVE",
"156 339 OFFCURVE",
"149 347 CURVE SMOOTH",
"142 355 OFFCURVE",
"138 364 OFFCURVE",
"138 375 CURVE SMOOTH",
"138 392 OFFCURVE",
"145 406 OFFCURVE",
"159 416 CURVE SMOOTH",
"173 426 OFFCURVE",
"192 431 OFFCURVE",
"216 431 CURVE SMOOTH",
"239 431 OFFCURVE",
"263 428 OFFCURVE",
"276 424 CURVE",
"280 385 OFFCURVE",
"282 373 OFFCURVE",
"283 368 CURVE",
"286 356 OFFCURVE",
"293 349 OFFCURVE",
"306 349 CURVE SMOOTH",
"347 349 LINE",
"359 349 LINE",
"363 349 LINE",
"363 494 LINE",
"364 494 LINE",
"292 516 OFFCURVE",
"264 521 OFFCURVE",
"214 521 CURVE SMOOTH",
"182 521 OFFCURVE",
"155 516 OFFCURVE",
"131 508 CURVE SMOOTH",
"107 500 OFFCURVE",
"86 488 OFFCURVE",
"70 474 CURVE SMOOTH",
"54 460 OFFCURVE",
"41 443 OFFCURVE",
"33 424 CURVE SMOOTH",
"25 405 OFFCURVE",
"21 385 OFFCURVE",
"21 364 CURVE SMOOTH",
"21 341 OFFCURVE",
"25 322 OFFCURVE",
"32 306 CURVE SMOOTH",
"39 290 OFFCURVE",
"48 277 OFFCURVE",
"60 266 CURVE SMOOTH",
"72 255 OFFCURVE",
"86 246 OFFCURVE",
"101 239 CURVE SMOOTH",
"116 232 OFFCURVE",
"131 225 OFFCURVE",
"147 220 CURVE SMOOTH",
"163 215 OFFCURVE",
"179 210 OFFCURVE",
"194 205 CURVE",
"209 201 OFFCURVE",
"222 196 OFFCURVE",
"234 190 CURVE SMOOTH",
"246 184 OFFCURVE",
"256 178 OFFCURVE",
"263 170 CURVE SMOOTH",
"270 162 OFFCURVE",
"273 153 OFFCURVE",
"273 141 CURVE SMOOTH",
"273 133 OFFCURVE",
"272 125 OFFCURVE",
"269 117 CURVE SMOOTH",
"266 109 OFFCURVE",
"261 104 OFFCURVE",
"254 98 CURVE SMOOTH",
"247 92 OFFCURVE",
"239 88 OFFCURVE",
"228 84 CURVE",
"218 81 OFFCURVE",
"205 79 OFFCURVE",
"190 79 CURVE SMOOTH",
"168 79 OFFCURVE",
"136 79 OFFCURVE",
"109 87 CURVE",
"105 127 OFFCURVE",
"103 141 OFFCURVE",
"102 146 CURVE",
"99 158 OFFCURVE",
"92 165 OFFCURVE",
"79 165 CURVE SMOOTH",
"38 165 LINE",
"26 165 LINE",
"21 165 LINE",
"21 70 LINE",
"21 20 LINE",
"21 20 LINE",
"58 6 OFFCURVE",
"120 -8 OFFCURVE",
"184 -8 CURVE SMOOTH",
"217 -8 OFFCURVE",
"247 -4 OFFCURVE",
"272 5 CURVE",
"298 13 OFFCURVE",
"319 25 OFFCURVE",
"336 40 CURVE SMOOTH",
"353 55 OFFCURVE",
"366 73 OFFCURVE",
"375 94 CURVE SMOOTH",
"384 115 OFFCURVE",
"389 138 OFFCURVE",
"389 163 CURVE SMOOTH",
"389 184 OFFCURVE",
"385 201 OFFCURVE",
"378 216 CURVE SMOOTH"
);
}
);
width = 402;
}
);
leftKerningGroup = s;
note = s;
unicode = 0073;
},
{
glyphname = t;
lastChange = "2017-01-26 14:17:26 +0000";
layers = (
{
anchors = (
{
name = bottom;
position = "{187, 0}";
},
{
name = center;
position = "{187, 257}";
},
{
name = top;
position = "{187, 513}";
},
{
name = topright;
position = "{354, 513}";
}
);
layerId = "394C4E3B-EB1E-48D6-87F8-186C851DDDB0";
paths = (
{
closed = 1;
nodes = (
"253 -8 OFFCURVE",
"277 -4 OFFCURVE",
"300 4 CURVE SMOOTH",
"323 12 OFFCURVE",
"344 23 OFFCURVE",
"362 38 CURVE",
"325 98 LINE",
"322 102 OFFCURVE",
"320 104 OFFCURVE",
"318 106 CURVE SMOOTH",
"316 108 OFFCURVE",
"312 108 OFFCURVE",
"308 108 CURVE SMOOTH",
"305 108 OFFCURVE",
"303 108 OFFCURVE",
"300 106 CURVE SMOOTH",
"297 104 OFFCURVE",
"293 102 OFFCURVE",
"289 100 CURVE SMOOTH",
"285 98 OFFCURVE",
"281 96 OFFCURVE",
"276 94 CURVE SMOOTH",
"271 92 OFFCURVE",
"265 92 OFFCURVE",
"257 92 CURVE SMOOTH",
"244 92 OFFCURVE",
"233 96 OFFCURVE",
"225 105 CURVE SMOOTH",
"217 114 OFFCURVE",
"213 126 OFFCURVE",
"213 142 CURVE SMOOTH",
"213 420 LINE",
"348 420 LINE",
"348 508 LINE",
"213 508 LINE",
"213 670 LINE",
"149 670 LINE SMOOTH",
"142 670 OFFCURVE",
"135 668 OFFCURVE",
"130 664 CURVE SMOOTH",
"125 660 OFFCURVE",
"122 656 OFFCURVE",
"121 649 CURVE",
"95 509 LINE",
"12 496 LINE",
"12 446 LINE SMOOTH",
"12 437 OFFCURVE",
"15 431 OFFCURVE",
"20 427 CURVE SMOOTH",
"25 423 OFFCURVE",
"30 420 OFFCURVE",
"37 420 CURVE SMOOTH",
"89 420 LINE",
"89 134 LINE SMOOTH",
"89 90 OFFCURVE",
"101 55 OFFCURVE",
"125 30 CURVE SMOOTH",
"149 5 OFFCURVE",
"184 -8 OFFCURVE",
"228 -8 CURVE SMOOTH"
);
}
);
width = 374;
}
);
note = t;
unicode = 0074;
},
{
glyphname = u;
lastChange = "2017-01-26 15:47:28 +0000";
layers = (
{
anchors = (
{
name = bottom;
position = "{315, 0}";
},
{
name = ogonek;
position = "{567, 10}";
},
{
name = top;
position = "{315, 513}";
},
{
name = topright;
position = "{610, 513}";
}
);
layerId = "394C4E3B-EB1E-48D6-87F8-186C851DDDB0";
paths = (
{
closed = 1;
nodes = (
"578 91 OFFCURVE",
"579 91 OFFCURVE",
"536 99 CURVE",
"536 513 LINE",
"412 513 LINE",
"412 513 LINE",
"337 513 LINE",
"337 454 LINE SMOOTH",
"337 437 OFFCURVE",
"345 427 OFFCURVE",
"362 423 CURVE",
"370 422 OFFCURVE",
"370 421 OFFCURVE",
"412 414 CURVE",
"412 142 LINE",
"395 125 OFFCURVE",
"378 112 OFFCURVE",
"359 103 CURVE SMOOTH",
"340 94 OFFCURVE",
"320 89 OFFCURVE",
"299 89 CURVE SMOOTH",
"270 89 OFFCURVE",
"248 97 OFFCURVE",
"234 114 CURVE SMOOTH",
"220 131 OFFCURVE",
"212 156 OFFCURVE",
"212 187 CURVE SMOOTH",
"212 513 LINE",
"89 513 LINE",
"89 513 LINE",
"13 513 LINE",
"13 454 LINE SMOOTH",
"13 437 OFFCURVE",
"21 427 OFFCURVE",
"38 423 CURVE",
"46 422 OFFCURVE",
"46 422 OFFCURVE",
"89 414 CURVE",
"89 187 LINE SMOOTH",
"89 158 OFFCURVE",
"93 132 OFFCURVE",
"100 108 CURVE",
"108 84 OFFCURVE",
"118 64 OFFCURVE",
"133 47 CURVE SMOOTH",
"148 30 OFFCURVE",
"166 15 OFFCURVE",
"187 6 CURVE SMOOTH",
"209 -3 OFFCURVE",
"234 -8 OFFCURVE",
"262 -8 CURVE SMOOTH",
"279 -8 OFFCURVE",
"294 -6 OFFCURVE",
"309 -3 CURVE",
"324 1 OFFCURVE",
"338 6 OFFCURVE",
"351 12 CURVE SMOOTH",
"364 18 OFFCURVE",
"376 25 OFFCURVE",
"387 34 CURVE SMOOTH",
"398 43 OFFCURVE",
"409 53 OFFCURVE",
"420 64 CURVE",
"429 23 LINE",
"434 8 OFFCURVE",
"444 0 OFFCURVE",
"460 0 CURVE SMOOTH",
"536 0 LINE",
"611 0 LINE",
"611 59 LINE SMOOTH",
"611 76 OFFCURVE",
"603 86 OFFCURVE",
"586 90 CURVE"
);
}
);
width = 630;
}
);
leftKerningGroup = k;
note = u;
unicode = 0075;
},
{
glyphname = v;
lastChange = "2017-01-26 15:47:28 +0000";
layers = (
{
anchors = (
{
name = bottom;
position = "{307, 0}";
},
{
name = top;
position = "{307, 513}";
}
);
layerId = "394C4E3B-EB1E-48D6-87F8-186C851DDDB0";
paths = (
{
closed = 1;
nodes = (
"566 513 LINE",
"566 513 LINE",
"468 513 LINE",
"468 513 LINE",
"349 513 LINE",
"349 454 LINE SMOOTH",
"349 437 OFFCURVE",
"357 427 OFFCURVE",
"374 423 CURVE",
"380 422 OFFCURVE",
"382 421 OFFCURVE",
"407 417 CURVE",
"333 216 LINE SMOOTH",
"327 200 OFFCURVE",
"322 184 OFFCURVE",
"318 169 CURVE SMOOTH",
"314 154 OFFCURVE",
"311 138 OFFCURVE",
"308 123 CURVE",
"305 138 OFFCURVE",
"301 154 OFFCURVE",
"297 169 CURVE SMOOTH",
"293 184 OFFCURVE",
"289 200 OFFCURVE",
"283 216 CURVE SMOOTH",
"210 418 LINE",
"230 422 OFFCURVE",
"232 422 OFFCURVE",
"238 423 CURVE",
"255 427 OFFCURVE",
"263 437 OFFCURVE",
"263 454 CURVE SMOOTH",
"263 513 LINE",
"149 513 LINE",
"149 513 LINE",
"46 513 LINE",
"46 513 LINE",
"13 513 LINE",
"13 454 LINE SMOOTH",
"13 437 OFFCURVE",
"21 427 OFFCURVE",
"38 423 CURVE",
"46 422 OFFCURVE",
"42 422 OFFCURVE",
"85 414 CURVE",
"250 0 LINE",
"362 0 LINE",
"527 414 LINE",
"569 421 OFFCURVE",
"566 422 OFFCURVE",
"574 423 CURVE",
"591 427 OFFCURVE",
"599 437 OFFCURVE",
"599 454 CURVE SMOOTH",
"599 513 LINE"
);
}
);
width = 614;
}
);
leftKerningGroup = v;
note = v;
rightKerningGroup = v;
unicode = 0076;
},
{
glyphname = w;
lastChange = "2017-01-26 15:47:28 +0000";
layers = (
{
anchors = (
{
name = bottom;
position = "{447, 0}";
},
{
name = top;
position = "{447, 513}";
}
);
layerId = "394C4E3B-EB1E-48D6-87F8-186C851DDDB0";
paths = (
{
closed = 1;
nodes = (
"838 513 LINE",
"838 513 LINE",
"745 513 LINE",
"744 513 LINE",
"629 513 LINE",
"629 454 LINE SMOOTH",
"629 437 OFFCURVE",
"637 427 OFFCURVE",
"654 423 CURVE",
"661 422 OFFCURVE",
"662 421 OFFCURVE",
"690 416 CURVE",
"635 216 LINE SMOOTH",
"631 201 OFFCURVE",
"627 185 OFFCURVE",
"624 171 CURVE SMOOTH",
"621 157 OFFCURVE",
"618 142 OFFCURVE",
"616 128 CURVE",
"613 142 OFFCURVE",
"609 155 OFFCURVE",
"606 169 CURVE",
"594 211 LINE",
"510 491 LINE SMOOTH",
"508 498 OFFCURVE",
"504 503 OFFCURVE",
"498 507 CURVE SMOOTH",
"492 511 OFFCURVE",
"485 514 OFFCURVE",
"476 514 CURVE SMOOTH",
"421 514 LINE SMOOTH",
"413 514 OFFCURVE",
"406 511 OFFCURVE",
"400 507 CURVE SMOOTH",
"394 503 OFFCURVE",
"390 498 OFFCURVE",
"388 491 CURVE SMOOTH",
"303 216 LINE SMOOTH",
"298 201 OFFCURVE",
"294 186 OFFCURVE",
"290 172 CURVE SMOOTH",
"286 158 OFFCURVE",
"282 143 OFFCURVE",
"278 129 CURVE",
"276 143 OFFCURVE",
"273 158 OFFCURVE",
"271 172 CURVE SMOOTH",
"269 186 OFFCURVE",
"265 201 OFFCURVE",
"261 216 CURVE SMOOTH",
"207 417 LINE",
"230 421 OFFCURVE",
"232 422 OFFCURVE",
"238 423 CURVE",
"255 427 OFFCURVE",
"263 437 OFFCURVE",
"263 454 CURVE SMOOTH",
"263 513 LINE",
"152 513 LINE",
"152 513 LINE",
"54 513 LINE",
"54 513 LINE",
"13 513 LINE",
"13 454 LINE SMOOTH",
"13 437 OFFCURVE",
"21 427 OFFCURVE",
"38 423 CURVE",
"46 422 OFFCURVE",
"43 421 OFFCURVE",
"85 414 CURVE",
"217 0 LINE",
"311 0 LINE SMOOTH",
"324 0 OFFCURVE",
"333 7 OFFCURVE",
"338 22 CURVE SMOOTH",
"432 317 LINE SMOOTH",
"435 327 OFFCURVE",
"438 337 OFFCURVE",
"440 347 CURVE SMOOTH",
"446 377 LINE",
"448 367 OFFCURVE",
"449 358 OFFCURVE",
"452 348 CURVE",
"454 338 OFFCURVE",
"458 328 OFFCURVE",
"461 318 CURVE SMOOTH",
"553 22 LINE SMOOTH",
"558 7 OFFCURVE",
"565 0 OFFCURVE",
"576 0 CURVE SMOOTH",
"676 0 LINE",
"807 414 LINE",
"850 422 OFFCURVE",
"846 422 OFFCURVE",
"854 423 CURVE",
"871 427 OFFCURVE",
"879 437 OFFCURVE",
"879 454 CURVE SMOOTH",
"879 513 LINE"
);
}
);
width = 894;
}
);
leftKerningGroup = v;
note = w;
rightKerningGroup = v;
unicode = 0077;
},
{
glyphname = x;
lastChange = "2017-01-26 15:47:28 +0000";
layers = (
{
anchors = (
{
name = bottom;
position = "{281, 0}";
},
{
name = top;
position = "{281, 513}";
}
);
layerId = "394C4E3B-EB1E-48D6-87F8-186C851DDDB0";
paths = (
{
closed = 1;
nodes = (
"510 91 OFFCURVE",
"507 92 OFFCURVE",
"475 97 CURVE",
"362 270 LINE",
"464 416 LINE",
"497 421 OFFCURVE",
"500 422 OFFCURVE",
"507 423 CURVE",
"524 427 OFFCURVE",
"532 437 OFFCURVE",
"532 454 CURVE SMOOTH",
"532 513 LINE",
"531 513 LINE",
"531 513 LINE",
"418 513 LINE",
"417 513 LINE",
"309 513 LINE",
"309 454 LINE SMOOTH",
"309 437 OFFCURVE",
"317 427 OFFCURVE",
"334 423 CURVE",
"337 422 OFFCURVE",
"339 422 OFFCURVE",
"342 421 CURVE",
"303 359 LINE SMOOTH",
"299 353 OFFCURVE",
"295 348 OFFCURVE",
"293 342 CURVE SMOOTH",
"291 336 OFFCURVE",
"289 331 OFFCURVE",
"287 325 CURVE",
"226 423 LINE",
"226 423 LINE",
"243 427 OFFCURVE",
"251 437 OFFCURVE",
"251 454 CURVE SMOOTH",
"251 513 LINE",
"148 513 LINE",
"148 513 LINE",
"29 513 LINE",
"29 513 LINE",
"29 513 LINE",
"29 454 LINE SMOOTH",
"29 437 OFFCURVE",
"37 427 OFFCURVE",
"54 423 CURVE",
"61 422 OFFCURVE",
"64 421 OFFCURVE",
"95 416 CURVE",
"198 264 LINE",
"86 97 LINE",
"53 92 OFFCURVE",
"51 91 OFFCURVE",
"44 90 CURVE",
"27 86 OFFCURVE",
"18 76 OFFCURVE",
"18 59 CURVE SMOOTH",
"18 0 LINE",
"22 0 LINE",
"67 0 LINE",
"94 0 LINE",
"133 0 LINE",
"241 0 LINE",
"241 59 LINE SMOOTH",
"241 76 OFFCURVE",
"233 86 OFFCURVE",
"216 90 CURVE",
"214 90 OFFCURVE",
"212 91 OFFCURVE",
"210 91 CURVE",
"262 171 LINE SMOOTH",
"267 179 OFFCURVE",
"272 189 OFFCURVE",
"275 201 CURVE",
"343 90 LINE",
"327 86 OFFCURVE",
"319 76 OFFCURVE",
"319 59 CURVE SMOOTH",
"319 0 LINE",
"419 0 LINE",
"466 0 LINE",
"494 0 LINE",
"538 0 LINE",
"542 0 LINE",
"542 59 LINE SMOOTH",
"542 76 OFFCURVE",
"534 86 OFFCURVE",
"517 90 CURVE"
);
}
);
width = 561;
}
);
leftKerningGroup = x;
note = x;
rightKerningGroup = k;
unicode = 0078;
},
{
glyphname = y;
lastChange = "2017-01-26 15:47:28 +0000";
layers = (
{
anchors = (
{
name = bottom;
position = "{306, 0}";
},
{
name = top;
position = "{306, 513}";
}
);
layerId = "394C4E3B-EB1E-48D6-87F8-186C851DDDB0";
paths = (
{
closed = 1;
nodes = (
"566 513 LINE",
"566 513 LINE",
"467 513 LINE",
"467 513 LINE",
"346 513 LINE",
"346 454 LINE SMOOTH",
"346 437 OFFCURVE",
"354 427 OFFCURVE",
"371 423 CURVE",
"377 422 OFFCURVE",
"379 422 OFFCURVE",
"405 417 CURVE",
"330 224 LINE",
"326 215 OFFCURVE",
"323 206 OFFCURVE",
"320 197 CURVE SMOOTH",
"317 188 OFFCURVE",
"314 179 OFFCURVE",
"311 169 CURVE",
"309 178 OFFCURVE",
"307 188 OFFCURVE",
"304 197 CURVE SMOOTH",
"301 206 OFFCURVE",
"299 215 OFFCURVE",
"295 224 CURVE SMOOTH",
"214 419 LINE",
"230 422 OFFCURVE",
"233 422 OFFCURVE",
"238 423 CURVE SMOOTH",
"255 427 OFFCURVE",
"263 437 OFFCURVE",
"263 454 CURVE SMOOTH",
"263 513 LINE",
"150 513 LINE",
"150 513 LINE",
"42 513 LINE",
"42 513 LINE",
"13 513 LINE",
"13 454 LINE SMOOTH",
"13 437 OFFCURVE",
"21 427 OFFCURVE",
"38 423 CURVE",
"46 422 OFFCURVE",
"43 421 OFFCURVE",
"85 414 CURVE",
"250 38 LINE",
"154 -167 LINE",
"246 -167 LINE SMOOTH",
"258 -167 OFFCURVE",
"266 -166 OFFCURVE",
"272 -161 CURVE",
"278 -157 OFFCURVE",
"283 -150 OFFCURVE",
"287 -141 CURVE SMOOTH",
"524 414 LINE",
"566 421 OFFCURVE",
"563 422 OFFCURVE",
"571 423 CURVE",
"588 427 OFFCURVE",
"596 437 OFFCURVE",
"596 454 CURVE SMOOTH",
"596 513 LINE"
);
}
);
width = 611;
}
);
leftKerningGroup = v;
note = y;
rightKerningGroup = v;
unicode = 0079;
},
{
glyphname = z;
lastChange = "2017-01-26 15:47:28 +0000";
layers = (
{
anchors = (
{
name = bottom;
position = "{225, 0}";
},
{
name = top;
position = "{225, 513}";
}
);
layerId = "394C4E3B-EB1E-48D6-87F8-186C851DDDB0";
paths = (
{
closed = 1;
nodes = (
"424 168 LINE",
"412 168 LINE",
"370 168 LINE SMOOTH",
"357 168 OFFCURVE",
"350 161 OFFCURVE",
"347 149 CURVE",
"346 144 OFFCURVE",
"345 132 OFFCURVE",
"341 95 CURVE",
"162 95 LINE",
"405 416 LINE",
"409 422 OFFCURVE",
"414 429 OFFCURVE",
"417 437 CURVE SMOOTH",
"420 445 OFFCURVE",
"421 453 OFFCURVE",
"421 462 CURVE SMOOTH",
"421 513 LINE",
"32 513 LINE",
"32 507 LINE",
"32 507 LINE",
"32 349 LINE",
"37 349 LINE",
"49 349 LINE",
"90 349 LINE SMOOTH",
"103 349 OFFCURVE",
"110 356 OFFCURVE",
"113 368 CURVE SMOOTH",
"114 372 OFFCURVE",
"116 384 OFFCURVE",
"119 418 CURVE",
"280 418 LINE",
"34 94 LINE",
"28 87 OFFCURVE",
"25 80 OFFCURVE",
"22 72 CURVE SMOOTH",
"19 64 OFFCURVE",
"18 58 OFFCURVE",
"18 52 CURVE SMOOTH",
"18 0 LINE",
"412 0 LINE",
"414 0 LINE",
"428 0 LINE",
"428 168 LINE"
);
}
);
width = 449;
}
);
leftKerningGroup = z;
note = z;
rightKerningGroup = uni01F2;
unicode = 007A;
},
{
glyphname = braceleft;
layers = (
{
layerId = "394C4E3B-EB1E-48D6-87F8-186C851DDDB0";
paths = (
{
closed = 1;
nodes = (
"76 189 OFFCURVE",
"74 174 OFFCURVE",
"72 158 CURVE SMOOTH",
"70 142 OFFCURVE",
"68 127 OFFCURVE",
"65 111 CURVE SMOOTH",
"62 95 OFFCURVE",
"59 80 OFFCURVE",
"57 64 CURVE SMOOTH",
"55 48 OFFCURVE",
"54 32 OFFCURVE",
"54 16 CURVE SMOOTH",
"54 -9 OFFCURVE",
"58 -33 OFFCURVE",
"65 -54 CURVE SMOOTH",
"72 -75 OFFCURVE",
"84 -92 OFFCURVE",
"99 -107 CURVE SMOOTH",
"114 -122 OFFCURVE",
"133 -134 OFFCURVE",
"156 -142 CURVE SMOOTH",
"179 -150 OFFCURVE",
"207 -154 OFFCURVE",
"238 -154 CURVE SMOOTH",
"264 -154 LINE",
"264 -100 LINE SMOOTH",
"264 -96 OFFCURVE",
"264 -91 OFFCURVE",
"262 -88 CURVE SMOOTH",
"260 -85 OFFCURVE",
"258 -82 OFFCURVE",
"255 -80 CURVE SMOOTH",
"252 -78 OFFCURVE",
"249 -77 OFFCURVE",
"246 -76 CURVE SMOOTH",
"243 -75 OFFCURVE",
"240 -74 OFFCURVE",
"238 -74 CURVE SMOOTH",
"234 -74 LINE SMOOTH",
"211 -74 OFFCURVE",
"192 -67 OFFCURVE",
"180 -52 CURVE SMOOTH",
"168 -37 OFFCURVE",
"162 -17 OFFCURVE",
"162 8 CURVE SMOOTH",
"162 26 OFFCURVE",
"162 44 OFFCURVE",
"164 61 CURVE SMOOTH",
"166 78 OFFCURVE",
"169 94 OFFCURVE",
"171 110 CURVE SMOOTH",
"173 126 OFFCURVE",
"175 142 OFFCURVE",
"177 157 CURVE SMOOTH",
"179 172 OFFCURVE",
"180 187 OFFCURVE",
"180 203 CURVE SMOOTH",
"180 215 OFFCURVE",
"179 228 OFFCURVE",
"175 239 CURVE SMOOTH",
"171 250 OFFCURVE",
"166 261 OFFCURVE",
"159 270 CURVE SMOOTH",
"152 279 OFFCURVE",
"145 287 OFFCURVE",
"135 294 CURVE SMOOTH",
"125 301 OFFCURVE",
"114 306 OFFCURVE",
"102 310 CURVE",
"114 313 OFFCURVE",
"125 318 OFFCURVE",
"135 325 CURVE SMOOTH",
"145 332 OFFCURVE",
"152 340 OFFCURVE",
"159 349 CURVE SMOOTH",
"166 358 OFFCURVE",
"171 369 OFFCURVE",
"175 380 CURVE SMOOTH",
"179 391 OFFCURVE",
"180 403 OFFCURVE",
"180 416 CURVE SMOOTH",
"180 432 OFFCURVE",
"179 448 OFFCURVE",
"177 463 CURVE SMOOTH",
"175 478 OFFCURVE",
"173 493 OFFCURVE",
"171 509 CURVE SMOOTH",
"169 525 OFFCURVE",
"166 541 OFFCURVE",
"164 558 CURVE SMOOTH",
"162 575 OFFCURVE",
"161 593 OFFCURVE",
"161 611 CURVE SMOOTH",
"161 637 OFFCURVE",
"168 657 OFFCURVE",
"180 672 CURVE SMOOTH",
"192 687 OFFCURVE",
"210 694 OFFCURVE",
"233 694 CURVE SMOOTH",
"238 694 LINE SMOOTH",
"240 694 OFFCURVE",
"243 694 OFFCURVE",
"246 695 CURVE SMOOTH",
"249 696 OFFCURVE",
"252 698 OFFCURVE",
"255 700 CURVE SMOOTH",
"258 702 OFFCURVE",
"260 704 OFFCURVE",
"262 707 CURVE SMOOTH",
"264 710 OFFCURVE",
"264 714 OFFCURVE",
"264 718 CURVE SMOOTH",
"264 774 LINE",
"238 774 LINE SMOOTH",
"207 774 OFFCURVE",
"179 769 OFFCURVE",
"156 761 CURVE SMOOTH",
"133 753 OFFCURVE",
"114 741 OFFCURVE",
"99 726 CURVE SMOOTH",
"84 711 OFFCURVE",
"72 694 OFFCURVE",
"65 673 CURVE SMOOTH",
"58 652 OFFCURVE",
"54 629 OFFCURVE",
"54 604 CURVE SMOOTH",
"54 588 OFFCURVE",
"55 571 OFFCURVE",
"57 555 CURVE SMOOTH",
"59 539 OFFCURVE",
"62 524 OFFCURVE",
"65 508 CURVE SMOOTH",
"68 492 OFFCURVE",
"70 477 OFFCURVE",
"72 461 CURVE SMOOTH",
"74 445 OFFCURVE",
"76 431 OFFCURVE",
"76 415 CURVE SMOOTH",
"76 395 OFFCURVE",
"71 378 OFFCURVE",
"61 365 CURVE SMOOTH",
"51 352 OFFCURVE",
"37 346 OFFCURVE",
"16 346 CURVE",
"16 274 LINE",
"37 274 OFFCURVE",
"51 268 OFFCURVE",
"61 255 CURVE SMOOTH",
"71 242 OFFCURVE",
"76 225 OFFCURVE",
"76 205 CURVE SMOOTH"
);
}
);
width = 280;
}
);
note = braceleft;
unicode = 007B;
},
{
glyphname = bar;
layers = (
{
layerId = "394C4E3B-EB1E-48D6-87F8-186C851DDDB0";
paths = (
{
closed = 1;
nodes = (
"28 774 LINE",
"28 -168 LINE",
"124 -168 LINE",
"124 774 LINE"
);
}
);
width = 150;
}
);
note = bar;
unicode = 007C;
},
{
glyphname = braceright;
layers = (
{
layerId = "394C4E3B-EB1E-48D6-87F8-186C851DDDB0";
paths = (
{
closed = 1;
nodes = (
"205 225 OFFCURVE",
"209 242 OFFCURVE",
"219 255 CURVE SMOOTH",
"229 268 OFFCURVE",
"244 274 OFFCURVE",
"265 274 CURVE",
"265 346 LINE",
"244 346 OFFCURVE",
"229 352 OFFCURVE",
"219 365 CURVE SMOOTH",
"209 378 OFFCURVE",
"205 394 OFFCURVE",
"205 414 CURVE SMOOTH",
"205 430 OFFCURVE",
"206 445 OFFCURVE",
"208 461 CURVE SMOOTH",
"210 476 OFFCURVE",
"212 492 OFFCURVE",
"215 508 CURVE SMOOTH",
"218 524 OFFCURVE",
"221 539 OFFCURVE",
"223 555 CURVE SMOOTH",
"225 571 OFFCURVE",
"226 588 OFFCURVE",
"226 604 CURVE SMOOTH",
"226 629 OFFCURVE",
"222 652 OFFCURVE",
"215 673 CURVE SMOOTH",
"208 694 OFFCURVE",
"196 711 OFFCURVE",
"181 726 CURVE SMOOTH",
"166 741 OFFCURVE",
"147 753 OFFCURVE",
"124 761 CURVE SMOOTH",
"101 769 OFFCURVE",
"73 774 OFFCURVE",
"42 774 CURVE SMOOTH",
"16 774 LINE",
"16 718 LINE SMOOTH",
"16 714 OFFCURVE",
"16 710 OFFCURVE",
"18 707 CURVE SMOOTH",
"20 704 OFFCURVE",
"22 702 OFFCURVE",
"25 700 CURVE SMOOTH",
"28 698 OFFCURVE",
"31 696 OFFCURVE",
"34 695 CURVE SMOOTH",
"37 694 OFFCURVE",
"40 694 OFFCURVE",
"42 694 CURVE SMOOTH",
"47 694 LINE SMOOTH",
"70 694 OFFCURVE",
"88 687 OFFCURVE",
"100 672 CURVE SMOOTH",
"112 657 OFFCURVE",
"119 637 OFFCURVE",
"119 611 CURVE SMOOTH",
"119 593 OFFCURVE",
"118 575 OFFCURVE",
"116 558 CURVE SMOOTH",
"114 541 OFFCURVE",
"111 525 OFFCURVE",
"109 509 CURVE SMOOTH",
"107 493 OFFCURVE",
"105 477 OFFCURVE",
"103 462 CURVE SMOOTH",
"101 447 OFFCURVE",
"100 432 OFFCURVE",
"100 416 CURVE SMOOTH",
"100 403 OFFCURVE",
"101 391 OFFCURVE",
"105 380 CURVE SMOOTH",
"109 369 OFFCURVE",
"114 358 OFFCURVE",
"121 349 CURVE SMOOTH",
"128 340 OFFCURVE",
"135 332 OFFCURVE",
"145 325 CURVE SMOOTH",
"155 318 OFFCURVE",
"166 313 OFFCURVE",
"178 310 CURVE",
"166 306 OFFCURVE",
"155 301 OFFCURVE",
"145 294 CURVE SMOOTH",
"135 287 OFFCURVE",
"128 279 OFFCURVE",
"121 270 CURVE SMOOTH",
"114 261 OFFCURVE",
"109 249 OFFCURVE",
"105 238 CURVE SMOOTH",
"101 227 OFFCURVE",
"100 215 OFFCURVE",
"100 203 CURVE SMOOTH",
"100 187 OFFCURVE",
"101 171 OFFCURVE",
"103 156 CURVE SMOOTH",
"105 141 OFFCURVE",
"107 126 OFFCURVE",
"109 110 CURVE SMOOTH",
"111 94 OFFCURVE",
"114 78 OFFCURVE",
"116 61 CURVE SMOOTH",
"118 44 OFFCURVE",
"119 26 OFFCURVE",
"119 8 CURVE SMOOTH",
"119 -17 OFFCURVE",
"112 -37 OFFCURVE",
"100 -52 CURVE SMOOTH",
"88 -67 OFFCURVE",
"69 -74 OFFCURVE",
"46 -74 CURVE SMOOTH",
"42 -74 LINE SMOOTH",
"40 -74 OFFCURVE",
"37 -75 OFFCURVE",
"34 -76 CURVE SMOOTH",
"31 -77 OFFCURVE",
"28 -78 OFFCURVE",
"25 -80 CURVE SMOOTH",
"22 -82 OFFCURVE",
"20 -85 OFFCURVE",
"18 -88 CURVE SMOOTH",
"16 -91 OFFCURVE",
"16 -96 OFFCURVE",
"16 -100 CURVE SMOOTH",
"16 -154 LINE",
"42 -154 LINE SMOOTH",
"73 -154 OFFCURVE",
"101 -150 OFFCURVE",
"124 -142 CURVE SMOOTH",
"147 -134 OFFCURVE",
"166 -122 OFFCURVE",
"181 -107 CURVE SMOOTH",
"196 -92 OFFCURVE",
"208 -75 OFFCURVE",
"215 -54 CURVE SMOOTH",
"222 -33 OFFCURVE",
"226 -10 OFFCURVE",
"226 15 CURVE SMOOTH",
"226 31 OFFCURVE",
"225 48 OFFCURVE",
"223 64 CURVE SMOOTH",
"221 80 OFFCURVE",
"218 95 OFFCURVE",
"215 111 CURVE SMOOTH",
"212 127 OFFCURVE",
"210 142 OFFCURVE",
"208 158 CURVE SMOOTH",
"206 174 OFFCURVE",
"205 189 OFFCURVE",
"205 205 CURVE SMOOTH"
);
}
);
width = 280;
}
);
note = braceright;
unicode = 007D;
},
{
glyphname = asciitilde;
lastChange = "2017-01-26 15:47:28 +0000";
layers = (
{
layerId = "394C4E3B-EB1E-48D6-87F8-186C851DDDB0";
paths = (
{
closed = 1;
nodes = (
"337 324 OFFCURVE",
"327 326 OFFCURVE",
"314 331 CURVE SMOOTH",
"301 336 OFFCURVE",
"287 340 OFFCURVE",
"273 346 CURVE",
"259 351 OFFCURVE",
"243 357 OFFCURVE",
"227 362 CURVE SMOOTH",
"211 367 OFFCURVE",
"194 369 OFFCURVE",
"176 369 CURVE SMOOTH",
"152 369 OFFCURVE",
"131 365 OFFCURVE",
"112 357 CURVE SMOOTH",
"93 349 OFFCURVE",
"78 337 OFFCURVE",
"65 322 CURVE SMOOTH",
"52 307 OFFCURVE",
"42 290 OFFCURVE",
"35 269 CURVE SMOOTH",
"28 248 OFFCURVE",
"25 225 OFFCURVE",
"25 199 CURVE",
"124 199 LINE",
"124 221 OFFCURVE",
"130 238 OFFCURVE",
"140 250 CURVE SMOOTH",
"150 262 OFFCURVE",
"165 268 OFFCURVE",
"184 268 CURVE SMOOTH",
"195 268 OFFCURVE",
"205 266 OFFCURVE",
"218 261 CURVE SMOOTH",
"231 256 OFFCURVE",
"245 251 OFFCURVE",
"259 245 CURVE SMOOTH",
"273 239 OFFCURVE",
"289 235 OFFCURVE",
"305 230 CURVE SMOOTH",
"321 225 OFFCURVE",
"338 223 OFFCURVE",
"356 223 CURVE SMOOTH",
"380 223 OFFCURVE",
"401 227 OFFCURVE",
"420 235 CURVE SMOOTH",
"439 243 OFFCURVE",
"454 254 OFFCURVE",
"467 269 CURVE SMOOTH",
"480 284 OFFCURVE",
"490 302 OFFCURVE",
"497 323 CURVE SMOOTH",
"504 344 OFFCURVE",
"507 367 OFFCURVE",
"507 393 CURVE",
"408 393 LINE",
"408 371 OFFCURVE",
"402 354 OFFCURVE",
"392 342 CURVE SMOOTH",
"382 330 OFFCURVE",
"367 324 OFFCURVE",
"348 324 CURVE SMOOTH"
);
}
);
width = 532;
}
);
leftKerningGroup = emdash;
note = asciitilde;
rightKerningGroup = emdash;
unicode = 007E;
},
{
glyphname = exclamdown;
layers = (
{
layerId = "394C4E3B-EB1E-48D6-87F8-186C851DDDB0";
paths = (
{
closed = 1;
nodes = (
"39 -168 LINE",
"156 -168 LINE",
"156 99 LINE SMOOTH",
"156 129 OFFCURVE",
"154 159 OFFCURVE",
"151 188 CURVE SMOOTH",
"148 217 OFFCURVE",
"144 248 OFFCURVE",
"139 281 CURVE",
"56 281 LINE",
"51 248 OFFCURVE",
"47 217 OFFCURVE",
"44 188 CURVE SMOOTH",
"41 159 OFFCURVE",
"39 129 OFFCURVE",
"39 99 CURVE SMOOTH"
);
},
{
closed = 1;
nodes = (
"20 435 OFFCURVE",
"22 425 OFFCURVE",
"26 416 CURVE SMOOTH",
"30 407 OFFCURVE",
"35 400 OFFCURVE",
"42 393 CURVE SMOOTH",
"49 386 OFFCURVE",
"57 381 OFFCURVE",
"66 377 CURVE SMOOTH",
"75 373 OFFCURVE",
"85 371 OFFCURVE",
"96 371 CURVE SMOOTH",
"107 371 OFFCURVE",
"116 373 OFFCURVE",
"125 377 CURVE SMOOTH",
"134 381 OFFCURVE",
"142 386 OFFCURVE",
"149 393 CURVE SMOOTH",
"156 400 OFFCURVE",
"161 407 OFFCURVE",
"165 416 CURVE SMOOTH",
"169 425 OFFCURVE",
"171 435 OFFCURVE",
"171 446 CURVE SMOOTH",
"171 457 OFFCURVE",
"169 467 OFFCURVE",
"165 476 CURVE SMOOTH",
"161 485 OFFCURVE",
"156 493 OFFCURVE",
"149 500 CURVE SMOOTH",
"142 507 OFFCURVE",
"134 511 OFFCURVE",
"125 515 CURVE SMOOTH",
"116 519 OFFCURVE",
"106 521 OFFCURVE",
"95 521 CURVE SMOOTH",
"84 521 OFFCURVE",
"74 519 OFFCURVE",
"65 515 CURVE SMOOTH",
"56 511 OFFCURVE",
"48 506 OFFCURVE",
"41 499 CURVE SMOOTH",
"34 492 OFFCURVE",
"30 485 OFFCURVE",
"26 476 CURVE SMOOTH",
"22 467 OFFCURVE",
"20 457 OFFCURVE",
"20 446 CURVE SMOOTH"
);
}
);
width = 191;
}
);
note = exclamdown;
unicode = 00A1;
},
{
glyphname = cent;
lastChange = "2017-01-26 15:47:28 +0000";
layers = (
{
layerId = "394C4E3B-EB1E-48D6-87F8-186C851DDDB0";
paths = (
{
closed = 1;
nodes = (
"415 120 LINE",
"410 128 OFFCURVE",
"403 132 OFFCURVE",
"393 132 CURVE SMOOTH",
"385 132 OFFCURVE",
"378 130 OFFCURVE",
"372 125 CURVE SMOOTH",
"366 120 OFFCURVE",
"358 115 OFFCURVE",
"350 109 CURVE SMOOTH",
"342 103 OFFCURVE",
"332 98 OFFCURVE",
"320 93 CURVE SMOOTH",
"308 88 OFFCURVE",
"292 86 OFFCURVE",
"272 86 CURVE SMOOTH",
"268 86 LINE",
"297 422 LINE",
"298 425 LINE",
"308 424 OFFCURVE",
"322 421 OFFCURVE",
"340 416 CURVE",
"344 376 OFFCURVE",
"347 353 OFFCURVE",
"348 344 CURVE",
"351 332 OFFCURVE",
"358 325 OFFCURVE",
"371 325 CURVE SMOOTH",
"413 325 LINE",
"425 325 LINE",
"429 325 LINE",
"429 483 LINE",
"374 503 OFFCURVE",
"334 515 OFFCURVE",
"306 518 CURVE",
"309 555 LINE",
"309 556 LINE",
"315 628 LINE",
"270 628 LINE SMOOTH",
"260 628 OFFCURVE",
"252 626 OFFCURVE",
"246 619 CURVE SMOOTH",
"240 612 OFFCURVE",
"237 605 OFFCURVE",
"236 597 CURVE",
"234 565 LINE",
"229 518 LINE",
"204 515 OFFCURVE",
"181 509 OFFCURVE",
"160 500 CURVE SMOOTH",
"129 487 OFFCURVE",
"103 469 OFFCURVE",
"82 445 CURVE SMOOTH",
"61 421 OFFCURVE",
"46 393 OFFCURVE",
"35 361 CURVE SMOOTH",
"24 329 OFFCURVE",
"18 295 OFFCURVE",
"18 257 CURVE SMOOTH",
"18 215 OFFCURVE",
"25 177 OFFCURVE",
"37 144 CURVE SMOOTH",
"49 111 OFFCURVE",
"65 84 OFFCURVE",
"86 61 CURVE SMOOTH",
"107 38 OFFCURVE",
"131 21 OFFCURVE",
"159 9 CURVE",
"167 6 OFFCURVE",
"176 3 OFFCURVE",
"185 0 CURVE",
"181 -46 LINE",
"175 -112 LINE",
"221 -112 LINE SMOOTH",
"231 -112 OFFCURVE",
"238 -108 OFFCURVE",
"244 -102 CURVE",
"250 -95 OFFCURVE",
"253 -88 OFFCURVE",
"254 -80 CURVE SMOOTH",
"256 -66 LINE",
"260 -8 LINE",
"274 -8 OFFCURVE",
"289 -6 OFFCURVE",
"303 -4 CURVE SMOOTH",
"321 -1 OFFCURVE",
"340 3 OFFCURVE",
"357 9 CURVE",
"374 16 OFFCURVE",
"390 24 OFFCURVE",
"406 35 CURVE SMOOTH",
"422 46 OFFCURVE",
"437 60 OFFCURVE",
"451 76 CURVE"
);
},
{
closed = 1;
nodes = (
"148 205 OFFCURVE",
"145 229 OFFCURVE",
"145 256 CURVE SMOOTH",
"145 282 OFFCURVE",
"148 306 OFFCURVE",
"153 327 CURVE SMOOTH",
"158 348 OFFCURVE",
"166 365 OFFCURVE",
"177 380 CURVE SMOOTH",
"188 395 OFFCURVE",
"202 406 OFFCURVE",
"218 414 CURVE",
"218 414 OFFCURVE",
"218 415 OFFCURVE",
"219 415 CURVE SMOOTH",
"221 415 LINE",
"206 246 LINE",
"195 113 LINE",
"189 118 OFFCURVE",
"184 124 OFFCURVE",
"179 130 CURVE",
"168 145 OFFCURVE",
"160 163 OFFCURVE",
"154 184 CURVE SMOOTH"
);
}
);
width = 466;
}
);
leftKerningGroup = c;
note = cent;
unicode = 00A2;
},
{
glyphname = sterling;
layers = (
{
layerId = "394C4E3B-EB1E-48D6-87F8-186C851DDDB0";
paths = (
{
closed = 1;
nodes = (
"18 300 LINE",
"114 300 LINE",
"114 170 LINE SMOOTH",
"114 156 OFFCURVE",
"111 144 OFFCURVE",
"106 134 CURVE SMOOTH",
"101 124 OFFCURVE",
"96 115 OFFCURVE",
"88 107 CURVE SMOOTH",
"80 99 OFFCURVE",
"70 94 OFFCURVE",
"60 89 CURVE SMOOTH",
"50 84 OFFCURVE",
"39 81 OFFCURVE",
"28 78 CURVE",
"28 0 LINE",
"508 0 LINE SMOOTH",
"516 0 OFFCURVE",
"523 2 OFFCURVE",
"529 5 CURVE SMOOTH",
"535 8 OFFCURVE",
"541 12 OFFCURVE",
"546 17 CURVE SMOOTH",
"551 22 OFFCURVE",
"555 28 OFFCURVE",
"557 34 CURVE SMOOTH",
"559 40 OFFCURVE",
"560 47 OFFCURVE",
"560 53 CURVE SMOOTH",
"560 105 LINE",
"267 105 LINE SMOOTH",
"243 105 OFFCURVE",
"219 102 OFFCURVE",
"194 96 CURVE",
"208 111 OFFCURVE",
"220 127 OFFCURVE",
"228 144 CURVE SMOOTH",
"236 161 OFFCURVE",
"240 181 OFFCURVE",
"240 203 CURVE SMOOTH",
"240 300 LINE",
"409 300 LINE SMOOTH",
"419 300 OFFCURVE",
"429 303 OFFCURVE",
"435 310 CURVE SMOOTH",
"441 317 OFFCURVE",
"444 324 OFFCURVE",
"444 332 CURVE SMOOTH",
"444 381 LINE",
"240 381 LINE",
"240 500 LINE SMOOTH",
"240 540 OFFCURVE",
"248 571 OFFCURVE",
"265 593 CURVE SMOOTH",
"282 615 OFFCURVE",
"308 627 OFFCURVE",
"342 627 CURVE SMOOTH",
"353 627 OFFCURVE",
"364 626 OFFCURVE",
"372 624 CURVE SMOOTH",
"380 622 OFFCURVE",
"388 618 OFFCURVE",
"395 614 CURVE SMOOTH",
"402 610 OFFCURVE",
"409 604 OFFCURVE",
"415 598 CURVE SMOOTH",
"421 592 OFFCURVE",
"428 585 OFFCURVE",
"434 578 CURVE SMOOTH",
"444 567 OFFCURVE",
"455 561 OFFCURVE",
"467 561 CURVE SMOOTH",
"475 561 OFFCURVE",
"485 564 OFFCURVE",
"496 569 CURVE",
"545 600 LINE",
"536 618 OFFCURVE",
"526 636 OFFCURVE",
"514 652 CURVE SMOOTH",
"502 668 OFFCURVE",
"487 681 OFFCURVE",
"471 693 CURVE SMOOTH",
"455 705 OFFCURVE",
"435 714 OFFCURVE",
"414 721 CURVE SMOOTH",
"393 728 OFFCURVE",
"369 731 OFFCURVE",
"342 731 CURVE SMOOTH",
"303 731 OFFCURVE",
"271 724 OFFCURVE",
"242 712 CURVE SMOOTH",
"213 700 OFFCURVE",
"189 683 OFFCURVE",
"170 662 CURVE SMOOTH",
"151 641 OFFCURVE",
"137 616 OFFCURVE",
"128 588 CURVE SMOOTH",
"119 560 OFFCURVE",
"114 530 OFFCURVE",
"114 499 CURVE SMOOTH",
"114 381 LINE",
"60 381 LINE SMOOTH",
"46 381 OFFCURVE",
"36 377 OFFCURVE",
"29 369 CURVE SMOOTH",
"22 361 OFFCURVE",
"18 351 OFFCURVE",
"18 340 CURVE SMOOTH"
);
}
);
width = 577;
}
);
note = sterling;
unicode = 00A3;
},
